<?xml version="1.0" encoding="UTF-8"?>
<svg id="Layer_1" data-name="Layer 1" xmlns="http://www.w3.org/2000/svg" viewBox="0 0 189 245.9">
  <defs>
    <style>
      .cls-1 {
        stroke-width: 0px;
      }
    </style>
  </defs>
  <path class="cls-1" d="m83.36,216.46c-1.01,3.56-2.55,5.87-1.98,8.85.32,1.67,9.62,3.74,10.51,7.84,1.29,5.94-2.32,11.05-10.87,12.75-6.95.06-19.23-1.56-26.56-4.73s-8.73-14.26,1.43-17.11c3.72-1.04,6.44-.14,8.26-1.66,2.67-2.23,2.33-6.69,3.14-9.39C33.77,197,11.35,170.86,3.3,137.2-10.6,79.1,20.56,18.47,75.83,3.57c40.41-10.9,79.05,2.62,101.26,48.2,30.84,63.29-.36,139.06-69.03,159.47-6.76,2.01-14.73,4.51-24.71,5.23Zm-18.9-183.47c-20.06,13.43-32.67,30.42-35.84,54.56,4.41,2.85,8.09,5.24,10.81,7,6.12-23.04,15.74-39.08,37.53-54.61-3.82-2.12-8.05-4.47-12.51-6.95Z"/>
</svg>