<?xml version="1.0" encoding="UTF-8"?>
<svg id="Layer_1" data-name="Layer 1" xmlns="http://www.w3.org/2000/svg" viewBox="0 0 239.55 169.87">
  <defs>
    <style>
      .cls-1, .cls-2 {
        stroke-width: 0px;
      }

      .cls-2 {
        isolation: isolate;
        opacity: .35;
      }
    </style>
  </defs>
  <path class="cls-1" d="m222.63,8.21h-63.32V0h-79.07v8.21H16.92C7.58,8.21,0,15.79,0,25.13v127.82c0,9.34,7.58,16.92,16.92,16.92h205.71c9.34,0,16.92-7.58,16.92-16.92V25.13c0-9.34-7.58-16.92-16.92-16.92Zm-81.62,81.58v51.26h-42.47v-51.26h-29.9l51.14-59.55,51.14,59.55s-29.91,0-29.91,0Zm58.84-19.1c-11.17,0-20.23-9.06-20.23-20.23s9.06-20.23,20.23-20.23,20.23,9.06,20.23,20.23-9.06,20.23-20.23,20.23Z"/>
  <path class="cls-2" d="m199.84,30.24c-11.17,0-20.23,9.06-20.23,20.23s9.06,20.23,20.23,20.23,20.23-9.06,20.23-20.23-9.06-20.23-20.23-20.23Z"/>
</svg>