<?xml version="1.0" encoding="utf-8"?>
<!-- Generator: Adobe Illustrator 28.0.0, SVG Export Plug-In . SVG Version: 6.00 Build 0)  -->
<svg version="1.1" id="Layer_1" xmlns="http://www.w3.org/2000/svg" xmlns:xlink="http://www.w3.org/1999/xlink" x="0px" y="0px"
	 viewBox="0 0 256 256" style="enable-background:new 0 0 256 256;" xml:space="preserve">
<path d="M185.4,194.66c-0.59,5.15-1.19,10.45-2.1,18.53c-16.09-10.74-30.84-20.59-48.5-32.38c16.75-11.48,31.61-21.65,48.44-33.19
	c0.84,7.83,1.43,13.31,2.17,20.13c15.02-1.4,26.76-7.19,34.83-19.44c9.63-14.62,10.4-30.04,2.08-45.42
	c-9.48-17.53-29.29-26.06-48.11-21.38c-19.42,4.83-33.41,21.76-33.15,42.02c0.41,31.36-10.17,56.89-39.26,70.89
	c-49.33,23.74-99.06-14.21-99.73-60.98c-0.49-34.63,27.58-69.29,64.27-70.7c1.02-0.04,2.01-0.66,3.68-1.24
	c0.71-5.37,1.45-10.91,2.48-18.69c16.29,10.83,31.12,20.69,48.73,32.4c-16.95,11.37-31.92,21.4-48.38,32.44
	c-1.26-7.04-2.12-11.84-3.43-19.15c-6.47,1.73-12.84,2.38-18.18,5.07c-17.93,9.04-27.16,30.14-22.09,48.73
	c5.85,21.46,23.34,34.26,45.26,33.14c19.84-1.01,36.52-16.28,39.95-36.94c0.89-5.35,1.1-10.85,1.18-16.29
	c0.47-33.85,26.65-64.07,58.37-67.23c38.99-3.89,71.22,18.64,78.6,54.94c6.99,34.37-12.5,68.63-45.58,79.58
	C200.47,191.64,193.64,192.71,185.4,194.66z"/>
</svg>
