<?xml version="1.0" encoding="utf-8"?>
<!-- Generator: Adobe Illustrator 28.0.0, SVG Export Plug-In . SVG Version: 6.00 Build 0)  -->
<svg version="1.1" id="Layer_1" xmlns="http://www.w3.org/2000/svg" xmlns:xlink="http://www.w3.org/1999/xlink" x="0px" y="0px"
	 viewBox="0 0 256 256" style="enable-background:new 0 0 256 256;" xml:space="preserve">
<path d="M185.28,124.6c6.94,0,12.12,0,18.11,0c0.79-5.84,1.53-11.28,2.6-19.15c15.92,10.54,30.6,20.25,47.81,31.65
	c-16.81,11.32-31.46,21.18-47.69,32.11c-1-7.41-1.73-12.79-2.6-19.2c-5.5-0.24-10.68-0.54-15.86-0.68
	c-15.52-0.44-25.81-10.45-26.3-26.05c-0.29-9.21,0.09-18.44-0.18-27.65c-0.09-3.1-1.24-6.17-1.91-9.26c-1.15,0-2.31-0.01-3.46-0.01
	c-0.71,3.31-2.01,6.61-2.04,9.92c-0.19,21.27-0.03,42.54-0.13,63.81c-0.08,18.37-10.06,28.46-27.86,28.44
	c-17.71-0.01-27.56-10.13-27.66-28.7c-0.11-20.56,0.05-41.12-0.11-61.69c-0.03-3.89-1.04-7.78-1.6-11.66
	c-1.24-0.07-2.48-0.15-3.73-0.22c-0.73,3.58-2.07,7.15-2.1,10.73c-0.2,20.91-0.03,41.83-0.13,62.75
	c-0.09,18.64-9.88,28.77-27.54,28.79c-17.82,0.02-27.86-10.07-28.01-28.37c-0.11-13.42-0.02-26.84-0.02-42.4
	c-6.92,0-12.75,0.01-18.59,0c-8.13-0.01-12.92-4.02-12.84-12.2c0.08-8.28,5.17-11.87,13.21-11.76c5.67,0.08,11.35-0.18,17.01,0.05
	c15.2,0.62,25.05,10.62,25.31,25.79c0.19,11.34-0.01,22.69,0.1,34.03c0.03,3.38,0.52,6.76,0.8,10.14c1.28,0.24,2.55,0.48,3.83,0.72
	c0.93-3.27,2.62-6.54,2.66-9.82c0.25-20.91,0.08-41.83,0.15-62.75c0.06-19.56,9.55-29.66,27.72-29.67
	c18.28-0.01,27.73,9.97,27.79,29.55c0.07,20.56-0.05,41.12,0.09,61.69c0.02,3.57,0.94,7.13,1.44,10.69c1.27,0.11,2.53,0.22,3.8,0.33
	c0.77-3.52,2.18-7.03,2.22-10.56c0.21-20.91,0.04-41.83,0.13-62.75c0.09-19.18,9.85-29.03,28.44-28.95
	c17.54,0.07,27.03,10.24,27.12,29.15C185.32,102.03,185.28,112.59,185.28,124.6z"/>
</svg>
