<?xml version="1.0" encoding="UTF-8"?>
<svg id="Layer_1" data-name="Layer 1" xmlns="http://www.w3.org/2000/svg" viewBox="0 0 221.99 247.66">
  <defs>
    <style>
      .cls-1 {
        stroke-width: 0px;
      }
    </style>
  </defs>
  <path class="cls-1" d="m109.62,22.92c1-7.57,1.87-14.12,3.04-22.92,19.49,13.1,37.13,24.96,58.08,39.04-20.18,13.66-37.96,25.71-57.61,39.01-1.55-8.56-2.71-14.98-4.35-24.02-9.3,2.11-18.23,3-26.28,6.14-36.96,14.44-58.7,55-49.96,91.98,9.79,41.41,44.77,67.4,86.34,64.16,38.23-2.98,69.27-35.27,72.56-75.48,1.14-13.9,6.81-20.91,16.72-19.88,10.9,1.13,13.68,8.68,13.81,18.36.61,42.53-30.12,86.07-71.75,101.41C86.15,264.35,14.51,225.31,2.14,158.07-11.4,84.54,41.43,28.67,102.06,24.23c2.1-.15,4.18-.72,7.56-1.32Z"/>
</svg>