<?xml version="1.0" encoding="utf-8"?>
<!-- Generator: Adobe Illustrator 28.0.0, SVG Export Plug-In . SVG Version: 6.00 Build 0)  -->
<svg version="1.1" id="Layer_1" xmlns="http://www.w3.org/2000/svg" xmlns:xlink="http://www.w3.org/1999/xlink" x="0px" y="0px"
	 viewBox="0 0 256 256" style="enable-background:new 0 0 256 256;" xml:space="preserve">
<path d="M191.69,61.58c1-8.34,1.78-14.83,2.94-24.46c19.51,13.2,37,25.03,57.16,38.68c-20.13,13.75-37.44,25.56-57,38.91
	c-1.19-9.09-2.07-15.82-3.03-23.08c-19.8-2.71-36.89-4.19-50.63,15.71c-18.3,26.5-40.06,50.59-59.91,76.04
	c-6.02,7.72-12.67,11.62-22.68,11.09c-12.71-0.68-25.48-0.15-38.23-0.19c-9.29-0.03-15.85-3.6-16.16-13.85
	c-0.33-10.98,6.59-16.49,16.21-14.66c29.66,5.64,46.81-9.62,62.37-32.1c15.19-21.95,32.77-42.33,50.33-62.5
	c4.34-4.98,12.44-8.43,19.2-9.18C165.16,60.56,178.32,61.58,191.69,61.58z"/>
<path d="M111.23,157.79c6.3-7.84,11.74-14.63,19.02-23.68c15.31,22.52,31.78,40.63,61.73,28.53c0.64-5.51,1.39-12.03,2.48-21.49
	c19.27,12.99,36.81,24.81,57.41,38.69c-20.3,13.77-37.78,25.64-57.55,39.05c-0.91-9.54-1.54-16.03-2.35-24.57
	c-12.53,0-24.72-0.58-36.83,0.18c-10.38,0.64-17.84-2.59-23.79-11.21C125.6,174.94,118.81,167.31,111.23,157.79z"/>
<path d="M101.49,97.61c-6.57,8.22-12.22,15.3-19.19,24.02c-6.9-8.37-11.74-16.02-18.3-21.66c-5.24-4.5-12.31-8.06-19.07-9.31
	c-8.63-1.6-17.78-0.25-26.69-0.56c-9.1-0.31-14.2-5.14-14.12-14.47c0.09-9.48,5.58-13.85,14.59-13.94
	c15.29-0.16,30.6-0.44,45.86,0.22c4.18,0.18,9.29,2.54,12.12,5.6C85,76.52,92.37,86.38,101.49,97.61z"/>
</svg>
