<?xml version="1.0" encoding="utf-8"?>
<!-- Generator: Adobe Illustrator 28.0.0, SVG Export Plug-In . SVG Version: 6.00 Build 0)  -->
<svg version="1.1" id="Layer_1" xmlns="http://www.w3.org/2000/svg" xmlns:xlink="http://www.w3.org/1999/xlink" x="0px" y="0px"
	 viewBox="0 0 256 256" style="enable-background:new 0 0 256 256;" xml:space="preserve">
<path d="M36.6,79.98c12,17.86,22.39,33.33,33.75,50.25c-7.32,1.17-12.64,2.02-20.57,3.29c1.55,8.18,2.08,16.21,4.62,23.55
	c16.09,46.43,69.64,66.43,112.64,42.39c1.95-1.09,3.73-2.56,5.77-3.4c6.98-2.88,13.88-3.97,18.82,3.52
	c5.25,7.96,2.4,15.56-4.84,19.04c-13.95,6.7-28.38,14.54-43.34,16.62c-57.31,7.95-105.93-27.14-118.26-83.37
	c-1.26-5.74-1.28-11.76-1.99-18.84c-5.78-0.64-11.51-1.28-20.49-2.28C14.05,113.77,24.43,98.22,36.6,79.98z"/>
<path d="M234.41,129.95c5.81,0.99,11.5,1.95,18.87,3.2c-10.97,16.38-21.18,31.62-33.33,49.76c-11.78-17.62-22.08-33.04-33.23-49.72
	c6.94-1.23,11.93-2.11,18.75-3.31c0-3.89,0.59-7.83-0.09-11.53c-9.76-53.1-66.57-80.51-114.36-55.28c-2.3,1.22-4.51,2.62-6.82,3.81
	C76.74,70.74,69.7,71,64.75,63.09c-5.1-8.14-1.48-15.36,5.68-18.82c13.27-6.41,26.94-13.7,41.19-16.08
	c61.11-10.21,115.04,32.69,121.12,94.72C232.96,125.05,233.73,127.14,234.41,129.95z"/>
</svg>
