<?xml version="1.0" encoding="UTF-8"?>
<svg id="Layer_1" data-name="Layer 1" xmlns="http://www.w3.org/2000/svg" viewBox="0 0 249.96 175.83">
  <defs>
    <style>
      .cls-1 {
        stroke-width: 0px;
      }
    </style>
  </defs>
  <path class="cls-1" d="m221.98,0c-15.45,0-27.98,12.53-27.98,27.98,0,7.73,3.13,14.73,8.2,19.79l-34.84,55.72c-3.2-1.28-6.69-1.99-10.35-1.99-5.4,0-10.44,1.53-14.71,4.18l-25.85-25.85c2.99-4.45,4.74-9.81,4.74-15.58,0-15.45-12.53-27.98-27.98-27.98s-27.98,12.53-27.98,27.98c0,6.79,2.42,13.02,6.45,17.87l-31.66,40.46c-3.65-1.74-7.73-2.72-12.04-2.72-15.45,0-27.98,12.53-27.98,27.98s12.53,27.98,27.98,27.98,27.98-12.53,27.98-27.98c0-6.63-2.31-12.72-6.16-17.51l31.8-40.63c3.54,1.62,7.47,2.53,11.62,2.53,5.16,0,9.99-1.4,14.15-3.84l26.06,26.06c-2.77,4.34-4.38,9.5-4.38,15.03,0,15.45,12.53,27.98,27.98,27.98s27.98-12.53,27.98-27.98c0-7.28-2.79-13.92-7.35-18.89l35.13-56.19c2.88,1,5.98,1.56,9.21,1.56,15.45,0,27.98-12.53,27.98-27.98S237.44,0,221.98,0Z"/>
</svg>