<?xml version="1.0" encoding="UTF-8"?>
<svg id="Layer_1" data-name="Layer 1" xmlns="http://www.w3.org/2000/svg" viewBox="0 0 172.19 252.56">
  <defs>
    <style>
      .cls-1 {
        stroke-width: 0px;
      }
    </style>
  </defs>
  <path class="cls-1" d="m119.49,144.57H54.35c-1.04-6.11-2.01-11.83-3.66-21.56-7.29,6.57-12.32,11.83-18.1,16.1-5.73,4.24-11.83,8.78-18.48,10.64-3.76,1.05-10.53-1.87-12.99-5.19-1.97-2.67-1.19-10.25,1.29-12.87,16.59-17.51,33.46-34.82,51.44-50.86,4.25-3.79,13.06-3.45,19.75-3.36,55,.7,36.72-7.22,76.17,30.98,6.51,6.3,13.89,12.12,18.77,19.55,3.18,4.85,2.57,12.2,3.66,18.42-6.83.51-14.95,3.57-20.19.92-8.15-4.11-14.26-12.2-21.44-18.38-1.76-1.51-4.3-2.13-7.71-3.74-1.19,6.83-2.19,12.56-3.37,19.33Z"/>
  <path class="cls-1" d="m122.09,36.08c.09,21.9-13.6,36.61-34.29,36.85-21.93.25-35.88-13.85-35.93-36.31C51.82,14.26,64.94.18,85.99,0c22.31-.19,36.01,13.5,36.1,36.08Z"/>
  <path class="cls-1" d="m46.76,155.59c12.86,13.64,21.11,22.38,30.45,32.29-5.11,6.27-10.37,12.72-16.77,20.58,5.44,6.21,10.69,12.24,15.97,18.24,6.43,7.3,9.51,16.03,1.41,22.82-7.47,6.26-15.04,2.02-21.26-4.97-9.19-10.31-19.23-19.86-28.48-30.12-10.69-11.86-10.19-22.66.09-34.55,6.2-7.17,11.57-15.05,18.59-24.28Z"/>
  <path class="cls-1" d="m113.61,208.18c-6.28-7.17-11.57-13.21-17.86-20.4,10.06-9.18,19.47-17.77,31.9-29.11,6.59,7.79,14.11,16.1,20.96,24.93,7.59,9.78,6.77,20.09-2.61,30.53-10.1,11.25-20.17,22.71-31.61,32.5-4.13,3.53-12.19,2.45-18.45,3.47-.4-6.69-3.16-14.51-.64-19.81,3.73-7.84,11.21-13.89,18.31-22.1Z"/>
  <path class="cls-1" d="m86.36,181.47c-8.95-9.33-16.54-17.23-26.29-27.39h50.93c-7.72,8.58-15.53,17.26-24.64,27.39Z"/>
</svg>