<?xml version="1.0" encoding="UTF-8"?>
<svg id="Layer_1" data-name="Layer 1" xmlns="http://www.w3.org/2000/svg" viewBox="0 0 252.69 233.83">
  <defs>
    <style>
      .cls-1 {
        stroke-width: 0px;
      }
    </style>
  </defs>
  <path class="cls-1" d="m.89,179.65V63.97h59.14C68.54,17.11,98.76-2.1,131.72.18c29.47,2.04,47.45,19.23,60.56,63.52h59.2v115.95H.89ZM165.68,62.52c-.22-28.37-26.49-41.64-44.55-39.09-20.32,2.87-35.19,19.56-32.91,39.09h77.46Z"/>
  <path class="cls-1" d="m.17,191.96h252.15c0,9.13.99,17.62-.25,25.78-1.5,9.82-7.97,16.01-18.51,16.02-71.38.08-142.75.11-214.13-.02-11.83-.02-18.31-6.73-19.16-18.33-.54-7.41-.1-14.9-.1-23.46Z"/>
</svg>