<?xml version="1.0" encoding="UTF-8"?>
<svg id="Layer_1" data-name="Layer 1" xmlns="http://www.w3.org/2000/svg" viewBox="0 0 250.81 191.53">
  <defs>
    <style>
      .cls-1 {
        stroke-width: 0px;
      }
    </style>
  </defs>
  <path class="cls-1" d="m169.76,132.97h36.1c.66-10.09,1.32-20.1,2.05-31.33h33.03c0,25.44.62,50.27-.34,75.03-.34,8.7-6.98,14.77-16.63,14.79-65.78.09-131.56.1-197.33,0-9.69-.01-16.14-6.2-16.46-14.93-.91-24.8-.32-49.65-.32-75.3h33.09c.55,10.61,1.07,20.67,1.64,31.63h36.38c.56-10.92,1.08-20.99,1.62-31.55h85.51c.55,10.55,1.06,20.25,1.66,31.67Z"/>
  <path class="cls-1" d="m208.37,94.78c-.96-5.8-1.77-10.78-2.76-16.76h-34.89c-1.13,5.61-2.19,10.91-3.46,17.24h-83.89c-1-5.83-1.85-10.8-2.92-17.03h-35.25c-.98,5.76-1.82,10.72-2.87,16.9H.3c0-14.99-.82-29.13.27-43.12.81-10.41,9.15-13.66,18.7-13.68,14.95-.03,29.91,0,44.15,0Q77.05,0,117.63,0c11.62,0,23.24-.03,34.85,0,19.29.06,28.19,7.68,31.28,26.69.48,2.93,1.04,5.85,2.06,11.57,13.04,0,26.13-.03,39.21,0,21.93.06,25.73,3.8,25.76,25.29.02,9.86,0,19.72,0,31.21h-42.43Zm-45.55-57.29c1.44-12.42-2.72-18.05-13.81-18.01-15.84.06-31.69-.22-47.52.1-11.92.24-15,4.92-12.11,17.91h73.45Z"/>
  <path class="cls-1" d="m54.08,87.1h17.39v36.33h-17.39v-36.33Z"/>
  <path class="cls-1" d="m179.29,123.48v-36.44c5.45-.29,10.69-.56,17.19-.91v37.35h-17.19Z"/>
</svg>