<?xml version="1.0" encoding="UTF-8"?>
<svg id="Layer_1" data-name="Layer 1" xmlns="http://www.w3.org/2000/svg" viewBox="0 0 249.68 211.2">
  <defs>
    <style>
      .cls-1 {
        stroke-width: 0px;
      }
    </style>
  </defs>
  <path class="cls-1" d="m200.9,211.2H50.68c-3.24-9.05-4.22-153.28-1.11-171.31,4.95-.79,10.24-1.64,16.51-2.65.34-3.9.71-7.61.97-11.32C68.14,10.74,78.4.43,93.56.2c20.13-.31,40.27-.21,60.4-.06,17.84.14,27.53,9.61,28.63,27.42.18,2.94.61,5.86,1.03,9.74,5.56.76,10.88,1.5,17.27,2.37v171.53ZM88.29,37.65h73.15c3.24-7.89.43-12.94-6.08-18.01-18.31,0-37.44-.35-56.54.15-9.66.25-12.12,4.93-10.53,17.86Z"/>
  <path class="cls-1" d="m212.52,40.04h33.88c4.11,11.95,4.45,156.38.48,170.12h-33.64c-2.95-8.27-3.88-152.97-.72-170.12Z"/>
  <path class="cls-1" d="m1.9,40h35.78v170.54H2.14c-.79-5.8-2.02-10.71-2.03-15.63C-.04,148.24-.03,101.57.09,54.9c.01-4.54,1.07-9.08,1.81-14.91Z"/>
</svg>