<?xml version="1.0" encoding="UTF-8"?>
<svg id="Layer_1" data-name="Layer 1" xmlns="http://www.w3.org/2000/svg" viewBox="0 0 233.82 233.82">
  <defs>
    <style>
      .cls-1, .cls-2 {
        stroke-width: 0px;
      }

      .cls-2 {
        isolation: isolate;
        opacity: .18;
      }
    </style>
  </defs>
  <path class="cls-1" d="m116.91,0C52.34,0,0,52.34,0,116.91s52.34,116.91,116.91,116.91,116.91-52.34,116.91-116.91S181.48,0,116.91,0Zm19.81,147.94c-28.02,0-50.73-22.71-50.73-50.73s22.71-50.73,50.73-50.73,50.73,22.71,50.73,50.73-22.71,50.73-50.73,50.73Z"/>
  <circle class="cls-2" cx="136.72" cy="97.21" r="50.73"/>
  <path class="cls-1" d="m152.97,88.04c2.81-5.42,3.34-11.7.9-17.38-4.61-10.73-18.05-15.25-30.02-10.11s-17.94,18.01-13.33,28.73c2.44,5.68,7.36,9.62,13.22,11.31-4.21,6.52-5.31,14.51-2.24,21.65,5.18,12.05,20.28,17.14,33.73,11.36,13.45-5.78,20.16-20.24,14.98-32.29-3.07-7.14-9.62-11.83-17.25-13.27h.01Zm-24.78-17.96c6.05-2.6,12.83-.31,15.16,5.1s-.69,11.91-6.73,14.51-12.83.31-15.16-5.1.69-11.91,6.73-14.51h0Zm22.4,52.72c-6.79,2.92-14.42.35-17.04-5.74-2.62-6.09.77-13.39,7.56-16.31s14.42-.35,17.04,5.74-.77,13.39-7.56,16.31Z"/>
</svg>