<?xml version="1.0" encoding="UTF-8"?>
<svg id="Layer_1" data-name="Layer 1" xmlns="http://www.w3.org/2000/svg" viewBox="0 0 254.76 240.27">
  <defs>
    <style>
      .cls-1 {
        stroke-width: 0px;
      }
    </style>
  </defs>
  <path class="cls-1" d="m10.68,187.5c-3.71-5.32-6.24-8.95-10.68-15.32,15.15-3.13,28.56-5.89,41.97-8.66l.47-3.47c-6.26-3.55-12.53-7.1-18.79-10.66-.11-1.17-.22-2.34-.34-3.52,16.52-4.54,32.96-9.4,49.57-13.57,54.8-13.74,84.57-51.54,99.02-103.55,3.1-11.15,4.56-23.44,17.09-26.81,13.82-3.72,28.32-2.93,38.61,9.28,9.59,11.39,18.14,23.66,27.15,35.54-.95,1.5-1.89,2.99-2.84,4.49-8.77,0-17.54-.14-26.31.03-14.26.28-19.74,6.14-18.01,20.21.7,5.69,2.48,11.51,5.02,16.65,18.66,37.84,5.83,73.93-32.89,91.69-19.89,9.12-23.64,16.12-20.76,40.47,13.92,2.6,30.57,1.66,39.18,19.95h-67.18c2.52-4.75,4.23-8.56,6.45-12.03,11.59-18.13,4.98-36.44-15.01-42.8-25.83-8.22-51.73-3.57-77.64-1.3-11.16.98-22.3,2.2-34.07,3.37Z"/>
</svg>