<?xml version="1.0" encoding="UTF-8"?>
<svg id="Layer_1" data-name="Layer 1" xmlns="http://www.w3.org/2000/svg" viewBox="0 0 255.2 112.87">
  <defs>
    <style>
      .cls-1 {
        stroke-width: 0px;
      }
    </style>
  </defs>
  <path class="cls-1" d="m60.87,34.43h132.11c9.24-29.72,24-40.14,44.04-31.48,19.63,8.48,22.21,25.68,7.73,54.28,10.39,12.71,14.85,26.73,4.85,42.11-7.96,12.24-20.34,14.6-33.04,11.52-15.65-3.8-21.57-16.36-22.41-32.29H62.56c-11.47,30.49-25.33,40.08-44.91,31.05-19.7-9.09-22.28-27.02-7.25-53.53C-.05,42.1-5.16,27.1,7.33,11.2,15.68.57,27.47-1.16,39.19,2.07c14.9,4.1,21.23,15.91,21.68,32.36Z"/>
</svg>