<?xml version="1.0" encoding="UTF-8"?>
<svg id="Layer_1" data-name="Layer 1" xmlns="http://www.w3.org/2000/svg" viewBox="0 0 204.87 246.28">
  <defs>
    <style>
      .cls-1, .cls-2 {
        stroke-width: 0px;
      }

      .cls-2 {
        opacity: 0;
      }
    </style>
  </defs>
  <path class="cls-1" d="m122.66,246.28c-7.49-10.07-13.13-17.65-20.16-27.11-7.12,9.37-13.02,17.12-20.35,26.76-7.02-8.96-13.19-16.84-20.65-26.37-7.29,9.42-13.26,17.13-20.5,26.49-6.89-9.15-12.76-16.96-20-26.56-6.67,8.37-13.44,15.52-21,25.01.34-7.01.09-11.54.09-15.89-.06-43.72-.16-87.44,0-131.16C.27,45.75,45.49,2.37,97.31.11c51.08-2.23,92.37,31.26,104.71,75.02,1.48,5.25,2.64,10.81,2.67,16.23.21,47.4.15,94.8.11,142.2,0,2.17.12,6.78.04,12.72-7.26-8.97-13.86-18.28-20.54-26.53-7.02,8.88-13.3,16.82-20.79,26.3-6.87-9.3-12.69-17.18-19.94-26.99-7.4,9.63-13.54,17.63-20.91,27.22Zm-42.07-164.25c-.2-15.84-10.75-28.49-23.93-28.7-13.57-.22-24.67,13.22-24.45,29.58.21,15.61,11.09,28.7,23.97,28.84,13.51.15,24.62-13.37,24.41-29.71Zm91.99.54c.03-15.88-10.2-28.7-23.32-29.21-13.61-.53-24.88,12.59-24.92,29.03-.04,16.32,11.28,29.75,24.74,29.33,13.03-.4,23.47-13.35,23.5-29.16Zm-70.61,62.92c-10.02.24-18.31,8.63-18.4,18.62-.09,10.41,8.98,19.29,19.43,19.01,9.89-.26,18.44-8.84,18.54-18.62.11-10.31-9.1-19.25-19.57-19Z"/>
  <path class="cls-2" d="m80.6,82.03c.21,16.34-10.9,29.86-24.41,29.71-12.88-.14-23.76-13.23-23.97-28.84-.22-16.36,10.89-29.79,24.45-29.58,13.18.21,23.73,12.87,23.93,28.7Z"/>
  <path class="cls-2" d="m172.59,82.57c-.03,15.8-10.47,28.75-23.5,29.16-13.46.42-24.79-13.01-24.74-29.33.05-16.44,11.31-29.56,24.92-29.03,13.12.51,23.36,13.32,23.32,29.21Z"/>
  <path class="cls-2" d="m101.97,145.49c10.47-.25,19.69,8.7,19.57,19-.11,9.78-8.65,18.36-18.54,18.62-10.45.28-19.52-8.6-19.43-19.01.09-9.99,8.38-18.38,18.4-18.62Z"/>
</svg>