<?xml version="1.0" encoding="UTF-8"?>
<svg id="Layer_1" data-name="Layer 1" xmlns="http://www.w3.org/2000/svg" viewBox="0 0 155.94 221.39">
  <defs>
    <style>
      .cls-1 {
        opacity: .44;
      }

      .cls-1, .cls-2 {
        stroke-width: 0px;
      }
    </style>
  </defs>
  <path class="cls-1" d="m8.05,27.08c0-1.22,32.62-21.92,32.62-21.92l108.88,31.54.42,157.1s-5.3.53-16.99,7.49-20.14,18.09-20.14,18.09L3.59,186.23,8.05,27.08Z"/>
  <path class="cls-2" d="m32.25,32.64c28.21,8.5,56.42,17.01,84.46,25.46l2.32,158.42c0,2.32-4.55,5.42-6.78,4.78-37.59-10.86-73.85-21.35-110.98-32.08-.39-4.42-1.07-8.52-1.08-12.63C.11,129.4.27,82.19,0,34.99c-.04-7.62,2.59-12.42,8.13-17.8C31.61-1.45,40.85-1.65,49.43,1.58c30.12,8.73,70.39,19.97,95.36,25.26,3.63,1.05,7.14,2.53,11.15,3.97v161.46c0,2.85-6.09,5.59-6.1.8-.96-40.03-2.1-83.67-2.1-123.91,0-9.62,0-19.24,0-30.09-16.42-4.85-32.16-9.58-47.95-14.14-16.29-4.7-39.06-10.58-55.16-15.87-5.52-1.96-24.33,13.56-30.49,18.73,7.82,2.17,13.08,3.63,18.34,5.09l-.23-.26Z"/>
</svg>