<?xml version="1.0" encoding="UTF-8"?>
<svg id="Layer_1" data-name="Layer 1" xmlns="http://www.w3.org/2000/svg" viewBox="0 0 249.45 126.21">
  <defs>
    <style>
      .cls-1 {
        stroke-width: 0px;
      }
    </style>
  </defs>
  <rect class="cls-1" x="101.73" y="40.25" width="48.97" height="48.97" rx="5.42" ry="5.42"/>
  <path class="cls-1" d="m86.08,38.33L14.82,0s-2.73,18.71-5.89,27.32S0,43.92,0,43.92v9.25s4.1,4.94,4.1,10.93-4.1,9.35-4.1,9.35v8.2s4.73,5.04,8.72,15.87,6.1,28.69,6.1,28.69l71.04-35.12c2.32-1.15,3.78-3.51,3.78-6.09v-40.71c0-2.49-1.37-4.78-3.56-5.96h0Z"/>
  <path class="cls-1" d="m163.37,38.33L234.63,0s2.73,18.71,5.89,27.32c3.15,8.62,8.93,16.6,8.93,16.6v9.25s-4.1,4.94-4.1,10.93,4.1,9.35,4.1,9.35v8.2s-4.73,5.04-8.72,15.87c-3.99,10.82-6.1,28.69-6.1,28.69l-71.04-35.12c-2.32-1.15-3.78-3.51-3.78-6.09v-40.71c0-2.49,1.37-4.78,3.56-5.96Z"/>
</svg>