<?xml version="1.0" encoding="UTF-8"?>
<svg id="Layer_1" data-name="Layer 1" xmlns="http://www.w3.org/2000/svg" viewBox="0 0 184.54 247.03">
  <defs>
    <style>
      .cls-1 {
        stroke-width: 0px;
      }
    </style>
  </defs>
  <path class="cls-1" d="m65.21,130.31c-10.39-.64-14.73,3.3-15.38,12.25-.33,4.48-2.05,8.86-3.14,13.29-1.37-.19-2.74-.39-4.11-.58-.78-4.13-1.57-8.26-3.04-16.03-3.02,10.3-5.15,17.54-7.27,24.78-1.13.04-2.26.07-3.39.11-1.19-4.16.25-7.95-1.36-13.56-1.2-.71-6.34-2.57-9.49-4.43.37-2.54.78-5.38,1.47-10.15-2.79-1.68-6.61-3.98-10.42-6.27.9-1.62,1.8-3.25,2.7-4.87,6.59,2.22,13.18,4.44,21.27,7.17-3.2-4.46-5.85-8.16-9.54-13.31,12.73-4.02,23.16,16.21,34.76-1.07-6.05-11.9-12.68-24.93-19.3-37.96-6.85-13.47-14.74-26.52-20.22-40.53C13.77,28.16,6.26,15.35,0,1.89c36.52-10.37,95.64,22.96,137.67,77.03,5.82-2.43,14.56-8.13,21.51-11.03-2.67-7.44-6.89-9.77-9.93-18.25,13.22,4.22,23.33,7.45,35.3,11.28-3.6,11.59-6.83,21.99-10.94,35.2-5.31-6.92-6.12-12.31-10.51-18.03-6.02,3.24-14.41,7.22-20.98,10.75,1.61,4.53,2.81,7.99,4.05,11.43,16.99,47.23,9.81,92.27-12.8,135.67-2.1,4.03-6.63,8.66-9.59,11.1-20.16-39.92-39.85-79.68-58.55-116.72Zm54.75,88.73c23.22-25.65,24.32-102.86,3.35-122.63-16.71,8.77-33.83,17.75-52.05,27.31,16.68,32.66,32.54,63.71,48.69,95.33ZM18.25,20.07c16.25,31.78,32.06,62.73,48.9,95.67,18.81-9.71,36.26-18.71,53.51-27.61C107.87,52.21,50.08,18.56,18.25,20.07Z"/>
</svg>