<?xml version="1.0" encoding="UTF-8"?>
<svg id="Layer_1" data-name="Layer 1" xmlns="http://www.w3.org/2000/svg" viewBox="0 0 251.37 173.1">
  <defs>
    <style>
      .cls-1 {
        stroke-width: 0px;
      }
    </style>
  </defs>
  <path class="cls-1" d="m250.99,151.53c-3.66.77-6.36,1.33-9.03,1.89-4.55,6.9-.19,20.55-14.33,19.61-11.42-.76-10.15-10.78-11.72-19.52h-74.5c-3.77,6.54.69,19.75-13.2,19.58-12.65-.15-9.35-11.94-12.87-19.17-2.74-.98-5.6-2.01-8.96-3.21-.39-2.4-1.05-4.79-1.13-7.2-1.23-38.17-.43-76.22,6.61-113.94,1.77-9.5,6.38-16.18,15.36-19.63,34.29-13.19,68.61-13.38,102.85.18,7.44,2.95,12.53,8.33,14.14,16.33,8.27,41.06,7.45,82.59,6.8,125.08Zm-20.22-116.42c-3.22-1.41-4.07-2.11-4.93-2.12-30.79-.21-61.58-.43-92.37-.33-2.4,0-6.55,2-6.9,3.68-3.06,14.74-5.44,29.63-8.29,46h119.5c-2.54-17.13-4.87-32.83-7.01-47.23Zm-83.06-15.37c20.66,1.41,41.2,1.54,61.69-.23-8.23-6.01-55.92-5.63-61.69.23Zm80.12,111.48c4.42-5.85,8.79-9.11,8.53-11.96-.28-3.07-4.73-7.8-7.65-8.02-2.84-.22-8.34,4.19-8.53,6.85-.24,3.31,3.78,6.93,7.66,13.13Zm-99.64-.31c4.12-5.36,8.75-8.82,8.31-11.45-.54-3.26-5.02-7.69-8.27-8.12-2.56-.34-8.19,4.59-8.2,7.19,0,3.38,4.2,6.78,8.15,12.37Z"/>
  <path class="cls-1" d="m38.22,170.96c-1.35-3.83-2.75-7.81-4.45-12.65-.28-.8-1.01-1.36-1.86-1.42-7.08-.52-15.17-1.43-23.26-1.36C2.48,155.58-.05,153.33,0,147.43c.07-7.61.02-15.22.02-23.63,0-.96.65-1.81,1.57-2.07,2.32-.64,4.4-1.33,6.53-1.51,8.97-.77,15.58-7.16,16.15-16.08.2-3.12.14-6.25.17-9.38.16-17.56.16-18.07,13.1-23.01.74-.28,1.27-.95,1.36-1.74.85-7.09.91-13.1,2.98-18.33.66-1.68,8.35-2.51,11.44-.98,7.79,3.86,6.48,9.74,2.89,16.47-.94,1.75.82,3.71,2.68,2.99,11.75-4.56,16.03-18.75,29.35-20.83,1.56-.24,2.85,1.19,2.42,2.7-.94,3.28-1.54,5.9-2.94,7.97-2.43,3.57-5.48,7.03-8.99,9.52-14.25,10.12-18.29,23.57-16.86,40.59,1.39,16.45.4,33.11-.05,49.67-.11,3.84-1.51,7.64-2.38,10.52-.27.9-1.1,1.5-2.04,1.5h-15.05c-.37,0-.73.09-1.05.27,0,0-.02.01-.03.02-1.16.65-2.62.1-3.06-1.15Z"/>
</svg>