<?xml version="1.0" encoding="UTF-8"?>
<svg id="Layer_1" data-name="Layer 1" xmlns="http://www.w3.org/2000/svg" viewBox="0 0 241.69 219.53">
  <defs>
    <style>
      .cls-1, .cls-2 {
        stroke-width: 0px;
      }

      .cls-2 {
        isolation: isolate;
        opacity: .18;
      }
    </style>
  </defs>
  <circle class="cls-2" cx="79.75" cy="179.2" r="22.5"/>
  <path class="cls-2" d="m53.48,58.71c-12.01-3.3-25.44-1.18-30.62,6.12s-4.71,17.9,3.77,31.33c8.48,13.43,24.73,35.34,37.22,42.4,12.48,7.07,19.08,1.65,33.21-12.25,14.13-13.9,12.96-38.4,12.96-38.4,0,0-44.52-25.91-56.54-29.21h0Z"/>
  <path class="cls-1" d="m225.29,44.97c-15.39-10.05-32.31-4.55-48.35,1.26-16.04,5.81-43.05,25.76-43.05,25.76,0,0-.79-.94-1.41-5.18-.63-4.24,3.77-33.92,15.23-43.97,11.46-10.05,18.22-10.36,20.42-11.31s6.75-3.77,4.24-8.95-16.49-2.04-26.07,4.87c-9.58,6.91-13.82,15.08-17.75,22.46s-7.7,22.93-7.7,22.93v.24s-3.77-15.55-7.7-22.93-8.17-15.55-17.75-22.46c-9.58-6.91-23.56-10.05-26.07-4.87s2.04,8.01,4.24,8.95,8.95,1.26,20.42,11.31c11.46,10.05,15.86,39.73,15.23,43.97s-1.41,5.18-1.41,5.18c0,0-27.01-19.94-43.05-25.76s-32.96-11.31-48.35-1.26c-15.39,10.05-24.66,32.67-6.12,68.16,18.53,35.49,36.43,45.7,36.43,45.7,0,0-6.75,6.44-6.75,24.5s14.29,35.96,41.62,35.96,39.26-33.02,39.26-33.02v-.24s11.94,33.02,39.26,33.02,41.62-17.9,41.62-35.96-6.75-24.5-6.75-24.5c0,0,17.9-10.21,36.43-45.7,18.53-35.49,9.27-58.11-6.12-68.16h0ZM79.75,201.7c-12.42,0-22.5-10.07-22.5-22.5s10.07-22.5,22.5-22.5,22.5,10.07,22.5,22.5-10.07,22.5-22.5,22.5Zm17.31-75.38c-14.13,13.9-20.73,19.32-33.21,12.25-12.49-7.07-28.74-28.97-37.22-42.4s-8.95-24.03-3.77-31.33,18.61-9.42,30.62-6.12,56.54,29.21,56.54,29.21c0,0,1.18,24.5-12.96,38.4h0Zm64.9,75.15c-12.42,0-22.5-10.07-22.5-22.5s10.07-22.5,22.5-22.5,22.5,10.07,22.5,22.5-10.07,22.5-22.5,22.5Zm53.12-105.53c-8.48,13.43-24.73,35.34-37.22,42.4-12.48,7.07-19.08,1.65-33.21-12.25-14.13-13.9-12.96-38.4-12.96-38.4,0,0,44.52-25.91,56.54-29.21,12.01-3.3,25.44-1.18,30.62,6.12s4.71,17.9-3.77,31.33h0Z"/>
  <circle class="cls-2" cx="161.96" cy="178.97" r="22.5"/>
  <path class="cls-2" d="m188.22,58.48c12.01-3.3,25.44-1.18,30.62,6.12,5.18,7.3,4.71,17.9-3.77,31.33-8.48,13.43-24.73,35.34-37.22,42.4-12.48,7.07-19.08,1.65-33.21-12.25-14.13-13.9-12.96-38.4-12.96-38.4,0,0,44.52-25.91,56.54-29.21h0Z"/>
</svg>