<?xml version="1.0" encoding="UTF-8"?>
<svg id="Layer_1" data-name="Layer 1" xmlns="http://www.w3.org/2000/svg" viewBox="0 0 220.94 240.85">
  <defs>
    <style>
      .cls-1 {
        stroke-width: 0px;
      }
    </style>
  </defs>
  <path class="cls-1" d="m0,27.79h44.5c8.92-9.42-1.2-24.03,16.51-27.79,1.52,8.54,2.95,16.6,4.58,25.8h89.08c1.62-8.77,3.11-16.9,4.71-25.55,17.58,3.08,7.89,17.57,14.84,25.94,14.4.63,30.16,1.32,46.72,2.05v212.61H0V27.79Zm117.72,93.76h32.68v-33.45h-32.68v33.45Zm-15.41.26v-33.55h-32.21v33.55h32.21Zm96.75-.22v-33.58h-31.96v33.58h31.96ZM53.22,88.35h-31.82v33.25h31.82v-33.25Zm114.14,49.04v32.92h31.74v-32.92h-31.74Zm-16.6.09h-32.57v32.4h32.57v-32.4Zm-48.42,32.72v-32.6h-32.46v32.6h32.46Zm-81.36-33.16v33.09h31.87v-33.09h-31.87Zm96.63,82.44h32.67v-32.26h-32.67v32.26Zm49.95-32.82v33.1h31.45v-33.1h-31.45Zm-97.47.17v32.63h32.23v-32.63h-32.23Zm-48.93,0v32.58h31.91v-32.58h-31.91Z"/>
</svg>