<?xml version="1.0" encoding="UTF-8"?>
<svg id="Layer_1" data-name="Layer 1" xmlns="http://www.w3.org/2000/svg" viewBox="0 0 211 245.15">
  <defs>
    <style>
      .cls-1 {
        isolation: isolate;
        opacity: .29;
      }

      .cls-1, .cls-2 {
        stroke-width: 0px;
      }
    </style>
  </defs>
  <path class="cls-2" d="m196.11,102.76h-55.78v-7.23h-69.65v7.23H14.9c-8.23,0-14.9,6.67-14.9,14.9v112.59c0,8.23,6.67,14.9,14.9,14.9h181.2c8.23,0,14.9-6.67,14.9-14.9v-112.59c0-8.23-6.67-14.9-14.9-14.9h.01Zm-90.6,111.7c-24.37,0-44.12-19.75-44.12-44.12s19.75-44.12,44.12-44.12,44.12,19.75,44.12,44.12-19.75,44.12-44.12,44.12Zm70.53-56.66c-9.84,0-17.82-7.98-17.82-17.82s7.98-17.82,17.82-17.82,17.82,7.98,17.82,17.82-7.98,17.82-17.82,17.82Z"/>
  <path class="cls-1" d="m176.04,122.17c-9.84,0-17.82,7.98-17.82,17.82s7.98,17.82,17.82,17.82,17.82-7.98,17.82-17.82-7.98-17.82-17.82-17.82Z"/>
  <circle class="cls-1" cx="105.51" cy="170.34" r="44.12"/>
  <polygon class="cls-2" points="106.54 0 68.99 43.73 90.95 43.73 90.95 81.37 106.54 81.37 122.13 81.37 122.13 43.73 144.09 43.73 106.54 0"/>
  <circle class="cls-2" cx="106" cy="170.34" r="23.71"/>
</svg>