<?xml version="1.0" encoding="utf-8"?>
<!-- Generator: Adobe Illustrator 28.0.0, SVG Export Plug-In . SVG Version: 6.00 Build 0)  -->
<svg version="1.1" id="Layer_1" xmlns="http://www.w3.org/2000/svg" xmlns:xlink="http://www.w3.org/1999/xlink" x="0px" y="0px"
	 viewBox="0 0 216.52 252.32" style="enable-background:new 0 0 216.52 252.32;" xml:space="preserve">
<style type="text/css">
	.st0{opacity:0.39;}
	.st1{fill:#FFFFFF;}
	.st2{opacity:0.56;}
</style>
<rect x="6.25" y="34.77" transform="matrix(0.9865 -0.1637 0.1637 0.9865 -5.9529 15.1947)" class="st0" width="165.93" height="17.89"/>
<path class="st1" d="M63.82,166.77c0.32,1.94,2.16,3.26,4.1,2.94l86.24-14.31c1.94-0.32,3.26-2.16,2.94-4.1l-4.39-26.46
	c-0.32-1.94-2.16-3.26-4.1-2.94L62.37,136.2c-0.78,0.13-1.46,0.51-1.97,1.04c-0.37,0.85-0.71,1.73-0.99,2.67
	c0.01,0.13,0,0.26,0.02,0.39L63.82,166.77z"/>
<path d="M73.38,240.61c14.07-10.44,46.82-16.01,63.07-17.54c18.26-1.72,36.82-1.17,55.22-0.55c10,0.34,19.07,4.24,26.22,17.35
	c-46.2,0.94-82.02,0.74-129.89,0.94L73.38,240.61z"/>
<path d="M34.92,162.52l-19.93,3.31c-2.4,0.4-4.66-1.22-5.06-3.62l-1.32-7.93c-0.4-2.4,1.22-4.66,3.62-5.06l19.93-3.31
	c2.4-0.4,4.66,1.22,5.06,3.62l1.32,7.93C38.93,159.86,37.31,162.13,34.92,162.52z"/>
<path d="M198.86,130.08l-19.93,3.31c-2.4,0.4-4.66-1.22-5.06-3.62l-1.32-7.93c-0.4-2.4,1.22-4.66,3.62-5.06l19.93-3.31
	c2.4-0.4,4.66,1.22,5.06,3.62l1.32,7.93C202.88,127.41,201.26,129.68,198.86,130.08z"/>
<path d="M216.03,160.27l-1.97-11.24c-0.41-2.34-2.65-3.91-4.99-3.5l-53.73,9.43c-0.35,0.2-0.74,0.35-1.17,0.43l-23.05,3.83
	L13.43,179.87c-2.34,0.41-3.91,2.65-3.5,4.99l1.97,11.24c0.41,2.35,2.65,3.91,4.99,3.5l195.64-34.33
	C214.88,164.85,216.44,162.62,216.03,160.27z"/>
<path d="M155.34,154.96l-24.22,4.25l23.05-3.83C154.59,155.32,154.98,155.17,155.34,154.96z"/>
<path d="M169.04,152.3l-5.95-35.83c-0.75-4.51-5.01-7.56-9.52-6.81l-99.86,16.57c-4.51,0.75-7.56,5.01-6.81,9.52l5.95,35.83
	c0.75,4.51,5.01,7.56,9.52,6.81l99.86-16.57C166.74,161.07,169.79,156.81,169.04,152.3z M154.17,155.39L67.93,169.7
	c-1.94,0.32-3.78-0.99-4.1-2.94l-4.39-26.46c-0.32-1.94,0.99-3.78,2.94-4.1l86.24-14.31c1.94-0.32,3.78,0.99,4.1,2.94l4.39,26.46
	C157.43,153.23,156.11,155.07,154.17,155.39z"/>
<path class="st2" d="M155.76,124.16c-0.35-1.97-2.27-3.29-4.29-2.95l-89.59,15.2c-2.02,0.34-3.37,2.22-3.02,4.19l4.77,26.84
	c0.35,1.97,2.27,3.29,4.29,2.95l89.59-15.2c2.02-0.34,3.37-2.22,3.02-4.19L155.76,124.16z"/>
<path d="M186.44,94.3l-11.57-69.7c-0.69-4.15-4.61-6.95-8.75-6.26L11.04,44.08c-4.15,0.69-6.95,4.61-6.26,8.75l11.57,69.7
	c0.69,4.15,4.61,6.95,8.76,6.26l11.08-1.84l5.15-10.94l117.75-19.6l11.04,8.31l10.07-1.67C184.33,102.37,187.13,98.45,186.44,94.3z
	 M20.26,99.87l-7.13-42.98l73.46-11.13l6.96,41.95L20.26,99.87z M101.08,86.46L94.12,44.5l73.3-12.1l6.95,41.89L101.08,86.46z"/>
<path d="M1.43,115.38l-4.78,0.79c-3.59,0.6-6.98-1.83-7.58-5.42l-4.19-25.24c-0.6-3.59,1.83-6.98,5.42-7.58l4.78-0.79
	c3.59-0.6,6.98,1.83,7.58,5.42l4.19,25.24C7.44,111.39,5.02,114.78,1.43,115.38z"/>
<path d="M205.33,80.76l-4.78,0.79c-3.59,0.6-6.98-1.83-7.58-5.42l-4.19-25.24c-0.6-3.59,1.83-6.98,5.42-7.58l4.78-0.79
	c3.59-0.6,6.98,1.83,7.58,5.42l4.19,25.24C211.34,76.77,208.92,80.16,205.33,80.76z"/>
<path d="M23.19,235.19c0.43,5.44,5.19,9.5,10.63,9.07l15.74-1.24c5.44-0.43,9.5-5.19,9.07-10.63l-2.43-30.73L21,207.5L23.19,235.19z
	"/>
<path d="M178.6,210.85c0.43,6.05,5.19,10.56,10.63,10.09l15.74-1.38c5.44-0.48,9.5-5.77,9.07-11.82l-2.43-34.17l-35.2,6.49
	L178.6,210.85z"/>
<path d="M96.25,185.58l33.47-6.41c0,0-4.48,8.66-15.7,11C102.8,192.5,96.25,185.58,96.25,185.58z"/>
</svg>
