<?xml version="1.0" encoding="UTF-8"?>
<svg id="Layer_1" data-name="Layer 1" xmlns="http://www.w3.org/2000/svg" viewBox="0 0 196.02 248.73">
  <defs>
    <style>
      .cls-1 {
        stroke-width: 0px;
      }
    </style>
  </defs>
  <path class="cls-1" d="m182.41,248.72c-2.38,0-6.53,0-10.69,0-49.33,0-98.66.05-147.99-.03-17.81-.03-23.64-5.67-23.66-23.13C-.02,158.05-.02,90.54.07,23.03.09,6.21,6,.26,22.63.22,72.43.11,122.23.4,172.02,0c10.45-.08,18.05,2.99,23.26,12.84.16,2.62.53,5.86.53,9.1.03,67.97-.14,135.95.21,203.92.05,10.08-3.43,16.98-13.62,22.86Zm-83.33-55.93c18.83-18.99,36.49-36.8,54.15-54.61-.5-1.13-1.01-2.27-1.51-3.4h-33.52V63.88h-40.73v70.09c-12.51.66-23.22,1.22-33.18,1.74,18.25,19.01,35.78,37.27,54.8,57.08Z"/>
</svg>