<?xml version="1.0" encoding="UTF-8"?>
<svg id="Layer_1" data-name="Layer 1" xmlns="http://www.w3.org/2000/svg" viewBox="0 0 245.21 194.7">
  <defs>
    <style>
      .cls-1 {
        stroke-width: 0px;
      }
    </style>
  </defs>
  <path class="cls-1" d="m0,0h245.21v194.7H0V0Zm235.82,9.69H9.53v175.83h226.29V9.69Z"/>
  <path class="cls-1" d="m91.03,171.88c-12.78-19-24.41-36.3-38.06-56.58-6.85,8.78-12.42,15.9-19.76,25.31-7.96-8.04-13.95-14.08-21.06-21.26,17.46-15.86,32.94-29.92,49.52-44.99,7.25,10.9,15.85,23.85,25.61,38.53,9.49-17.17,16.07-34.73,27.5-48.16,11.35-13.34,27.58-22.53,42.74-34.37,9.4,11.42,17.84,21.69,27.8,33.8,8.6-16.62,16.18-31.27,24.43-47.21,8.75,4.58,15.72,8.24,24.9,13.05-14.2,29.57-27.99,58.28-43.29,90.13-13.98-17.46-25.91-32.35-37.85-47.26-13.18,6.01-21.08,14.81-26.44,26.72-9.02,20.07-18.73,39.82-28.29,59.64-1.69,3.51-4.07,6.68-7.77,12.65Z"/>
</svg>