<?xml version="1.0" encoding="UTF-8"?>
<svg id="Layer_1" data-name="Layer 1" xmlns="http://www.w3.org/2000/svg" viewBox="0 0 247.48 236.89">
  <defs>
    <style>
      .cls-1, .cls-2 {
        stroke-width: 0px;
      }

      .cls-2 {
        opacity: .22;
      }
    </style>
  </defs>
  <path class="cls-1" d="m218.38,0H29.1C13.03,0,0,13.03,0,29.1v120.71c0,16.07,13.03,29.1,29.1,29.1h46.94v57.98l51.99-57.98h90.35c16.07,0,29.1-13.03,29.1-29.1V29.1c0-16.07-13.03-29.1-29.1-29.1ZM76.46,150.93H25.12l36.98-44.62-25.54-9.95h44.68l-35.92,47.36,31.15,7.22Zm70.44-32.83h-51.34l36.98-44.62-25.54-9.95h44.68l-35.92,47.36,31.15,7.22Zm39.29-43.86l31.15,7.22h-51.34l36.98-44.62-25.54-9.95h44.68l-35.92,47.36Z"/>
  <polygon class="cls-2" points="202.99 36.84 166.01 81.46 217.34 81.46 186.19 74.24 222.12 26.89 177.44 26.89 202.99 36.84"/>
  <polygon class="cls-2" points="107 63.53 132.55 73.48 95.56 118.1 146.9 118.1 115.75 110.88 151.68 63.53 107 63.53"/>
  <polygon class="cls-2" points="36.56 96.36 62.1 106.31 25.12 150.93 76.46 150.93 45.31 143.72 81.23 96.36 36.56 96.36"/>
</svg>