<?xml version="1.0" encoding="utf-8"?>
<!-- Generator: Adobe Illustrator 28.0.0, SVG Export Plug-In . SVG Version: 6.00 Build 0)  -->
<svg version="1.1" id="Layer_1" xmlns="http://www.w3.org/2000/svg" xmlns:xlink="http://www.w3.org/1999/xlink" x="0px" y="0px"
	 viewBox="0 0 246.9 230.4" style="enable-background:new 0 0 246.9 230.4;" xml:space="preserve">
<path d="M66.8,230.4v-53.9c-11,0-20.4,0.1-29.8,0c-24.6-0.2-36.8-12.1-36.9-36.4C0,105.5,0,70.8,0.1,36.2C0.2,11.9,12.2,0.1,37,0.1
	C94.7,0,152.4,0,210.2,0.1c24.9,0,36.5,11.6,36.6,36.2c0.1,34.7,0.1,69.3,0,104c-0.1,24.4-12,36.2-36.7,36.3
	c-25.9,0.1-51.8-0.5-77.6,0.4c-6.6,0.2-14.3,3.5-19.2,7.9C98.3,198.3,84.3,213,66.8,230.4L66.8,230.4z M82.1,87.8
	c-0.2-10.4-10.3-20.2-20.6-20c-10.3,0.2-20,10.4-19.8,20.8c0.2,10.5,10.2,20.2,20.6,19.9C72.7,108.3,82.3,98.2,82.1,87.8z
	 M123.8,108.6c10.6-0.2,20.1-10.3,19.8-21C143.2,77.4,134,68,124,67.8c-10.6-0.3-20.4,9.5-20.4,20.3
	C103.5,99,113.2,108.7,123.8,108.6L123.8,108.6z M205.1,88.1c-0.1-10.9-9.8-20.6-20.4-20.3c-10.1,0.3-19.3,9.5-19.6,19.8
	c-0.3,10.7,9.2,20.8,19.8,20.9C195.5,108.7,205.2,98.9,205.1,88.1L205.1,88.1z"/>
</svg>
