<?xml version="1.0" encoding="UTF-8"?>
<svg id="Layer_1" data-name="Layer 1" xmlns="http://www.w3.org/2000/svg" viewBox="0 0 238.8 249.48">
  <defs>
    <style>
      .cls-1 {
        stroke-width: 0px;
      }
    </style>
  </defs>
  <path class="cls-1" d="m147.3,39.99c-5.02,19.07-15.43,25.29-32.41,24.47-22.06-1.06-44.22.1-66.32-.35-14.03-.29-21.27,5.04-21.19,19.78.24,39.46.22,78.91.02,118.37-.07,13.51,6.31,19.89,19.54,19.89,40.64,0,81.27.08,121.91-.06,12.23-.04,18.82-6.19,18.7-18.88-.1-10.76,1.09-21.64-.15-32.26-2.57-21.94,8.54-37.3,21.54-52.13,2.03.77,4,1.16,4,1.57.38,32.11,2.54,64.38.15,96.29-1.48,19.67-20.91,32.48-41.25,32.6-42.43.25-84.86.29-127.29,0-25.46-.18-44.19-18.62-44.39-43.84-.34-43.04,0-86.09-.12-129.13-.05-18.9,10.5-34.16,26.89-35.37,39.37-2.92,79.11-.95,120.37-.95Z"/>
  <path class="cls-1" d="m114.96,136.89c9.92-13.99,18.18-25.44,26.23-37.04,18.05-26.03,35.95-52.16,54.01-78.18,3.4-4.9,6.88-9.85,11.01-14.1,8.25-8.48,19.24-10.88,26.67-1.74,4.77,5.87,7.91,19.41,4.44,24.66-33.21,50.37-67.62,99.97-102.57,149.16-9.38,13.2-22.41,12.49-34.01,1.35-15.09-14.49-29.89-29.28-44.71-44.04-9.08-9.05-13.27-19.46-2.98-29.79,10.47-10.5,21.7-7.5,31.77,1.64,9.52,8.63,18.82,17.51,30.14,28.08Z"/>
</svg>