<?xml version="1.0" encoding="UTF-8"?>
<svg id="Layer_1" data-name="Layer 1" xmlns="http://www.w3.org/2000/svg" viewBox="0 0 118.16 245.75">
  <defs>
    <style>
      .cls-1 {
        opacity: .71;
      }

      .cls-1, .cls-2 {
        stroke-width: 0px;
      }
    </style>
  </defs>
  <path class="cls-1" d="m22.98,198.84s-1.27,32.52,34.85,32.52,37.35-32.52,37.35-32.52v-121.13H22.98v121.13Z"/>
  <circle class="cls-2" cx="69.59" cy="112.47" r="19.25"/>
  <circle class="cls-2" cx="47.67" cy="162.73" r="11.41"/>
  <circle class="cls-2" cx="66.02" cy="205.15" r="11.41"/>
  <path class="cls-2" d="m118.16,0H0c4.75,5.69,7.54,9.03,11.56,13.85,0,3.2,0,7.01,0,10.81,0,58.44-.15,116.88.1,175.33.11,26.15,19.92,45.5,45.87,45.76,29.85.3,48.53-18.56,48.56-49.3.07-61.39.02-122.78.02-182.34,4.16-4.87,7.16-8.38,12.05-14.11Zm-22.81,77.71v121.13s0,32.52-37.35,32.52-34.85-32.52-34.85-32.52V9.79h72.2v67.92Z"/>
</svg>