<?xml version="1.0" encoding="UTF-8"?>
<svg id="Layer_1" data-name="Layer 1" xmlns="http://www.w3.org/2000/svg" viewBox="0 0 207.07 245.75">
  <defs>
    <style>
      .cls-1, .cls-2 {
        stroke-width: 0px;
      }

      .cls-2 {
        opacity: .56;
      }
    </style>
  </defs>
  <path class="cls-1" d="m207.03,217.24c-.54-10.31-2.54-21.59-7.46-30.45-18.4-33.18-38.36-65.48-57.49-98.26-2.92-5.01-6.17-10.75-6.39-16.27-.77-19.88-.3-39.82-.3-61.23,3.87-1.7,8.37-3.67,12.87-5.65,1.27-1.27,1.43-3.59.13-5.38H63.07c-.88.7-.97,1.86-.39,3.2,3.09,2.83,5.98,4.54,8.09,6.48,7.69,42.72.24,79.87-25.98,113.49-17.12,21.94-28.87,48.51-40.56,74.13-11.38,24.97,1.25,47.82,25.08,48.08,50.05.54,100.1.4,150.15.02,16.89-.13,28.42-11.59,27.56-28.18Zm-32.03,11.9c-16.93,0-128.67.89-143.64,0-14.97-.89-15.5-16.75-13.37-26.73,2.14-9.98,20.32-44.73,27.27-57.39,6.95-12.65,25.53-38.2,25.53-38.2,23.05-30.67,8.04-64.29,14.5-97.13h37.63c7.12,31.93-8.52,65.86,14.92,97.13,0,0,22.91,39.81,32.89,58.34,9.98,18.53,20.14,36.18,21.39,44.2,1.25,8.02-.18,19.78-17.11,19.78Z"/>
  <path class="cls-2" d="m170.71,165.15c-9.98-18.53-32.89-58.34-32.89-58.34h-67.05s-18.58,25.55-25.53,38.2c-6.95,12.65-25.13,47.41-27.27,57.39-2.14,9.98-1.6,25.84,13.37,26.73,14.97.89,126.71,0,143.64,0s18.36-11.76,17.11-19.78c-1.25-8.02-11.41-25.66-21.39-44.2Z"/>
  <circle class="cls-1" cx="94.44" cy="137.53" r="19.25"/>
  <circle class="cls-1" cx="138.46" cy="187.43" r="19.25"/>
  <circle class="cls-1" cx="60.58" cy="198.84" r="11.41"/>
</svg>