<?xml version="1.0" encoding="UTF-8"?>
<svg id="Layer_1" data-name="Layer 1" xmlns="http://www.w3.org/2000/svg" viewBox="0 0 248.77 107.06">
  <defs>
    <style>
      .cls-1 {
        stroke-width: 0px;
      }
    </style>
  </defs>
  <path class="cls-1" d="m13.59,51.07C7.41,41.56-6.12,32.55,3.15,19.53c4.19-5.89,14.98-9.84,22.76-9.81,14.78.06,11.57,15.48,16.51,25.06h50C106.93,18.49,125.58,5.82,148.22,0c29.19,44.28,45.24,47.57,82.34,17.7,19.38,10.35,26.73,52.07,4.71,71.93-11.75,10.59-25.42,15.86-41.01,16.98-40.45,2.9-75.43-8.31-102.17-39.27h-46.8c-6.07,9.56-9.91,18.79-16.63,24.77-2.97,2.64-12.37-.02-17.84-2.49-14.08-6.39-13.46-13.09,2.77-38.54Z"/>
</svg>