<?xml version="1.0" encoding="utf-8"?>
<!-- Generator: Adobe Illustrator 28.0.0, SVG Export Plug-In . SVG Version: 6.00 Build 0)  -->
<svg version="1.1" id="Layer_1" xmlns="http://www.w3.org/2000/svg" xmlns:xlink="http://www.w3.org/1999/xlink" x="0px" y="0px"
	 viewBox="0 0 247.9 248.1" style="enable-background:new 0 0 247.9 248.1;" xml:space="preserve">
<path d="M247.9,124.1c0,70.6-53.6,122.6-124.5,124C59,249.3-1.9,192.1,0,122.4C2,53.2,54.7-0.1,125,0
	C194.5,0.1,247.9,54,247.9,124.1L247.9,124.1z M215.4,123.3c-0.1-50.4-41.4-91-92.1-90.8C73.7,32.7,32.8,74,32.9,123.7
	c0.1,50.8,40.9,91.5,91.4,91.5C174.8,215.2,215.5,174,215.4,123.3z"/>
<path d="M108.7,93.2c0-10.6-0.4-21.2,0.1-31.7c0.4-9.8,6-15.3,16-15c9.4,0.3,14.4,5.8,14.7,14.9c0.5,13.3,0.9,26.7,0.1,40
	c-0.7,11.1,2.8,19.4,11.2,26.5c6,5,13,10.2,15.9,16.9c2.5,5.9,2.6,16.7-1.2,20.4c-3.8,3.8-15.9,4.7-20.2,1.4
	c-12.3-9.4-22.8-21.3-33.3-32.8c-2.4-2.6-3.1-7.6-3.2-11.5C108.3,112.5,108.6,102.9,108.7,93.2C108.6,93.2,108.6,93.2,108.7,93.2
	L108.7,93.2z"/>
</svg>
