<?xml version="1.0" encoding="UTF-8"?>
<svg id="Layer_1" data-name="Layer 1" xmlns="http://www.w3.org/2000/svg" viewBox="0 0 256.19 160.55">
  <defs>
    <style>
      .cls-1 {
        stroke-width: 0px;
      }
    </style>
  </defs>
  <path class="cls-1" d="m140.95,60.16c10.82,7.12,20.9,13.8,31.03,20.4,24.36,15.87,48.58,31.94,73.2,47.4,8.82,5.54,13.07,12.58,10.04,22.39-2.99,9.69-11.44,10.21-20.21,10.19-71.1-.15-142.19-.14-213.29-.01-9.05.02-17.86-.13-20.88-10.69-3.08-10.77,2.73-17.21,11.5-22.8,31.48-20.06,63.16-39.88,93.67-61.34,11.69-8.22,20.78-20.31,30.41-31.2,5.45-6.16,3.51-12.32-3.8-15.75-7.33-3.43-12.36.23-15.63,6.85-.62,1.25-.2,3.39-1.07,4.07-3.27,2.56-6.88,4.68-10.36,6.97-2.06-3.35-5.61-6.59-5.89-10.09-.81-9.95,6.86-20.62,16.25-24.58,10.17-4.29,25.74-1.35,33.09,6.25,7.89,8.15,10.35,20.8,5.16,30.93-3.39,6.63-7.91,12.68-13.21,21ZM23.91,140.77c.28.72.56,1.43.84,2.15h206.9c.19-.73.37-1.46.56-2.19-34.71-22.55-69.43-45.1-104.22-67.7-35.32,22.99-69.7,45.37-104.08,67.74Z"/>
</svg>