<?xml version="1.0" encoding="UTF-8"?>
<svg id="Layer_1" data-name="Layer 1" xmlns="http://www.w3.org/2000/svg" viewBox="0 0 250.5 167.37">
  <defs>
    <style>
      .cls-1 {
        stroke-width: 0px;
      }
    </style>
  </defs>
  <path class="cls-1" d="m219.75,65.59c4.06,2.96,8.01,5.46,11.52,8.47,18.87,16.12,22.87,35.31,16.25,58.29-6.5,22.56-29.87,36.15-48.87,34.94-18.49-1.17-37.12-.25-56.86-.25v-29.61c3.93-1.19,13.81,1.02,20.04-.87-8.32-13.52-23.29-28.07-34.51-40.85-9.9,12.62-23.75,27.7-33.69,40.37,6.3,2.02,15.42-.31,20.48,1.31v28.12c-3.3.53-6.36,1.42-9.42,1.44-18.67.13-37.38-.72-55.99.27C26.62,168.41.23,142.88,0,118.67c-.23-24.59,10.59-40.67,29.52-52.55,4.74-33.37,29.61-43.07,58.95-25.98.9-1.73,2.05-4.32,3.53-6.7C109.78,4.87,136.23-4.22,167.93,1.73c27.52,5.16,46.89,29.8,51.82,63.86Z"/>
</svg>