<?xml version="1.0" encoding="UTF-8"?>
<svg id="Layer_1" data-name="Layer 1" xmlns="http://www.w3.org/2000/svg" viewBox="0 0 240.68 252.93">
  <defs>
    <style>
      .cls-1 {
        stroke-width: 0px;
      }
    </style>
  </defs>
  <path class="cls-1" d="m200.78,71.54c29.1,10.34,39.95,22.53,39.9,44.01-.05,22.05-16.55,40.76-38.85,42.77-12.08,1.09-24.34,1-36.45.31-4.38-.25-9.33-2.97-12.69-6.03-7.98-7.26-15.17-15.4-22.68-23.19-8.24-8.56-17.07-9.18-26.41-1.9-8.17,6.37-16.82,12.25-24.31,19.35-16.83,15.95-35.91,15.69-54.92,6.86C6.16,145.28-.13,129.05,0,109.18.31,64.12,22.22,42.15,67.19,42.32c4.06.02,9.78-2.69,11.96-5.97C99.45,5.84,122.6-5.21,152.55,2.24c27.51,6.85,43.51,28.54,46.92,63.55.17,1.74.77,3.44,1.3,5.75Z"/>
  <path class="cls-1" d="m115.83,133.08c10.43,10.39,19.12,19.05,28.35,28.23-4.32,3.06-8.25,5.84-14.93,10.57,12.25,8.4,23.56,16.16,37.65,25.82-32.62,19.38-62.79,37.31-92.95,55.23-1.18-1.14-2.36-2.28-3.54-3.42,11.83-16.75,23.65-33.51,36.48-51.68-13.25-9-25.24-17.15-40-27.17,17.53-13.46,33.21-25.51,48.93-37.58Z"/>
</svg>