<?xml version="1.0" encoding="UTF-8"?>
<svg id="Layer_1" data-name="Layer 1" xmlns="http://www.w3.org/2000/svg" viewBox="0 0 206.38 247.13">
  <defs>
    <style>
      .cls-1 {
        opacity: .61;
      }

      .cls-1, .cls-2 {
        stroke-width: 0px;
      }
    </style>
  </defs>
  <polygon class="cls-2" points="41.52 247.13 164.5 247.13 171.37 176.67 34.78 176.67 41.52 247.13"/>
  <polygon class="cls-2" points="183.74 49.78 22.63 49.78 25.62 81 180.7 81 183.74 49.78"/>
  <polygon class="cls-1" points="25.62 81 34.78 176.67 171.37 176.67 180.7 81 25.62 81"/>
  <path class="cls-2" d="m194.98,20.32h-5.59c-3.02,0-5.47-2.65-5.47-5.92l-1.77-8.48c0-3.3-.7-5.91-3.75-5.91H28.23c-3.18,0-3.86,2.47-3.86,5.91l-1.91,8.17c0,3.44-2.58,6.23-5.76,6.23h-6.24c-5.78,0-10.46,5.07-10.46,11.32v12.72h206.38v-11.71c0-6.81-5.1-12.34-11.4-12.34Zm-71.83,7.07h-39.92v-8.9h39.92v8.9Z"/>
</svg>