<?xml version="1.0" encoding="UTF-8"?>
<svg id="Layer_1" data-name="Layer 1" xmlns="http://www.w3.org/2000/svg" viewBox="0 0 248.65 245.42">
  <defs>
    <style>
      .cls-1 {
        stroke-width: 0px;
      }
    </style>
  </defs>
  <path class="cls-1" d="m232.35,102.82c-14.16-26.5-25.42-54.54-38.28-82.61h-27.8v17.99c4.9,1.84,8.74,3.28,12.05,4.52,17.26,30.88,42.23,89.04,42.1,100.24h-50.8c-8.39,11.78-15.31,21.5-21.67,30.42h-47.89c-7.09-9.97-14.91-21.47-21.56-30.82-18.01-.32-29.89-1.31-52.34-1.4,15.51-34,28.49-67.03,42.63-98.03,5.58-2.2,9.36-3.69,13.16-5.19v-17.65h-28.14c-9.88,21.99-17.74,44.05-29.22,64.04C3.99,120.23,0,150.33,0,164.31c0,15.2.22,65.16.22,81.12h247.92c0-21.5-.87-41.9.21-62.21,1.5-28.33-2.3-54.78-15.99-80.4Zm-86.82,117.09h-44.2v-15.68h44.2v15.68Z"/>
  <path class="cls-1" d="m75.37,92.36c8.51-.68,17.02-1.36,27.17-2.17V0h42.44v90.01c10.08.82,18.59,1.51,29.95,2.43-16.15,22.67-32.88,41.61-51.12,62.53-17.62-21.11-33.51-40.15-49.4-59.19.32-1.14.64-2.28.96-3.42Z"/>
</svg>