<?xml version="1.0" encoding="UTF-8"?>
<svg id="Layer_1" data-name="Layer 1" xmlns="http://www.w3.org/2000/svg" viewBox="0 0 248.57 227.73">
  <defs>
    <style>
      .cls-1, .cls-2 {
        stroke-width: 0px;
      }

      .cls-2 {
        fill: #fff;
      }
    </style>
  </defs>
  <path class="cls-1" d="m248.33,227.73H1.33c-.33-3.98-.95-7.94-.96-11.91-.08-29.7-1-59.45.38-89.09.66-14.08,5.38-28.05,8.97-41.89,6.64-25.57,13.78-51.02,20.77-76.5.72-2.61,1.88-5.1,3.1-8.33h182.03c5.5,19.63,11.02,39.13,16.4,58.68,2.46,8.94,3.76,18.28,7.07,26.87,9.23,23.98,9.89,48.8,9.33,73.97-.49,22.18-.1,44.39-.1,68.2ZM42.26,93.97h163.94c.56,10.11,1.06,19.19,1.64,29.66,5.66-.27,10.25-.49,14.74-.71-.05-16.73-21.18-92.42-27.86-101.41H52.7c-8.69,15.78-27.48,90.04-25.76,101.29h13.62c.6-10.14,1.14-19.23,1.71-28.83Zm7.34,6.64v21.61c5.55.34,10.15,1.24,14.59.76,10-1.09,16.92,3.21,22.26,11.09,2.34,3.45,5.07,6.68,6.96,10.36,3.33,6.45,8.19,9.67,15.52,9.54,10.19-.17,20.39-.09,30.59-.03,7.16.04,11.81-3.15,15.7-9.35,4.82-7.69,11.03-14.51,15.96-20.83,10.28-.52,18.49-.93,27.47-1.38v-21.77H49.6Z"/>
  <path class="cls-2" d="m61.61,79.16h127.49c.62,1.86,1.81,5.44,3,9.02,1.36-.84,2.72-1.69,4.09-2.53-.23-4.16-.46-8.31-.72-12.99H53.2v15.77c3.93-4.33,5.93-6.54,8.41-9.27Zm11.41-35.86h102.52c.07-9.53-6.84-7.68-11.69-7.72-26-.21-52-.14-78-.05-3.2.01-6.67.06-9.51,1.27-1.55.66-2.04,3.81-3.33,6.5Zm-9.44,20.04c6.09-1.97,11.29-5.03,16.54-5.11,29.65-.47,59.31-.1,88.97-.34,5.64-.05,9.75,1.56,12.86,6.17.19.28,1.6-.26,3.76-.68-.33-3.6-.67-7.33-1.03-11.27H63.58v11.24Z"/>
  <path class="cls-1" d="m61.61,79.16c-2.48,2.73-4.48,4.93-8.41,9.27v-15.77h142.26c.26,4.68.49,8.84.72,12.99-1.36.84-2.72,1.69-4.09,2.53-1.19-3.58-2.38-7.16-3-9.02H61.61Z"/>
  <path class="cls-1" d="m73.02,43.3c1.29-2.69,1.78-5.84,3.33-6.5,2.84-1.21,6.3-1.26,9.51-1.27,26-.09,52-.16,78,.05,4.84.04,11.75-1.81,11.69,7.72h-102.52Z"/>
  <path class="cls-1" d="m63.58,63.34v-11.24h121.1c.36,3.94.7,7.67,1.03,11.27-2.16.41-3.57.96-3.76.68-3.11-4.61-7.23-6.22-12.86-6.17-29.66.24-59.32-.13-88.97.34-5.25.08-10.45,3.14-16.54,5.11Z"/>
</svg>