<?xml version="1.0" encoding="UTF-8"?>
<svg id="Layer_1" data-name="Layer 1" xmlns="http://www.w3.org/2000/svg" viewBox="0 0 255.46 256">
  <defs>
    <style>
      .cls-1 {
        stroke-width: 0px;
      }
    </style>
  </defs>
  <path class="cls-1" d="m15.51,34.65c6.3-6.05,12.76-12.25,18.41-17.68,13.02,2.18,17.26,17.61,32.29,11.26,14.53-6.14,6.25-19.75,13.57-28.23h26.44c7.38,8.39-.8,22.2,13.68,28.15,14.5,5.96,18.97-7.22,32.47-12.34,4.7,6.34,10.27,13.86,16.36,22.09-1.7,9.13-16.46,13.15-10.66,27.62,5.63,14.06,17.65,8.45,27.69,13.08v27.69c-7.84,7.01-21.74-1.26-27.56,13.36-5.75,14.45,8.03,18.83,11.47,31.39-5.61,5.91-11.97,12.62-17.28,18.22-13.42-3.86-17.91-17.7-32.3-11.76-13.94,5.76-7.33,18.36-13.35,27.69h-27.16c-6.89-8.4,1.18-22.37-13.8-27.77-13.81-4.98-18.47,6.73-30.91,13.8-5.85-7.62-11.7-15.25-17.75-23.12,3.45-9.69,16.73-14.49,10.61-28.76-5.92-13.82-18.49-6.92-27.74-12.52v-27.63c8.91-6.09,22.41,1.21,28.02-13.49,5.31-13.92-6.95-18.36-12.51-31.04Zm78.03,97.46c21.67-.26,39.12-17.88,39.03-39.4-.08-21.57-17.59-38.94-39.32-39.04-22.21-.09-40.18,17.98-39.71,39.95.46,21.54,18.34,38.75,40,38.49Z"/>
  <path class="cls-1" d="m164.88,175.91c3.35-3.22,6.79-6.52,9.8-9.4,6.93,1.16,9.18,9.37,17.18,5.99,7.73-3.27,3.32-10.51,7.22-15.02h14.07c3.93,4.46-.43,11.81,7.28,14.97,7.72,3.17,10.09-3.84,17.27-6.56,2.5,3.37,5.46,7.37,8.71,11.75-.9,4.86-8.76,7-5.67,14.7,3,7.48,9.39,4.49,14.73,6.96v14.73c-4.17,3.73-11.56-.67-14.66,7.11-3.06,7.69,4.27,10.02,6.1,16.7-2.98,3.15-6.37,6.72-9.19,9.69-7.14-2.05-9.53-9.42-17.18-6.26-7.42,3.06-3.9,9.77-7.1,14.73h-14.45c-3.67-4.47.63-11.9-7.34-14.78-7.35-2.65-9.83,3.58-16.45,7.34-3.11-4.06-6.23-8.11-9.44-12.3,1.84-5.16,8.9-7.71,5.65-15.3-3.15-7.35-9.84-3.68-14.76-6.66v-14.7c4.74-3.24,11.92.65,14.9-7.18,2.82-7.41-3.7-9.77-6.66-16.51Zm41.51,51.85c11.53-.14,20.81-9.51,20.77-20.96-.04-11.47-9.36-20.72-20.92-20.77-11.82-.05-21.38,9.57-21.13,21.26.24,11.46,9.76,20.62,21.28,20.48Z"/>
</svg>