<?xml version="1.0" encoding="utf-8"?>
<!-- Generator: Adobe Illustrator 28.0.0, SVG Export Plug-In . SVG Version: 6.00 Build 0)  -->
<svg version="1.1" id="Layer_1" xmlns="http://www.w3.org/2000/svg" xmlns:xlink="http://www.w3.org/1999/xlink" x="0px" y="0px"
	 viewBox="0 0 252.21 251.33" style="enable-background:new 0 0 252.21 251.33;" xml:space="preserve">
<path d="M142.58,0c1.27,4.46,2.78,8.08,3.29,11.83c3.51,25.95,25,34.66,46.13,18.32c10.73-8.3,17.45-1.48,24.52,5.45
	c7.03,6.89,12.02,13.63,4.12,23.53c-16.32,20.44-7.3,42.31,18.77,45.8c8.81,1.18,13.34,5.03,12.76,14.41
	c-0.45,7.27-0.09,14.59-0.09,22.76c-5.25,1.61-9.35,4.13-13.22,3.81c-14.26-1.18-19.78,7.54-24.47,18.79
	c-4.44,10.66-2.68,18.82,5.51,27c10.15,10.12,2.43,17.78-4.86,25.32c-7.57,7.82-15.5,12.23-24.34,2.55
	c-7.63-8.35-15.9-9.38-25.8-5.03c-10.22,4.48-20.08,8.65-19.07,22.84c0.31,4.36-2.08,8.91-3.37,13.94h-33.71
	c-1.28-4.34-4.11-9.18-3.82-13.83c0.9-14.15-8.75-18.44-19.02-22.92c-9.87-4.31-18.17-3.45-25.82,4.94
	c-8.76,9.6-16.68,5.45-24.36-2.4c-11.58-11.83-13.03-16.91-4.08-26.25c7.73-8.07,8.9-15.93,4.64-25.99
	c-4.47-10.56-8.94-19.84-22.93-18.82c-4.04,0.3-8.25-1.74-13.35-2.93v-34.59c3.99-1.24,7.55-2.86,11.26-3.43
	c26.29-4.04,35.23-25.26,18.86-45.95c-8.47-10.7-2.04-17.37,5.06-24.44c6.88-6.86,13.63-12.35,23.57-4.52
	C72.88,41.32,82.77,41.8,96.91,31c3.87-2.96,5.78-9.08,7.47-14.12c1.72-5.13,2.05-10.72,3.12-16.88L142.58,0L142.58,0z
	 M125.79,73.28C99.7,72.82,73.86,98.1,73.11,124.82c-0.73,26.36,23.94,51.86,51.16,52.89c26.8,1.01,53.11-24.71,53.22-52.01
	C177.59,99.18,152.52,73.75,125.79,73.28z"/>
</svg>
