<?xml version="1.0" encoding="UTF-8"?>
<svg id="Layer_1" data-name="Layer 1" xmlns="http://www.w3.org/2000/svg" viewBox="0 0 254.39 170.45">
  <defs>
    <style>
      .cls-1, .cls-2 {
        stroke-width: 0px;
      }

      .cls-2 {
        opacity: .17;
      }
    </style>
  </defs>
  <path class="cls-1" d="m254.3,130.67c-.03-2.54-.32-7.9-.47-9.45-4.04-28.84-7.71-52.18-15.99-80.25C225.14-2.09,198.88-4.33,162.23,3.62c-24.03,5.22-46,5.05-70-.05C55.4-4.24,31.41-1.75,18.05,36.82,6.81,69.29-1.33,102.74.18,137.8c.54,12.45,2.27,24.76,14.28,29.8,12.34,5.18,26.97,3.56,36.97-7.05,7.77-8.24,15.52-16.15,21.25-25.63,19.59-32.42,89.53-32.17,109.44.05,7.14,11.55,18.15,21.58,29.37,29.51,16.46,11.62,39.77,6.29,42.48-18.94.64-5.98.31-8.82.31-14.87Zm-184.71-41.27c-17.7,0-32.06-14.35-32.06-32.06s14.35-32.06,32.06-32.06,32.06,14.35,32.06,32.06-14.35,32.06-32.06,32.06Zm115.16-1.18c-17.7,0-32.06-14.35-32.06-32.06s14.35-32.06,32.06-32.06,32.06,14.35,32.06,32.06-14.35,32.06-32.06,32.06Z"/>
  <circle class="cls-2" cx="184.75" cy="56.16" r="32.06"/>
  <circle class="cls-2" cx="69.59" cy="57.34" r="32.06"/>
  <circle class="cls-1" cx="174.41" cy="69.65" r="10.34"/>
  <circle class="cls-1" cx="193.9" cy="43.75" r="10.34"/>
  <path class="cls-1" d="m89.02,48.79h-10.88v-10.88c0-1.45-1.17-2.62-2.62-2.62h-11.87c-1.45,0-2.62,1.17-2.62,2.62v10.88h-10.88c-1.45,0-2.62,1.17-2.62,2.62v11.87c0,1.45,1.17,2.62,2.62,2.62h10.88v10.88c0,1.45,1.17,2.62,2.62,2.62h11.87c1.45,0,2.62-1.17,2.62-2.62v-10.88h10.88c1.45,0,2.62-1.17,2.62-2.62v-11.87c0-1.45-1.17-2.62-2.62-2.62Z"/>
</svg>