<?xml version="1.0" encoding="UTF-8"?>
<svg id="Layer_1" data-name="Layer 1" xmlns="http://www.w3.org/2000/svg" viewBox="0 0 231.46 251.29">
  <defs>
    <style>
      .cls-1 {
        stroke-width: 0px;
      }
    </style>
  </defs>
  <path class="cls-1" d="m176.81,213c-4.04,8.6-5.95,18.14-11.72,23.56-7.05,6.61-17.19,13.35-26.28,13.76-34.59,1.58-69.29.83-103.94.55-16.38-.13-33.88-14.07-34.28-29.9C-.47,179.92.23,138.83.23,96.33c5.87-.39,10.85-1.01,15.83-1.02,51.99-.07,103.97-.08,155.96-.03,30.79.03,57.15,21.93,59.17,48.98,2.82,37.71-16.53,63.04-51.91,67.99-1.24.17-2.42.72-2.47.74Zm-2.49-32.06c18.63-3.62,28.11-15.15,26.6-29.86-1.43-13.92-11.71-23.21-26.6-22.93v52.8Z"/>
  <path class="cls-1" d="m124.65,1.61c-15.83,13.74-38.52,7.87-56.75,19.93,17.18,11.47,40.97,2.69,56.9,19.92-12.61,19.12-38.66,7.53-50.14,25.86-4.62-10.62-3.63-12.26,9.07-16.4,6.7-2.18,13.6-3.74,20.4-5.58.12-1.27.23-2.53.35-3.8-4.38-1.43-8.67-3.35-13.16-4.19-11.03-2.05-22.27-3.11-33.18-5.63-3.58-.82-8.87-4.78-8.98-7.48-.15-3.7,2.97-9.42,6.28-11.08C76.94,2.44,99.7-2.91,124.65,1.61Z"/>
</svg>