<?xml version="1.0" encoding="UTF-8"?>
<svg id="Layer_1" data-name="Layer 1" xmlns="http://www.w3.org/2000/svg" viewBox="0 0 247.79 220.87">
  <defs>
    <style>
      .cls-1, .cls-2 {
        stroke-width: 0px;
      }

      .cls-2 {
        opacity: .1;
      }
    </style>
  </defs>
  <path class="cls-1" d="m243.97,137.71l-60.89-60.89c-5.09-5.09-13.35-5.09-18.45,0l-60.89,60.89c-5.09,5.09-5.09,13.35,0,18.45l60.89,60.89c5.09,5.09,13.35,5.09,18.45,0l60.89-60.89c5.09-5.09,5.09-13.35,0-18.45Zm-115.8,21.83c-4.03-4.03-4.03-10.57,0-14.6,4.03-4.03,10.57-4.03,14.6,0s4.03,10.57,0,14.6c-4.03,4.03-10.57,4.03-14.6,0Zm22.2-22.2c-4.03-4.03-4.03-10.57,0-14.6s10.57-4.03,14.6,0,4.03,10.57,0,14.6-10.57,4.03-14.6,0Zm22.2-22.2c-4.03-4.03-4.03-10.57,0-14.6s10.57-4.03,14.6,0,4.03,10.57,0,14.6-10.57,4.03-14.6,0Zm-10.6,78.91c-4.03-4.03-4.03-10.57,0-14.6,4.03-4.03,10.57-4.03,14.6,0,4.03,4.03,4.03,10.57,0,14.6-4.03,4.03-10.57,4.03-14.6,0Zm22.2-22.2c-4.03-4.03-4.03-10.57,0-14.6,4.03-4.03,10.57-4.03,14.6,0,4.03,4.03,4.03,10.57,0,14.6-4.03,4.03-10.57,4.03-14.6,0Zm22.2-22.2c-4.03-4.03-4.03-10.57,0-14.6s10.57-4.03,14.6,0c4.03,4.03,4.03,10.57,0,14.6-4.03,4.03-10.57,4.03-14.6,0Z"/>
  <circle class="cls-2" cx="179.87" cy="107.84" r="10.33" transform="translate(-23.57 158.77) rotate(-45)"/>
  <circle class="cls-2" cx="213.66" cy="142.34" r="10.33"/>
  <circle class="cls-2" cx="191.46" cy="164.54" r="10.33"/>
  <circle class="cls-2" cx="157.67" cy="130.04" r="10.33"/>
  <circle class="cls-2" cx="169.27" cy="186.74" r="10.33"/>
  <circle class="cls-2" cx="135.47" cy="152.23" r="10.33"/>
  <path class="cls-1" d="m99.15,0H13.04C5.84,0,0,5.84,0,13.04v86.11c0,7.2,5.84,13.04,13.04,13.04h86.11c7.2,0,13.04-5.84,13.04-13.04V13.04c0-7.2-5.84-13.04-13.04-13.04ZM24.82,97.32c-5.7,0-10.33-4.62-10.33-10.33s4.62-10.33,10.33-10.33,10.33,4.62,10.33,10.33-4.62,10.33-10.33,10.33Zm0-62.79c-5.7,0-10.33-4.62-10.33-10.33s4.62-10.33,10.33-10.33,10.33,4.62,10.33,10.33-4.62,10.33-10.33,10.33Zm31.77,31.39c-5.7,0-10.33-4.62-10.33-10.33s4.62-10.33,10.33-10.33,10.33,4.62,10.33,10.33-4.62,10.33-10.33,10.33Zm32.51,31.39c-5.7,0-10.33-4.62-10.33-10.33s4.62-10.33,10.33-10.33,10.33,4.62,10.33,10.33-4.62,10.33-10.33,10.33Zm0-62.79c-5.7,0-10.33-4.62-10.33-10.33s4.62-10.33,10.33-10.33,10.33,4.62,10.33,10.33-4.62,10.33-10.33,10.33Z"/>
  <circle class="cls-2" cx="89.09" cy="86.99" r="10.33"/>
  <circle class="cls-2" cx="24.82" cy="86.99" r="10.33"/>
  <circle class="cls-2" cx="89.09" cy="24.2" r="10.33"/>
  <circle class="cls-2" cx="56.59" cy="55.6" r="10.33"/>
  <circle class="cls-2" cx="24.82" cy="24.2" r="10.33"/>
</svg>