<?xml version="1.0" encoding="UTF-8"?>
<svg id="Layer_1" data-name="Layer 1" xmlns="http://www.w3.org/2000/svg" viewBox="0 0 230.74 231.47">
  <defs>
    <style>
      .cls-1, .cls-2 {
        stroke-width: 0px;
      }

      .cls-2 {
        isolation: isolate;
        opacity: .1;
      }
    </style>
  </defs>
  <path class="cls-1" d="m116.34,0L0,116.34h26.74v115.13h35.35v-62.5c0-30,24.32-54.31,54.31-54.31s54.31,24.32,54.31,54.31v62.5h34.98v-115.13h25.05L116.34,0Zm1.6,52.76c1.09-5.89,5.43-10.05,9.7-9.29,4.27.76,6.85,6.15,5.76,12.04s-5.43,10.05-9.7,9.29-6.85-6.15-5.76-12.04h0Zm-12.78-9.29c4.19-.76,8.45,3.4,9.52,9.29s-1.46,11.28-5.65,12.04-8.45-3.4-9.52-9.29,1.46-11.28,5.65-12.04Zm-18.39,26.78c-2.62-5.38-1.63-11.26,2.19-13.12,3.83-1.86,9.05.99,11.67,6.38,2.62,5.38,1.63,11.26-2.19,13.12-3.83,1.86-9.05-.99-11.67-6.38Zm43.7,34.85h-28.26c-7.31,0-11.6-5.22-11.6-11.6,0-9.27,8.63-8.63,13.21-13.21s.64-13.41,12.52-13.41,8.75,9.07,12.52,13.57c3.77,4.5,13.33,4.9,13.33,12.93,0,6.99-5.3,11.72-11.72,11.72Zm15.92-34.85c-2.67,5.38-7.99,8.24-11.89,6.38-3.9-1.86-4.9-7.73-2.24-13.12,2.67-5.38,7.99-8.24,11.89-6.38,3.9,1.86,4.9,7.73,2.24,13.12Z"/>
  <path class="cls-2" d="m98.44,76.63c3.83-1.86,4.81-7.73,2.19-13.12-2.62-5.38-7.84-8.24-11.67-6.38s-4.81,7.73-2.19,13.12c2.62,5.38,7.84,8.24,11.67,6.38Z"/>
  <path class="cls-2" d="m114.68,52.76c-1.07-5.89-5.33-10.05-9.52-9.29s-6.72,6.15-5.65,12.04,5.33,10.05,9.52,9.29,6.72-6.15,5.65-12.04Z"/>
  <path class="cls-2" d="m123.7,64.8c4.27.76,8.61-3.4,9.7-9.29s-1.49-11.28-5.76-12.04c-4.27-.76-8.61,3.4-9.7,9.29s1.49,11.28,5.76,12.04h0Z"/>
  <path class="cls-2" d="m144.15,57.13c-3.9-1.86-9.23.99-11.89,6.38-2.67,5.38-1.67,11.26,2.24,13.12,3.9,1.86,9.23-.99,11.89-6.38,2.67-5.38,1.67-11.26-2.24-13.12Z"/>
  <path class="cls-2" d="m128.86,80.45c-3.77-4.5-.64-13.57-12.52-13.57s-7.95,8.83-12.52,13.41-13.21,3.93-13.21,13.21c0,6.38,4.3,11.6,11.6,11.6h28.26c6.42,0,11.72-4.74,11.72-11.72,0-8.03-9.55-8.43-13.33-12.93Z"/>
</svg>