<?xml version="1.0" encoding="UTF-8"?>
<svg id="Layer_1" data-name="Layer 1" xmlns="http://www.w3.org/2000/svg" viewBox="0 0 179.97 243.75">
  <defs>
    <style>
      .cls-1 {
        opacity: .53;
      }

      .cls-1, .cls-2 {
        stroke-width: 0px;
      }
    </style>
  </defs>
  <path class="cls-2" d="m92.06,3.91h0c.48-1.99-1.02-3.91-3.07-3.91H3.47C1.23,0-.44,2.1.11,4.27c.42,1.65.8,3.75.96,6.23h89.67c.35-2.21.79-4.42,1.32-6.6Z"/>
  <path class="cls-2" d="m1.15,18.35v9.73h88.55v-4.25c-.01-1.83.05-3.66.17-5.48H1.15Z"/>
  <path class="cls-1" d="m90.74,10.5H1.07c.05.78.08,1.6.08,2.45v5.39h88.72c.17-2.63.46-5.24.88-7.84Z"/>
  <path class="cls-2" d="m152.04,160.49c-7.43-3.7-53.63-26.19-61.13-29.84-.63-.31-1.03-.95-1.03-1.65l-.16-93.07H1.15v112.37c26.18,7.16,45.44,31.11,45.44,59.56,0,.49-.03.98-.04,1.47,20.54,9.05,53.61,23.51,64.16,28.07l44.16-75.39c-1.1-.63-2.07-1.14-2.83-1.52Z"/>
  <path class="cls-1" d="m89.7,28.08H1.15v7.84h88.56v-7.84Z"/>
  <path class="cls-1" d="m176.29,219.72c12.74-33.86-10.84-51.67-21.42-57.72l-44.16,75.39c1.35.58,2.35,1.01,2.89,1.24,5.92,2.49,49.04,17.36,62.69-18.91Z"/>
  <path class="cls-1" d="m1.15,148.29v8.56c0,32.62,16.14,39.47,33.57,47.23,2.97,1.32,7.06,3.13,11.83,5.23.01-.49.04-.98.04-1.47,0-28.46-19.25-52.4-45.44-59.56Z"/>
</svg>