<?xml version="1.0" encoding="UTF-8"?>
<svg id="Layer_1" data-name="Layer 1" xmlns="http://www.w3.org/2000/svg" viewBox="0 0 251.65 174.94">
  <defs>
    <style>
      .cls-1 {
        stroke-width: 0px;
      }
    </style>
  </defs>
  <path class="cls-1" d="m88.64,1.21c6.93,16.49,17.94,26.53,35.73,26.74,18.31.21,30.07-9.45,36.89-26.95,16.77-.62,33.18-3.83,49.07,5.98,12.81,7.9,26.8,13.88,41.32,21.25-4.24,17.89-12.11,33.28-19.29,50.46-13.2-6.14-24.42-11.37-37.76-17.58-2.41,13.86-1.01,26.3-1.26,38.57-.25,12.16-.05,24.33-.05,36.5v38.78H56.84V60.36c-13.97,6.64-25.02,11.89-35.76,17C12.83,70.93-.04,40.61,0,27.48,16.83,18.89,33.5,8.23,51.68,1.9c10.76-3.75,23.9-.69,36.96-.69Z"/>
</svg>