<?xml version="1.0" encoding="UTF-8"?>
<svg id="Layer_1" data-name="Layer 1" xmlns="http://www.w3.org/2000/svg" viewBox="0 0 244.43 164.12">
  <defs>
    <style>
      .cls-1, .cls-2 {
        stroke-width: 0px;
      }

      .cls-2 {
        fill: #fff;
      }
    </style>
  </defs>
  <path class="cls-1" d="m244.43,83.34c-35.94,42.56-70.44,85.15-132.24,80.43-18.25-1.4-38.01-9.09-53.07-19.62-20.74-14.51-38.01-34.15-55.92-52.41-2.99-3.05-4.32-12.23-2.03-15.28C23.78,46.39,50.15,20.36,86.12,6.52c22.71-8.74,45.93-8.74,68.53.24,37.56,14.93,64.65,42.41,89.78,76.57Zm-74.7-1.01c-.2-27.5-22.9-49.7-50.43-49.34-27.38.37-49.35,23.26-48.85,50.9.48,26.85,22.75,48.66,49.72,48.71,27.26.05,49.75-22.77,49.55-50.27Z"/>
  <path class="cls-2" d="m169.73,82.32c.2,27.51-22.29,50.32-49.55,50.27-26.97-.04-49.24-21.86-49.72-48.71-.5-27.65,21.47-50.54,48.85-50.9,27.53-.37,50.23,21.84,50.43,49.34Zm-29.07.79c.15-12.61-7.76-20.8-20.2-20.94-12.64-.14-20.76,7.71-20.91,20.22-.15,12.64,7.68,20.76,20.2,20.94,12.56.19,20.76-7.75,20.91-20.22Z"/>
  <path class="cls-1" d="m140.66,83.12c-.15,12.48-8.35,20.41-20.91,20.22-12.52-.19-20.35-8.31-20.2-20.94.15-12.51,8.27-20.36,20.91-20.22,12.44.14,20.35,8.33,20.2,20.94Z"/>
</svg>