<?xml version="1.0" encoding="UTF-8"?>
<svg id="Layer_1" data-name="Layer 1" xmlns="http://www.w3.org/2000/svg" viewBox="0 0 206.73 206.73">
  <defs>
    <style>
      .cls-1, .cls-2 {
        stroke-width: 0px;
      }

      .cls-2 {
        opacity: .58;
      }
    </style>
  </defs>
  <path class="cls-1" d="m192.12,0H14.61C6.54,0,0,6.54,0,14.61v177.51c0,8.07,6.54,14.61,14.61,14.61h177.51c8.07,0,14.61-6.54,14.61-14.61V14.61c0-8.07-6.54-14.61-14.61-14.61Zm-121.84,84.25h-15.01v97.61h-17.15v-97.61h-15.01v-26.26h15.01V24.87h17.15v33.12h15.01v26.26Zm56.67,52.75h-15.01v43.44h-17.15v-43.44h-15.01v-26.26h15.01V23.45h17.15v87.3h15.01v26.26Zm57.74-26.5h-15.01v71.88h-17.15v-71.88h-15.01v-26.26h15.01V25.4h17.15v58.85h15.01v26.26Z"/>
  <rect class="cls-2" x="23.1" y="58.11" width="47.18" height="13.13"/>
  <rect class="cls-2" x="79.78" y="110.74" width="47.18" height="13.13"/>
  <rect class="cls-2" x="137.52" y="84.07" width="47.18" height="13.13"/>
</svg>