<?xml version="1.0" encoding="utf-8"?>
<!-- Generator: Adobe Illustrator 28.0.0, SVG Export Plug-In . SVG Version: 6.00 Build 0)  -->
<svg version="1.1" id="Layer_1" xmlns="http://www.w3.org/2000/svg" xmlns:xlink="http://www.w3.org/1999/xlink" x="0px" y="0px"
	 viewBox="0 0 258 199" style="enable-background:new 0 0 258 199;" xml:space="preserve">
<style type="text/css">
	.st0{fill-opacity:0;}
	.st1{opacity:5.000000e-02;enable-background:new    ;}
	.st2{opacity:0.32;enable-background:new    ;}
</style>
<rect x="215.8" y="110.4" width="22" height="28.4"/>
<ellipse transform="matrix(0.9733 -0.2297 0.2297 0.9733 -30.353 19.0469)" class="st0" cx="66.6" cy="139.9" rx="32.8" ry="32.8"/>
<ellipse transform="matrix(0.3827 -0.9239 0.9239 0.3827 -9.2274 307.1076)" class="st1" cx="225.2" cy="160.5" rx="18.5" ry="18.5"/>
<path class="st2" d="M253.4,65.2h-23.7c-1.8,0-3.2,1.7-3.2,3.7s1.4,3.7,3.2,3.7h23.5l0.2-7C253.4,65.7,253.4,65.5,253.4,65.2
	L253.4,65.2z"/>
<path class="st2" d="M229.7,79.6c-1.8,0-3.2,1.7-3.2,3.7s1.4,3.7,3.2,3.7h23.1l0.2-7.5L229.7,79.6L229.7,79.6z"/>
<path class="st2" d="M230.1,94c-1.8,0-3.2,1.7-3.2,3.7s1.4,3.7,3.2,3.7h22.3l0.2-7.5L230.1,94L230.1,94z"/>
<path d="M226.5,69c0-2.1,1.7-3.7,3.7-3.7H258c-0.3-1.7-1.6-7.8-5.6-10.5c-4.7-3.1-12.4-2.6-12.4-2.6l-34.7-0.1V6.9l-13-6.9v52.1
	L158.3,52c0,0-13.1-1.8-21.7,3.3c-3.8,2.3-7.1,5.5-9.6,8.5l-7.2-8l6.1-6.1c3-3,3-7.8,0-10.8s-7.8-3-10.8,0L88.5,65.5
	c-3,3-3,7.8,0,10.8l0,0c3,3,7.8,3,10.8,0l8.1-8.1l11.6,7.6l-26.3,44.1c4.3,5.5,6.8,12.5,6.8,20c0,1.3-0.1,2.6-0.2,3.9
	c25.8,0,66.9-0.1,71.8,0c7.2,0.1,11.4-0.3,14.8-2.9s5.4-8,10.3-12.6c5-4.7,11.4-7.9,17.6-9.3c6.2-1.4,27.5-2.7,30.9-3.4
	c3.4-0.7,8.3-2.1,10.2-4.3c1.9-2.3,1.9-5.4,1.9-5.4l0.1-4.2h-26.2c-2.1,0-3.7-1.7-3.7-3.7s1.7-3.7,3.7-3.7h26.5l0.2-6.9h-27.2
	c-2.1,0-3.7-1.7-3.7-3.7s1.7-3.7,3.7-3.7h27.4l0.2-6.9h-27.7C228.1,72.7,226.5,71.1,226.5,69L226.5,69z"/>
<path d="M66.6,86.5c-29.5,0-53.4,23.9-53.4,53.4s23.9,53.4,53.4,53.4s53.4-23.9,53.4-53.4S96.1,86.5,66.6,86.5z M92.7,139.9
	c0,14.4-11.7,26-26,26c-14.4,0-26-11.7-26-26s11.7-26,26-26C81,113.8,92.7,125.5,92.7,139.9z"/>
<path d="M225.2,127.7c-18.1,0-32.8,14.7-32.8,32.8c0,18.1,14.7,32.8,32.8,32.8c18.1,0,32.8-14.7,32.8-32.8
	C258,142.3,243.3,127.7,225.2,127.7z M225.2,175.6c-8.3,0-15.1-6.8-15.1-15.1s6.8-15.1,15.1-15.1c8.3,0,15.1,6.8,15.1,15.1
	S233.5,175.6,225.2,175.6z"/>
</svg>
