<?xml version="1.0" encoding="UTF-8"?>
<svg id="Layer_1" data-name="Layer 1" xmlns="http://www.w3.org/2000/svg" viewBox="0 0 239.98 166.62">
  <defs>
    <style>
      .cls-1, .cls-2 {
        stroke-width: 0px;
      }

      .cls-2 {
        isolation: isolate;
        opacity: .08;
      }
    </style>
  </defs>
  <path class="cls-1" d="m226.2,0H13.77C6.17,0,0,6.16,0,13.77v139.08c0,7.6,6.16,13.77,13.77,13.77h18.92c3.05-12.84,16.13-22.49,31.8-22.49s28.75,9.65,31.8,22.49h46.67c3.05-12.84,16.13-22.49,31.8-22.49s28.75,9.65,31.8,22.49h19.65c7.6,0,13.77-6.16,13.77-13.77V13.77c0-7.6-6.16-13.77-13.77-13.77h0Zm-106.56,90.1c0,2.22-1.8,4.01-4.01,4.01H30.63c-2.22,0-4.01-1.8-4.01-4.01v-4.32c0-2.22,1.8-4.01,4.01-4.01h85c2.22,0,4.01,1.8,4.01,4.01v4.32Zm93.03-27.61c0,2.22-1.8,4.01-4.01,4.01H30.63c-2.22,0-4.01-1.8-4.01-4.01v-4.32c0-2.22,1.8-4.01,4.01-4.01h178.03c2.22,0,4.01,1.8,4.01,4.01v4.32Zm0-27.61c0,2.22-1.8,4.01-4.01,4.01H30.63c-2.22,0-4.01-1.8-4.01-4.01v-4.32c0-2.22,1.8-4.01,4.01-4.01h178.03c2.22,0,4.01,1.8,4.01,4.01v4.32Z"/>
  <rect class="cls-2" x="26.61" y="81.76" width="93.03" height="12.34" rx="4.01" ry="4.01"/>
  <rect class="cls-2" x="26.61" y="54.15" width="186.05" height="12.34" rx="4.01" ry="4.01"/>
  <rect class="cls-2" x="26.61" y="26.54" width="186.05" height="12.34" rx="4.01" ry="4.01"/>
</svg>