<?xml version="1.0" encoding="UTF-8"?>
<svg id="Layer_1" data-name="Layer 1" xmlns="http://www.w3.org/2000/svg" viewBox="0 0 248.97 213.19">
  <defs>
    <style>
      .cls-1 {
        stroke-width: 0px;
      }
    </style>
  </defs>
  <path class="cls-1" d="m.52,30.94c44.66,11.35,87.83,10.1,132,.73.51,3.95,1.01,7.18,1.34,10.43.33,3.35.49,6.72.85,11.76,37.37.24,74.36-.16,110.33.21,4.81,11.77,5.33,109.39.9,123.81-36.13,2.4-73.16-.13-111.15,1.4-.56,8.15-1.09,15.67-1.59,22.88-18.13,13.72-103.66,15-132.69,1.79V30.94Zm163.08,53.09v65.22c25.39.61,49.8,1.29,74.97-.39.67-22.51.84-43.56.02-64.83h-75Zm-11.79-.23c-5.88-.27-11.04-.5-16.88-.77v67.04c6.33-.43,11.53-.78,16.88-1.14v-65.13Zm19.17,77.21c-2.64.22-5.27.43-10.42.86,5.03,6.89,7.71,7.89,10.42-.86Zm1.74-93.82c-6.2-3.72-9.01-3.16-9.83,3.62,2.28.35,4.25,1.13,5.98.75,1.17-.26,1.98-2.15,3.86-4.38Zm37.55,96.88c-3.45-4.95-6.21-4.92-9.46.22,3.48,5.03,6.24,4.84,9.46-.22Zm-8.78-93.55c5.06,2.72,7.62,1.77,8.18-4.29-5.12-2.71-7.82-2.02-8.18,4.29Zm-49.06,92.06c-1.2-1.04-2.39-2.09-3.59-3.13-1.55,1.7-3.11,3.4-4.66,5.11,1.44,1.15,2.88,2.3,4.32,3.45,1.31-1.81,2.62-3.62,3.93-5.42Zm78.13-94.79c-3.8-1.51-5.99-2.38-9.94-3.95.85,4.09,1.29,6.2,2.01,9.66,2.86-2.06,4.63-3.33,7.93-5.71Zm-38.75.25c-2.72-1.56-4.26-3.05-5.91-3.18-.99-.08-3.22,2.33-3,2.99.55,1.63,2.06,3.88,3.41,4.04,1.33.16,2.93-1.94,5.5-3.86Zm-40.86,4.8c1.57-7.04-.16-9.04-4.8-7.71-.93.27-1.47,1.88-2.9,3.85,2.51,1.26,4.62,2.32,7.7,3.86Zm70.62,94.61l3.33,1.36c1.13-1.95,2.27-3.9,3.4-5.86-1.83-.97-3.66-1.94-6.73-3.57v8.07Zm-35.85-8.82c-1.41,2.93-2.81,4.59-2.78,6.23.01,1.07,2.57,3.22,3.15,2.96,1.64-.72,3.79-2.33,3.94-3.77.14-1.29-2.12-2.83-4.3-5.42Z"/>
  <path class="cls-1" d="m.01,12.58C28.42-4.83,111.86-3.91,133.34,13.75c.58,7.33-5.48,8.92-10.45,10.58-6.05,2.02-12.42,3.56-18.75,4.16-29.87,2.83-59.78,4.15-89.3-2.99C8.27,23.9-.34,23.68.01,12.58Zm81.44.87c-10.32-7.05-21.02-6.84-30.21.6,10.59,7.28,21.66,7.06,30.21-.6Z"/>
</svg>