<?xml version="1.0" encoding="UTF-8"?>
<svg id="Layer_1" data-name="Layer 1" xmlns="http://www.w3.org/2000/svg" viewBox="0 0 243.74 171.6">
  <defs>
    <style>
      .cls-1, .cls-2 {
        stroke-width: 0px;
      }

      .cls-2 {
        fill: none;
      }
    </style>
  </defs>
  <path class="cls-2" d="m178.85,39.6c-24.06,0-43.57,19.51-43.57,43.57,0,10.44,3.68,20.03,9.81,27.53h-43.61c6.13-7.51,9.81-17.09,9.81-27.53,0-24.06-19.51-43.57-43.57-43.57s-43.57,19.51-43.57,43.57,19.51,43.57,43.57,43.57h111.14c24.06,0,43.57-19.51,43.57-43.58s-19.51-43.57-43.57-43.57h0Z"/>
  <path class="cls-2" d="m178.85,39.6c-24.06,0-43.57,19.51-43.57,43.57,0,10.44,3.68,20.03,9.81,27.53h-43.61c6.13-7.51,9.81-17.09,9.81-27.53,0-24.06-19.51-43.57-43.57-43.57s-43.57,19.51-43.57,43.57,19.51,43.57,43.57,43.57h111.14c24.06,0,43.57-19.51,43.57-43.58s-19.51-43.57-43.57-43.57h0Z"/>
  <path class="cls-1" d="m213.57,0H30.17C13.51,0,0,13.51,0,30.17v111.26c0,16.66,13.51,30.17,30.17,30.17h183.4c16.66,0,30.17-13.51,30.17-30.17V30.17c0-16.66-13.51-30.17-30.17-30.17Zm-36.37,127.84h-111.14c-24.06,0-43.57-19.51-43.57-43.58s19.51-43.57,43.57-43.57,43.57,19.51,43.57,43.57c0,10.44-3.68,20.03-9.81,27.53h43.61c-6.13-7.51-9.81-17.09-9.81-27.53,0-24.06,19.51-43.57,43.57-43.57s43.57,19.51,43.57,43.57-19.51,43.57-43.57,43.57h0Z"/>
  <circle class="cls-1" cx="65.06" cy="84.28" r="23.81"/>
  <circle class="cls-1" cx="178.45" cy="84.28" r="23.81"/>
</svg>