<?xml version="1.0" encoding="UTF-8"?>
<svg id="Layer_1" data-name="Layer 1" xmlns="http://www.w3.org/2000/svg" viewBox="0 0 193.61 243.73">
  <defs>
    <style>
      .cls-1 {
        opacity: .27;
      }

      .cls-1, .cls-2 {
        stroke-width: 0px;
      }
    </style>
  </defs>
  <path class="cls-2" d="m193.61,1.81v241.92H0V2.64C9.21-.24,175.41-1.12,193.61,1.81ZM39.03,115.59c14.47,3.18,104.91,2.66,114.88-.51V12.4c-14.07-3.2-104.56-2.69-114.88.64v102.55Zm-.07,117.39c17.07,3.11,105.54,2.27,114.9-.88v-102.83c-17.1-2.94-105.16-2.07-114.9,1.13v102.57Zm-10.87-145.39c-.43-6.96-.75-12.29-1.14-18.55-6.56.3-11.52.52-17.73.8.44,6.88.79,12.22,1.14,17.74h17.73Zm154.93-.13v-17.62h-16.96v17.62h16.96Zm-16.97-46.91v17.61h16.99v-17.61h-16.99ZM27.96,58.36c-.3-6.83-.54-12.18-.78-17.56H10.43v17.56h17.52Zm.36-29.6c-.5-6.96-.87-12.24-1.23-17.32H10.24v17.32h18.08Zm137.92,99.74v17.43h16.86v-17.43h-16.86ZM26.71,204.62v-18.03c-6.06.35-11.29.65-16.45.94v17.09h16.45Zm138.4-17.28c.41,6.71.73,11.98,1.1,17.98,6.67-.33,11.61-.58,16.9-.84v-17.14h-18ZM10.42,216.11v17.43h17.83c-.44-6.49-.79-11.76-1.17-17.43H10.42Zm-.43-70.3h17.02v-17.2H9.99v17.2Zm173.21-46.29h-16.97v17.19h16.97v-17.19ZM10.2,116.82h16.91v-17.39H10.2v17.39Zm172.95,100.12h-16.98v17h16.98v-17Zm-.03-188.23V11.46h-16.92v17.25h16.92ZM27.17,158.03H10.31v17.07h16.87v-17.07Zm156.68,17.32c-.33-6.83-.58-12.02-.82-17.1h-17.78c.35,6.31.63,11.54.93,17.1h17.66Z"/>
  <path class="cls-1" d="m39.03,115.59V13.04c10.32-3.33,100.81-3.85,114.88-.64v102.68c-9.96,3.17-100.41,3.69-114.88.51Z"/>
  <path class="cls-1" d="m38.97,232.98v-102.57c9.74-3.2,97.81-4.07,114.9-1.13v102.83c-9.36,3.15-97.84,3.99-114.9.88Z"/>
</svg>