<?xml version="1.0" encoding="UTF-8"?>
<svg id="Layer_1" data-name="Layer 1" xmlns="http://www.w3.org/2000/svg" viewBox="0 0 194.2 251.97">
  <defs>
    <style>
      .cls-1, .cls-2 {
        stroke-width: 0px;
      }

      .cls-2 {
        fill: #231f20;
        opacity: .43;
      }
    </style>
  </defs>
  <path class="cls-1" d="m194.2,0c0,83.45,0,166.23,0,249.01-9.6,3.11-171.19,4.2-194.2,1.17V0h194.2ZM41.46,162.83h111.03v-74.85H41.46v74.85Zm110.91,82.01v-73.28c-15.07-3.48-99.59-2.95-110.87.7v72.58h110.87ZM41.75,5.58v74.4h111.17c.92-25.46.61-49.74.37-74.4H41.75Zm141.45,239.42v-33.73h-17.87v33.73h17.87Zm-18.4-123.83h18.43v-32.97h-18.43v32.97ZM28.99,163.08v-33.64H10.7c-1,11.91-2.7,22.68,1.16,33.64h17.14ZM183.7,46.81h-18.44v32.96h18.44v-32.96ZM28.67,80.17v-33.77H10.89v33.77h17.78Zm-18.07,42.31c7.28-.34,12.55-.58,18.34-.85v-33.61H10.6v34.46Zm154.54,40.1h17.96v-33.3h-17.96v33.3ZM10.78,245.64c6.67-.29,12.28-.54,18.05-.79v-33.6H10.78v34.39Zm154.4-75.44v33.2h17.94v-33.2h-17.94Zm-.2-131.46h18.31V6h-18.31v32.74Zm-136.14.44V5.52H10.98v33.66h17.86Zm-.14,165.01v-33.76H11.11v33.76h17.58Z"/>
  <path class="cls-2" d="m41.46,162.83v-74.85h111.03v74.85H41.46Z"/>
  <path class="cls-2" d="m152.37,244.84H41.5v-72.58c11.28-3.65,95.8-4.18,110.87-.7v73.28Z"/>
  <path class="cls-2" d="m41.75,5.58h111.54c.24,24.66.55,48.93-.37,74.4H41.75V5.58Z"/>
</svg>