<?xml version="1.0" encoding="UTF-8"?>
<svg id="Layer_1" data-name="Layer 1" xmlns="http://www.w3.org/2000/svg" viewBox="0 0 245.56 107.92">
  <defs>
    <style>
      .cls-1 {
        stroke-width: 0px;
      }
    </style>
  </defs>
  <path class="cls-1" d="m191.6,0c-29.8,0-53.96,24.16-53.96,53.96,0,12.94,4.56,24.8,12.14,34.1h-54.01c7.59-9.3,12.14-21.16,12.14-34.1,0-29.8-24.15-53.96-53.95-53.96S0,24.16,0,53.96s24.16,53.96,53.96,53.96h137.64c29.8,0,53.96-24.17,53.96-53.97S221.4,0,191.6,0ZM19.87,53.96c0-18.83,15.26-34.09,34.09-34.09s34.09,15.26,34.09,34.09-15.26,34.09-34.09,34.09-34.09-15.26-34.09-34.09Zm171.73,34.09c-18.83,0-34.09-15.26-34.09-34.09s15.26-34.09,34.09-34.09,34.09,15.26,34.09,34.09-15.26,34.09-34.09,34.09Z"/>
</svg>