<?xml version="1.0" encoding="UTF-8"?>
<svg id="Layer_1" data-name="Layer 1" xmlns="http://www.w3.org/2000/svg" viewBox="0 0 170.08 254.79">
  <defs>
    <style>
      .cls-1 {
        stroke-width: 0px;
      }
    </style>
  </defs>
  <path class="cls-1" d="m54.61,190.48h51.29c.7,21.3,1.02,40.96-.31,60.33-10.41,4.22-81.4,5.47-104.13,1.85-.39-5.02-1.17-10.47-1.19-15.93C.16,190.59.69,144.44,0,98.31c-.39-26.16,11.23-43.31,34.64-53.44,2.14-.93,4.16-2.15,6.48-3.35.87-5.28,1.71-10.35,2.49-15.09,9.51-9.67,16.58-2.75,24.15,3.27C101.07,19.82,134.44,9.91,167.82,0c.76.92,1.51,1.85,2.27,2.77-2.63,7.41-5.26,14.83-8.06,22.72,5.69,5.8,5.48,12.46-.56,19.48,3.69,8.58,10.32,16.82,6.81,29.2-34.92-11.29-67.19-27.76-101.39-38.6-.69,1.29-1.38,2.58-2.07,3.87,8.19,5.38,16.8,10.21,24.45,16.27,8.82,6.98,14.73,16.66,16.08,27.79,1.24,10.21.26,20.7.26,33.15h-51v73.83Z"/>
  <path class="cls-1" d="m65.2,128.4h38.59v50.29h-37.87c-2.78-16.52-1.62-32.64-.72-50.29Z"/>
</svg>