<?xml version="1.0" encoding="UTF-8"?>
<svg id="Layer_1" data-name="Layer 1" xmlns="http://www.w3.org/2000/svg" viewBox="0 0 173.4 248.51">
  <defs>
    <style>
      .cls-1 {
        stroke-width: 0px;
      }
    </style>
  </defs>
  <path class="cls-1" d="m173.4,142.7c-6.68,0-10.44.29-14.15-.05-31.6-2.85-63.17-5.98-94.78-8.66-15.34-1.3-29.23-6.24-43.94-16.23-.76,6.05-1.83,10.7-1.85,15.36-.15,33.51-.08,67.01-.08,100.52,0,4.63,0,9.27,0,14.87H0V0h16.1c.63.81,1.65,1.53,1.6,2.14-2.01,20.94,13.79,26.02,28.54,29.78,13.97,3.56,28.73,4.1,43.18,5.61,23.88,2.51,47.8,4.65,71.68,7.15,3.65.38,7.19,1.92,12.11,3.29-9.65,16.52-18.61,31.86-27.74,47.51,9.3,15.71,17.94,30.33,27.92,47.21Z"/>
</svg>