<?xml version="1.0" encoding="utf-8"?>
<!-- Generator: Adobe Illustrator 28.0.0, SVG Export Plug-In . SVG Version: 6.00 Build 0)  -->
<svg version="1.1" id="Layer_1" xmlns="http://www.w3.org/2000/svg" xmlns:xlink="http://www.w3.org/1999/xlink" x="0px" y="0px"
	 viewBox="0 0 241.59 241.6" style="enable-background:new 0 0 241.59 241.6;" xml:space="preserve">
<path d="M0.06,0.06c31.73,0,61.36-0.27,90.97,0.31c4.1,0.08,8.85,3.6,12.05,6.78c43.17,42.96,86.2,86.06,129.09,129.3
	c12.56,12.66,12.56,20.71,0.03,33.46c-21.17,21.55-42.65,42.79-64.03,64.14c-8.93,8.91-18.74,10.62-28.1,1.36
	C95.4,191.25,50.92,146.88,6.61,102.36c-3.13-3.15-6.19-8.1-6.26-12.27C-0.19,60.89,0.06,31.68,0.06,0.06z M48.46,69.78
	c11.38-0.08,21.26-9.95,21.38-21.34c0.12-11.42-9.48-20.87-21.36-21.03c-12.05-0.16-21.1,8.86-20.98,20.93
	c0.11,11.86,9.55,21.52,20.96,21.43V69.78z"/>
</svg>
