<?xml version="1.0" encoding="utf-8"?>
<!-- Generator: Adobe Illustrator 28.0.0, SVG Export Plug-In . SVG Version: 6.00 Build 0)  -->
<svg version="1.1" id="Layer_1" xmlns="http://www.w3.org/2000/svg" xmlns:xlink="http://www.w3.org/1999/xlink" x="0px" y="0px"
	 viewBox="0 0 234.04 244.62" style="enable-background:new 0 0 234.04 244.62;" xml:space="preserve">
<path d="M0.98,27.31c28.54,0,54.91-0.25,81.27,0.28c3.74,0.08,8.1,3.25,11.01,6.16c38.67,38.66,77.22,77.44,115.6,116.4
	c11.48,11.65,11.44,18.45-0.11,30.33c-18.74,19.29-37.79,38.28-56.87,57.23c-9.28,9.22-17.92,9.22-27.18,0
	C93.45,206.6,40.35,151.66,8.99,120.29c-11.58-11.84-8.89-18.71-8.3-49.93c0.46-14.22,0.29-27.22,0.29-43.04V27.31z M43.92,90.36
	c10.07,0.16,19.44-9.01,19.61-19.21c0.17-10.39-8.62-18.98-19.43-18.99c-10.34-0.01-18.4,7.83-18.58,18.1
	c-0.19,10.64,8.32,19.94,18.41,20.1H43.92z"/>
<path d="M220.01,143.86c-20.8-21.65-42.27-44.21-63.99-66.53C137.3,58.1,118.56,38.86,99.18,20.31c-3.95-3.78-10.7-6.04-16.32-6.39
	c-14.49-0.91-29.09,0.09-43.6-0.71C35.47,13,28.2,14.02,28.2,6.76c0.62-2.05,1.23-4.1,1.85-6.14c11.18,0,21.19-0.38,33.52-0.24
	c35.08-0.98,40.26-1.01,56.59,12.69c30.86,30.75,78.27,77.05,107.29,106.5C237.77,130.04,236.51,135.32,220.01,143.86L220.01,143.86
	z"/>
</svg>
