<?xml version="1.0" encoding="UTF-8"?>
<svg id="Layer_1" data-name="Layer 1" xmlns="http://www.w3.org/2000/svg" viewBox="0 0 175.5 252.11">
  <defs>
    <style>
      .cls-1 {
        stroke-width: 0px;
      }
    </style>
  </defs>
  <path class="cls-1" d="m174.01,252.11h-35.99c-3.28-19.8-1.27-38.79-1.62-57.64-.35-18.52-.08-37.05-.08-56.03-6.81-1.06-12.19-1.9-18.55-2.89-.38-4.03-1.03-7.79-1.04-11.56-.08-31.21-.13-62.42,0-93.63.05-13.25,7.85-24.98,18.5-28.62,12.74-4.35,26.73-.55,34.84,10.52,2.87,3.92,5.18,9.36,5.2,14.11.31,72.38.21,144.77.15,217.16,0,2.1-.67,4.2-1.42,8.57Z"/>
  <path class="cls-1" d="m48.87,77.46c3.94-.22,5.93-.33,9.41-.53V1.82h19.17c.23,4.36.67,8.93.69,13.5.07,22.12.06,44.24.03,66.37-.03,17.83-1.19,19.65-19.4,28.98,0,4.08,0,9.16,0,14.23,0,36.44.05,72.87-.06,109.31-.02,5.49-.83,10.97-1.38,17.81H21.55c-.72-5.34-2.04-10.67-2.06-16-.18-36.44-.1-72.87-.1-109.31,0-5.16,0-10.32,0-15.74-3.68-1.97-6.71-3.44-9.59-5.17C3.9,102.23-.03,97.44,0,90.06.11,61.87.12,33.68.24,5.49c0-1.18.84-2.36,1.43-3.92h17.47c.26,5.4.65,10.04.67,14.68.08,16.92-.05,33.83.11,50.75.04,4.37-1.34,9.93,7.46,11.2,3.65-12.7,1.42-25.55,1.8-38.12.38-12.44.08-24.91.08-38.33h19.62v75.7Z"/>
</svg>