<?xml version="1.0" encoding="UTF-8"?>
<svg id="Layer_1" data-name="Layer 1" xmlns="http://www.w3.org/2000/svg" viewBox="0 0 156.63 248.31">
  <defs>
    <style>
      .cls-1 {
        stroke-width: 0px;
      }
    </style>
  </defs>
  <path class="cls-1" d="m51.65,248.31H0C6.36,179.67,12.66,111.68,18.98,43.49c-7.65-1.93-12.47-3.14-17.8-4.48V0h39.71c.91,5.88,1.8,11.68,2.84,18.39h17.3c.93-6.01,1.76-11.43,2.8-18.19h29c.78,5.66,1.52,11.06,2.45,17.81h17.78c.78-5.93,1.49-11.36,2.35-17.93h39.68v39.11c-4.57,1.01-9.03,1.99-17.41,3.84,6.27,67.81,12.56,135.84,18.96,205.04h-52.68c0-8.67.62-16.91-.18-25.01-.76-7.78-1.71-15.99-4.87-22.98-4.55-10.08-14.13-13.4-24.76-11.69-11.52,1.85-18.5,9.56-20.01,20.7-1.68,12.4-1.67,25.03-2.49,39.24Z"/>
</svg>