<?xml version="1.0" encoding="UTF-8"?>
<svg id="Layer_1" data-name="Layer 1" xmlns="http://www.w3.org/2000/svg" viewBox="0 0 189.39 249.39">
  <defs>
    <style>
      .cls-1, .cls-2 {
        stroke-width: 0px;
      }

      .cls-2 {
        fill: #fff;
      }
    </style>
  </defs>
  <path class="cls-1" d="m189.39,183.66v65.74H.37v-65.74h189.02Zm-56.93,29.05H56.45c.9,6.73,1.63,12.16,2.36,17.6,1.19,0,2.37,0,3.56,0,2.2-2.86,4.4-5.72,6.78-8.82h50.79c2.95,3.39,5.5,6.3,10.81,12.4.76-9.41,1.2-14.84,1.71-21.17Z"/>
  <path class="cls-1" d="m.1,172.46v-65.64h188.84v65.64H.1Zm132.73-36.71H56.69c.67,6.58,1.24,12.1,1.8,17.63,1.14.11,2.28.21,3.42.32,2.53-3.01,5.07-6.02,7.63-9.05h49.92c3.03,3.39,5.67,6.34,10.9,12.2,1.03-8.78,1.65-14.13,2.47-21.09Z"/>
  <path class="cls-1" d="m0,95.52V30.13h188.83v65.39H0Zm126.91-18.45c1.47-.12,2.93-.23,4.4-.35.31-5.63.61-11.27.94-17.32H56.2c1.04,6.96,1.85,12.33,2.66,17.69,1.23-.04,2.47-.08,3.7-.13,2.42-3.14,4.84-6.28,6.92-8.99h50.45c2.58,3.37,4.78,6.23,6.97,9.09Z"/>
  <path class="cls-1" d="m11.79,18.29C19.45,5.52,27.27-.33,40.9.01c36.39.93,72.84.87,109.24.03,13.38-.31,20.06,6.32,27.09,18.24H11.79Z"/>
  <path class="cls-2" d="m132.46,212.7c-.51,6.33-.95,11.75-1.71,21.17-5.31-6.09-7.86-9.01-10.81-12.4h-50.79c-2.39,3.11-4.58,5.96-6.78,8.82-1.19,0-2.37,0-3.56,0-.73-5.44-1.46-10.87-2.36-17.6"/>
</svg>