<?xml version="1.0" encoding="UTF-8"?>
<svg id="Layer_1" data-name="Layer 1" xmlns="http://www.w3.org/2000/svg" viewBox="0 0 244.19 209.13">
  <defs>
    <style>
      .cls-1 {
        stroke-width: 0px;
      }
    </style>
  </defs>
  <path class="cls-1" d="m16.58,0h122.3v83.63c4.58,1.11,7.19,1.88,9.85,2.36,21.4,3.82,32.31,15.96,33.05,37.76.47,13.74-.12,27.51.29,41.25.37,12.4,6.61,20.25,17.68,23.57,13.21,3.96,25.35-4.51,24.9-18.24-.21-6.52-1.55-13.51-4.34-19.34-6.97-14.56-7.51-29.4-4.87-44.85,3.29-19.25,1.59-21.72-16.63-28.83-3.89-1.52-7.71-4.1-10.59-7.12-7.72-8.07-16.12-14.79-26.82-18.57-3.05-1.08-5.52-3.75-7.84-5.4,2.49-11.66,4.39-14.31,13.37-14.36,6.48-.04,13.33,1.23,19.37,3.58,9.09,3.54,17.61,8.53,26.8,13.12,1.36,4.47,2.71,8.91,4.21,13.84,1.8,1.46,3.88,3.23,6.06,4.88,9.18,6.97,13.21,16.34,12.68,27.69-.24,5.09-.65,10.22-1.57,15.23-2.21,11.98-.44,23.12,4,34.53,3.18,8.19,3.68,17.43,5.3,26.21,4.03,21.93-21.66,44.46-48.99,36.57-16.19-4.67-27.94-14.56-30.65-32.16-1.3-8.43-1.35-17.06-1.73-25.61-.45-10.17.31-20.49-1.19-30.48-1.61-10.74-8.72-14.72-21.28-13.58v83.63c4.86,1.2,9.64,2.38,15.49,3.82.32,4.61.63,9.05.92,13.24-9.2,3.03-140.97,3.87-156.34,1.2v-14.24c5.27-1.31,10.05-2.49,16.48-4.08.12-62.55-.04-125.14.09-189.2Zm61.35,86.21c9.79,0,19.59.31,29.37-.09,9.63-.39,13.5-4.21,13.76-13.88.37-14.09.4-28.21-.03-42.3-.28-9.07-4.09-12.84-13.28-13-19.96-.36-39.94-.37-59.91,0-9.07.17-12.91,4.09-13.18,13.15-.41,14.09-.39,28.21-.02,42.3.25,9.47,4.31,13.37,13.93,13.76,9.77.39,19.58.09,29.37.07Zm117.79-26.61c-2.59-2.21-3.1.15-2.62,1.23.23.52,1.03,1.27,1.63,1.75,1.34,1.4,3.43,1.53,2.29-1.48-.43-.5-.86-1-1.3-1.5Z"/>
</svg>