<?xml version="1.0" encoding="UTF-8"?>
<svg id="Layer_1" data-name="Layer 1" xmlns="http://www.w3.org/2000/svg" viewBox="0 0 214.3 253.51">
  <defs>
    <style>
      .cls-1 {
        stroke-width: 0px;
      }
    </style>
  </defs>
  <path class="cls-1" d="m97.49,155.69H.56c0-22.19-.88-44.18.78-65.98.31-4.12,10.43-9.91,16.56-10.68,13.07-1.64,26.49-.5,43.17-.5-4.98-4.74-7.28-6.97-9.64-9.14-1.27-1.17-2.71-2.18-3.96-3.37-18.01-17.13-21.44-44.55-7.32-58.31,14.11-13.75,40.93-8.52,57.27,11.18,2.72,3.28,5.34,6.62,9.25,11.48,3.68-4.16,6.67-7.5,9.62-10.88C126.37,7.91,137.99-.12,154.39.58c16.42.7,26.8,9.67,28.21,26.15,1.41,16.41-5.63,29.47-17.16,40.47-3.03,2.89-6.32,5.52-8.98,11.31,12.28,0,24.55-.11,36.83.03,16.17.18,20.81,4.85,20.9,21.05.1,18.18.02,36.37.02,55.81h-96.95v-71.8c-5.82-.7-11.18-3-14.05-1.23-3.12,1.92-5.37,7.57-5.48,11.67-.54,19.91-.25,39.85-.25,61.66Zm26.24-94.55c16.9-.07,33.6-10.87,37.45-24.22,2.71-9.41-1.41-15.4-10.14-14.74-15.28,1.16-30.75,23.24-27.31,38.97Zm-32.94.05c2.14-15.23-8.04-32.45-22.31-36.93-4.19-1.32-10.76-.77-13.8,1.81-2.3,1.96-1.95,8.88-.65,12.9,3.95,12.22,20.28,21.83,36.75,22.23Z"/>
  <path class="cls-1" d="m117.33,176.48h96.76c0,21.63.73,42.38-.55,63.02-.3,4.79-7.28,12.93-11.46,13.11-27.96,1.17-55.99.61-84.76.61v-76.73Z"/>
  <path class="cls-1" d="m96.55,253.37c-28.51,0-56.1.57-83.62-.58-4.41-.18-11.87-7.83-12.15-12.38-1.31-21.03-.58-42.18-.58-63.91h96.35v76.87Z"/>
</svg>