<?xml version="1.0" encoding="UTF-8"?>
<svg id="Layer_1" data-name="Layer 1" xmlns="http://www.w3.org/2000/svg" viewBox="0 0 242.48 178.62">
  <defs>
    <style>
      .cls-1, .cls-2 {
        stroke-width: 0px;
      }

      .cls-2 {
        isolation: isolate;
        opacity: .15;
      }
    </style>
  </defs>
  <path class="cls-2" d="m88.78,103.63H30.21c-5.06,0-7.4,5.27-7.4,10.85s4.09,33.57,5.33,37.6,6.51,11.98,11.36,11.98h50.51c4.24,0,7.44-3.31,7.44-7.44v-44.31c0-7.23-4.44-8.68-8.68-8.68h0Z"/>
  <path class="cls-2" d="m153.73,103.63h58.57c5.06,0,7.4,5.27,7.4,10.85s-4.09,33.57-5.33,37.6-6.51,11.98-11.36,11.98h-50.51c-4.23,0-7.44-3.31-7.44-7.44v-44.31c0-7.23,4.44-8.68,8.68-8.68h-.01Z"/>
  <path class="cls-1" d="m239.88,109.14l-14.32-98.06L206,.61s-6.34-2.34-8.68,2.2c-1.95,3.78,3.44,7.58,3.44,7.58l12.81,7.57,11.17,74.77c-1.38-.66-3.29-1.16-6.04-1.29-8.26-.41-64.77,0-67.66,0s-9.61.62-13.74,6.82-4.03,12.09-4.03,12.09c0,0-.05.75-.14,2.03h-23.76c-.09-1.28-.14-2.03-.14-2.03,0,0,.1-5.89-4.03-12.09s-10.85-6.82-13.74-6.82-59.4-.41-67.66,0c-2.75.14-4.65.63-6.04,1.29L28.93,17.96l12.81-7.57s5.39-3.79,3.44-7.58c-2.34-4.55-8.68-2.2-8.68-2.2l-19.56,10.47L2.62,109.14l-2.62,2.75v13.64l13.33,11.6c.51,8.26,1.27,18.9,2.3,21.04,1.55,3.2,14.36,20.45,18.9,20.45h59.29c3.62,0,16.01-14.15,17.25-20.04.38-1.81.35-7.06.13-13.46,2.66-1.45,5.77-2.57,9.1-2.57,3.97,0,7.85,1.74,10.94,3.67-.19,5.9-.19,10.66.17,12.36,1.24,5.89,13.64,20.04,17.25,20.04h59.29c4.54,0,17.35-17.25,18.9-20.45,1.03-2.14,1.79-12.78,2.3-21.04l13.33-11.6v-13.64l-2.62-2.75h.02Zm-142.43,47.48c0,4.13-3.2,7.44-7.44,7.44h-50.51c-4.86,0-10.12-7.95-11.36-11.98s-5.33-32.02-5.33-37.6,2.34-10.85,7.4-10.85h58.57c4.24,0,8.68,1.45,8.68,8.68v44.31h0Zm116.91-4.54c-1.24,4.03-6.51,11.98-11.36,11.98h-50.51c-4.24,0-7.44-3.31-7.44-7.44v-44.31c0-7.23,4.44-8.68,8.68-8.68h58.57c5.06,0,7.4,5.27,7.4,10.85s-4.09,33.57-5.33,37.6h-.01Z"/>
</svg>