<?xml version="1.0" encoding="UTF-8"?>
<svg id="Layer_1" data-name="Layer 1" xmlns="http://www.w3.org/2000/svg" viewBox="0 0 229.21 167.51">
  <defs>
    <style>
      .cls-1, .cls-2 {
        stroke-width: 0px;
      }

      .cls-2 {
        isolation: isolate;
        opacity: .33;
      }
    </style>
  </defs>
  <ellipse class="cls-2" cx="59.58" cy="122.87" rx="35.05" ry="32.44"/>
  <ellipse class="cls-2" cx="169.62" cy="122.87" rx="35.05" ry="32.44"/>
  <path class="cls-1" d="m213.76,9l-15.57-7.84s-5.11-2.62-8.22,0c-4.02,3.38,2.12,7.84,2.12,7.84l10.96,6.72,11.21,85.17s.68,4.47-1.21,7.23c-6.28-17.4-23.35-29.89-43.43-29.89s-38.35,13.38-44.06,31.75h-21.92c-5.7-18.37-23.26-31.75-44.06-31.75s-37.15,12.49-43.43,29.89c-1.9-2.76-1.21-7.23-1.21-7.23L26.15,15.72l10.96-6.72s6.14-4.46,2.12-7.84c-3.11-2.62-8.22,0-8.22,0l-15.57,7.84L0,126.92l11.46,8.47,4.13.56c5.76,18.27,23.28,31.56,44,31.56,19.5,0,36.15-11.78,42.85-28.39h24.33c6.7,16.62,23.35,28.39,42.85,28.39,20.72,0,38.24-13.29,44-31.56l4.13-.56,11.46-8.47-15.44-117.92h0ZM59.58,155.32c-19.36,0-35.05-14.52-35.05-32.44s15.69-32.44,35.05-32.44,35.05,14.52,35.05,32.44-15.69,32.44-35.05,32.44Zm110.03,0c-19.36,0-35.05-14.52-35.05-32.44s15.69-32.44,35.05-32.44,35.05,14.52,35.05,32.44-15.69,32.44-35.05,32.44Z"/>
</svg>