<?xml version="1.0" encoding="UTF-8"?>
<svg id="Layer_1" data-name="Layer 1" xmlns="http://www.w3.org/2000/svg" viewBox="0 0 233.85 235.81">
  <defs>
    <style>
      .cls-1 {
        stroke-width: 0px;
      }
    </style>
  </defs>
  <path class="cls-1" d="m106.2,202.6v-66.45c-18.8-9.92-37.75-21.22-57.75-30.16C14.52,90.81-6.6,49.47,1.87,10.03h42.65c2.65-3.84,4.77-6.91,6.92-10.03h131c1.96,2.82,4.11,5.91,6.84,9.83h42.41c9.07,33.75-10.73,85.86-53.22,98.87-18.09,5.54-33.84,18.71-50.86,28.54v65.08c20.94,6.28,45.75,4.62,59.43,30.35H47.17c13.11-25.15,36.79-24.42,59.02-30.07Zm-28.11-153.18c-.55,1.14-1.1,2.28-1.65,3.43,6.57,6,16.22,10.9,18.85,18.3,2.72,7.64-1.37,17.71-2.48,26.72.57,1.51,1.14,3.01,1.71,4.52,14.94-21.26,30.31-15.23,47.18-1.26-1.67-12.73-5.9-22.7-3.12-29.99,2.91-7.63,12.57-12.67,21.38-20.77-12.79-.59-21.86-1.02-31.26-1.45-3.56-8.4-6.87-16.2-11.54-27.2-5,11.03-8.63,19.03-12.57,27.71h-26.51Zm-32.18-28.45H13.76c-8.17,30.05,21.93,77.1,42.08,72.16-3.26-23.68-6.49-47.14-9.93-72.16Zm174.49.02h-32.15c-3.6,25.3-6.98,49.02-10.35,72.67,22.86,1.02,49.77-43.16,42.49-72.67Z"/>
</svg>