<?xml version="1.0" encoding="UTF-8"?>
<svg id="Layer_1" data-name="Layer 1" xmlns="http://www.w3.org/2000/svg" viewBox="0 0 239.1 232.32">
  <defs>
    <style>
      .cls-1, .cls-2 {
        stroke-width: 0px;
      }

      .cls-2 {
        opacity: .35;
      }
    </style>
  </defs>
  <path class="cls-2" d="m225.46,126.92c-12.26-11.04-27.09-14.97-47.26-16.03-20.17-1.06-50.88.59-73.57,20.46s-27.21,30.74-39.86,40.16c-12.65,9.42-31.31,12.44-44.7,14.88C20.08,186.39-.02,191.32,0,205.81c.01,8.11,3.34,16.22,9.78,19.49,10.98,5.57,22.25,6.89,31.28,7.01,9.03.12,106.22-3.45,138.76-17.63s42.37-26.93,47.92-32.26c5.54-5.33,11.03-11.78,11.33-21.53.31-9.74-1.35-22.94-13.61-33.98ZM41.3,221.5c-9.5-.23-29.23-3.56-29.23-13.72,0-8.91,14.61-15.97,27.63-15.86,8.94.07,29.04,2.55,29.04,12.48,0,10.87-12.65,17.47-27.45,17.11Z"/>
  <rect class="cls-1" x="29.16" y="5.01" width="9.53" height="211.27"/>
  <polygon class="cls-1" points="29.16 0 151.32 37.54 29.16 77.23 29.16 0"/>
</svg>