<?xml version="1.0" encoding="UTF-8"?>
<svg id="Layer_1" data-name="Layer 1" xmlns="http://www.w3.org/2000/svg" viewBox="0 0 240.82 174.24">
  <defs>
    <style>
      .cls-1 {
        stroke-width: 0px;
      }
    </style>
  </defs>
  <path class="cls-1" d="m224.54,27.43c-45.33-.06-90.67-.56-135.99.18-22.96.38-45.65,2.56-52.75-27.59C27.41.02,21.68.09,15.96,0,7.67-.12,1.19,2.11.14,11.69c-1.05,9.56,4.09,13.75,12.57,16.91,5.47,2.04,11.58,6.21,14.3,11.14,12.16,21.97,23.53,44.4,34.49,67,4.3,8.86,9.56,12.77,19.9,12.6,38.32-.62,76.65-.21,114.98-.29,4.41,0,8.81-.68,14.09-1.11,10.05-29.69,19.88-58.73,30.36-89.68-6.76-.36-11.52-.82-16.28-.83Zm-33.78,10.3c4.61,0,8.35,3.74,8.35,8.35s-3.74,8.35-8.35,8.35-8.35-3.74-8.35-8.35,3.74-8.35,8.35-8.35Zm-24.48,0c4.61,0,8.35,3.74,8.35,8.35s-3.74,8.35-8.35,8.35-8.35-3.74-8.35-8.35,3.74-8.35,8.35-8.35Zm-25.66,0c4.61,0,8.35,3.74,8.35,8.35s-3.74,8.35-8.35,8.35-8.35-3.74-8.35-8.35,3.74-8.35,8.35-8.35Zm-25.43,0c4.61,0,8.35,3.74,8.35,8.35s-3.74,8.35-8.35,8.35-8.35-3.74-8.35-8.35,3.74-8.35,8.35-8.35Zm-25.66,0c4.61,0,8.35,3.74,8.35,8.35s-3.74,8.35-8.35,8.35-8.35-3.74-8.35-8.35,3.74-8.35,8.35-8.35Zm-26.11,16.7c-4.61,0-8.35-3.74-8.35-8.35s3.74-8.35,8.35-8.35,8.35,3.74,8.35,8.35-3.74,8.35-8.35,8.35Zm4.46,15.65c0-4.61,3.74-8.35,8.35-8.35s8.35,3.74,8.35,8.35-3.74,8.35-8.35,8.35-8.35-3.74-8.35-8.35Zm20.47,33.96c-4.61,0-8.35-3.74-8.35-8.35s3.74-8.35,8.35-8.35,8.35,3.74,8.35,8.35-3.74,8.35-8.35,8.35Zm5.2-33.96c0-4.61,3.74-8.35,8.35-8.35s8.35,3.74,8.35,8.35-3.74,8.35-8.35,8.35-8.35-3.74-8.35-8.35Zm20.23,33.96c-4.61,0-8.35-3.74-8.35-8.35s3.74-8.35,8.35-8.35,8.35,3.74,8.35,8.35-3.74,8.35-8.35,8.35Zm5.2-33.96c0-4.61,3.74-8.35,8.35-8.35s8.35,3.74,8.35,8.35-3.74,8.35-8.35,8.35-8.35-3.74-8.35-8.35Zm20.47,33.96c-4.61,0-8.35-3.74-8.35-8.35s3.74-8.35,8.35-8.35,8.35,3.74,8.35,8.35-3.74,8.35-8.35,8.35Zm5.2-33.96c0-4.61,3.74-8.35,8.35-8.35s8.35,3.74,8.35,8.35-3.74,8.35-8.35,8.35-8.35-3.74-8.35-8.35Zm19.28,33.96c-4.61,0-8.35-3.74-8.35-8.35s3.74-8.35,8.35-8.35,8.35,3.74,8.35,8.35-3.74,8.35-8.35,8.35Zm5.2-33.96c0-4.61,3.74-8.35,8.35-8.35s8.35,3.74,8.35,8.35-3.74,8.35-8.35,8.35-8.35-3.74-8.35-8.35Zm19.75,33.96c-4.61,0-8.35-3.74-8.35-8.35s3.74-8.35,8.35-8.35,8.35,3.74,8.35,8.35-3.74,8.35-8.35,8.35Zm13.54-25.61c-4.61,0-8.35-3.74-8.35-8.35s3.74-8.35,8.35-8.35,8.35,3.74,8.35,8.35-3.74,8.35-8.35,8.35Zm13.31-24c-4.61,0-8.35-3.74-8.35-8.35s3.74-8.35,8.35-8.35,8.35,3.74,8.35,8.35-3.74,8.35-8.35,8.35Z"/>
  <path class="cls-1" d="m175.16,174.24c-11.43-.16-18.15-7.01-18.14-18.52,0-11.2,7.05-18.2,18.39-18.27,11.94-.07,19.05,7.2,18.71,19.14-.32,11.21-7.41,17.81-18.96,17.65Z"/>
  <path class="cls-1" d="m93.95,174.24c-11.43-.16-18.15-7.01-18.14-18.52,0-11.2,7.05-18.2,18.39-18.27,11.94-.07,19.05,7.2,18.71,19.14-.32,11.21-7.41,17.81-18.96,17.65Z"/>
</svg>