<?xml version="1.0" encoding="UTF-8"?>
<svg id="Layer_1" data-name="Layer 1" xmlns="http://www.w3.org/2000/svg" viewBox="0 0 248.96 235.43">
  <defs>
    <style>
      .cls-1 {
        stroke-width: 0px;
      }
    </style>
  </defs>
  <path class="cls-1" d="m247.2,235.43h-47.49v-93.56c12.17-1.03,23.87-2.01,35.18-2.97,9-38.81-9.19-87.1-40.02-108-38.08-25.81-102.63-25.78-140.78.05C23.33,51.78,5.16,100.08,14.12,139.06c10.96.78,22.28,1.59,35.37,2.52v93.34H1.14c-.37-5.65-1.02-11-1.03-16.36-.09-36.82-.19-73.65,0-110.47C.38,53.86,40.17,6.78,94.37,1.29c25.57-2.59,52.8-1.38,77.7,4.65,46.61,11.29,76.7,54.11,76.86,102.16.13,40.35-.12,80.7-.27,121.06,0,1.45-.65,2.91-1.46,6.28Z"/>
</svg>