<?xml version="1.0" encoding="UTF-8"?>
<svg id="Layer_1" data-name="Layer 1" xmlns="http://www.w3.org/2000/svg" viewBox="0 0 240.75 226.53">
  <defs>
    <style>
      .cls-1 {
        stroke-width: 0px;
      }
    </style>
  </defs>
  <path class="cls-1" d="m75.81,0h20.9c4.81,49.88,9.56,99.21,14.32,148.54,1.45.16,2.91.33,4.36.49,5.83-19.88,11.66-39.76,18.38-62.7,3.81,4.78,6.56,7.39,8.29,10.56,5.32,9.72,10.29,19.64,15.33,29.52,10.27,20.13,28.91,23.82,48.99,12.22,6.82-3.94,18.11-4.48,25.46-1.65,4.87,1.88,8.59,12.41,8.89,19.25.61,13.69-15.95,24.68-27.32,17.17-14.28-9.44-28.99-7.21-43.94-7.81-5.92-.24-11.84-.66-17.05-.96-3.89-5.32-7.04-9.62-12.19-16.66-8,27.86-15.18,52.87-22.55,78.55h-22.01c-4.88-50.17-9.72-99.89-14.57-149.61-1.24-.03-2.49-.06-3.73-.09-7.89,28.6-15.78,57.2-23.84,86.43H0v-16.51c7.65-.9,14.46-2.62,21.17-2.29,11.67.57,15.77-4.99,18.48-15.73,10.05-39.83,21.14-79.4,31.94-119.04.83-3.05,2.52-5.87,4.21-9.7Z"/>
</svg>