<?xml version="1.0" encoding="UTF-8"?>
<svg id="Layer_1" data-name="Layer 1" xmlns="http://www.w3.org/2000/svg" viewBox="0 0 246.54 177.94">
  <defs>
    <style>
      .cls-1 {
        stroke-width: 0px;
      }
    </style>
  </defs>
  <path class="cls-1" d="m246.54,0v156.97c-28.71-5.87-56.19-11.5-85.61-17.52-.61,8.03-1.5,14.27-1.48,20.52.05,12.05-5.05,18.13-17.62,17.97-23.29-.3-46.59-.24-69.89-.03-11.16.1-16.36-5.31-16.44-16.09-.1-14.42-.03-28.85-.03-45.2-14.26-3.36-28.11-6.62-41.6-9.8-4.06,3.26-7.65,6.14-13.88,11.14V40.22c5.56,4,9.27,6.68,14.01,10.09C90.31,33.81,167.85,17.03,246.54,0ZM71.53,119.62c0,10.74.22,18.95-.05,27.15-.35,10.48,4.12,15.5,14.92,15.18,12.08-.36,24.18-.04,36.28-.06,20.66-.04,24.31.08,24.28-26.01-21.48-4.74-50.41-10.74-75.42-16.26Z"/>
</svg>