<?xml version="1.0" encoding="UTF-8"?>
<svg id="Layer_1" data-name="Layer 1" xmlns="http://www.w3.org/2000/svg" viewBox="0 0 247.61 249.13">
  <defs>
    <style>
      .cls-1 {
        opacity: .46;
      }

      .cls-1, .cls-2 {
        stroke-width: 0px;
      }
    </style>
  </defs>
  <path class="cls-2" d="m26,124.65H0C5.52,112.79,112.13,6.16,124.88,0c12.7,12.19,25.88,24.84,41.5,39.83,1.05-10.82,1.75-18.1,2.63-27.14,14.45-2.68,28.63-1.28,44.16-.71v78.13c11.1,9.86,22.77,20.23,34.43,30.6-.41,1.19-.83,2.38-1.24,3.56-8.39.46-16.79.92-26.85,1.46v123.39h-62.35c-1.89-34.57.22-69.32-1.26-105.9-22.34-1.29-43.67-1.58-66.48.32v105.26H26v-124.17Z"/>
  <rect class="cls-1" x="96.52" y="148.93" width="53.47" height="99.09"/>
</svg>