<?xml version="1.0" encoding="UTF-8"?>
<svg id="Layer_1" data-name="Layer 1" xmlns="http://www.w3.org/2000/svg" viewBox="0 0 249.89 210.71">
  <defs>
    <style>
      .cls-1 {
        stroke-width: 0px;
      }
    </style>
  </defs>
  <path class="cls-1" d="m117.12,124.99V45.4c21.15-3.36,40.08-3.84,58.82-.45,2.98.54,6.65,7.23,6.87,11.24.99,17.96.85,35.98,1.1,53.99.05,3.98,0,7.97,0,13.71h34.34c.27,3.77.92,5.93.47,7.84-3.1,13.29-6.27,26.56-9.73,39.76-1.91,7.29-6.8,12.2-14.54,12.47-23.98.82-47.97,1.4-71.96,1.44-2.49,0-5.66-3.88-7.3-6.67-2.14-3.65-3.05-8-4.81-12.93h-44.77c-2.42,6.5-4.55,12.22-6.85,18.39-11.85,0-23.29.58-34.62-.33-3.65-.29-8.33-3.73-10.24-7.04-8.84-15.33-10.21-32.71-13.91-51.83h117.12Zm53.62,46.84V55.51h-41.32v116.32h41.32Z"/>
  <path class="cls-1" d="m10.95,110.63c-3.66.19-6.3.33-9.66.5,0-7.49-.53-14.26.11-20.92,1.3-13.59,3.81-27.08,4.75-40.68,1.03-15.03,9.45-24.41,21.49-31.68C48,5.54,70.64,1.91,93.89.59c28.23-1.6,56.19-.42,82.95,9.78,6.91,2.63,13.51,6.41,19.68,10.51,9.42,6.26,15.73,14.7,16.75,26.6,1.77,20.62,4,41.21,6.15,62.91h-11.74c-.76-7.97-1.48-15.3-2.17-22.63-1.1-11.73-2.36-23.45-3.22-35.2-.86-11.69-7.17-19.42-16.97-25.06-15.73-9.04-33.03-12.75-50.77-14.85-31.76-3.76-62.85-1.62-92.77,10.68-15.03,6.18-24.81,15.91-25.15,33.34-.23,11.46-1.61,22.91-2.76,34.33-.64,6.4-1.87,12.73-2.92,19.63Z"/>
  <path class="cls-1" d="m33.21,55.52h60v48.42c-7.1,0-14.11.02-21.11,0-9.37-.03-18.74-.32-28.1-.07-7.45.2-10.98-2.71-10.84-10.36.22-12.31.06-24.63.06-37.99Zm10.32,35.86c11.3-5.82,16.26-17.45,12.07-27.68h-12.07v27.68Zm40.61.55v-28.96c-5.1.35-8.9.61-12.37.85-2.82,11.23,1.64,21.57,12.37,28.12Z"/>
  <path class="cls-1" d="m69.78,191.4c.15-10.55,7.83-18.4,18.1-18.51,9.4-.09,19.54,9.66,19.6,18.86.06,9.16-9.95,18.87-19.51,18.95-10.51.08-18.35-8.23-18.19-19.3Zm11.43.95c1.37,5.11,4.78,4.5,6.75,4.3,1.99-.19,5.13-.38,5.56-4.65-.24-2.87-3.12-5.09-6.03-5.01-1.73.04-5.8.73-6.28,5.36Z"/>
  <path class="cls-1" d="m249.03,174.2c2.62,12.85-.51,15.91-12.57,13.14-3.01-.69-6.14-.85-9.2-1.32-2.92-.45-5.82-1-8.76-1.51,2.26-9.94,18.84-15.19,30.53-10.31Z"/>
</svg>