<?xml version="1.0" encoding="UTF-8"?>
<svg id="Layer_1" data-name="Layer 1" xmlns="http://www.w3.org/2000/svg" viewBox="0 0 250.55 227">
  <defs>
    <style>
      .cls-1 {
        stroke-width: 0px;
      }
    </style>
  </defs>
  <path class="cls-1" d="m125.3,134.82c25.32,0,50.63-.05,75.95.06,3.59.01,7.41.16,10.69,1.39,2.69,1.01,4.73,3.74,7.06,5.7-2.19,2.54-4.01,6.72-6.65,7.31-8.97,2.02-18.42,2.02-27.32,4.27-6.36,1.61-12.13,5.59-18.16,8.52,5.99,2.88,11.72,6.78,18.03,8.41,8.5,2.2,17.5,2.38,26.17,4.03,2.26.43,4.08,3.13,6.1,4.79-2.06,1.61-3.94,4.24-6.23,4.65-11.07,2-22.34,2.92-33.32,5.27-4.18.89-7.77,4.58-11.63,6.99,3.68,2.54,7.05,6.47,11.09,7.35,10.15,2.21,20.73,2.48,30.88,4.71,4.06.89,9.1,2.33,11.12,7.46,0,4.62-8.83,9.55-12.99,9.74-39.33,1.78-77.88.67-117.25,1.46-16.04.32-32.16-.53-48.14-1.99-4.09-.37-8.65-2.64-11.67-7.79,1.31-3.62,7.04-9.12,11.37-10.12,8.88-2.05,18.5-.78,27.49-2.54,5.45-1.06,10.29-5.23,15.4-8.01-4.86-2.74-9.42-6.67-14.64-7.95-8.93-2.18-18.4-2.1-27.37-4.15-4.1-.94-7.55-4.69-11.3-7.16,4.06-2.02,7.96-5.25,12.21-5.81,9.53-1.25,19.34-.49,28.82-1.92,4.38-.66,8.28-4.51,12.4-6.91-3.9-2.79-7.45-7.05-11.76-8.06-8.94-2.09-18.46-1.71-27.4-3.81-4.77-1.12-8.83-5.28-13.21-8.07,4.49-2.5,8.93-7.06,13.49-7.17,26.9-.68,53.83-.34,80.75-.34,0-.1,0-.2,0-.3Zm22.44,45.49c-.48-30.81,4.12-26.12-26.97-26.59-2.81-.04-5.63.18-8.42-.01-7.11-.48-10.27,2.55-10.07,9.83.29,10.43.32,20.87-.01,31.3-.25,7.84,3.07,11.05,10.77,10.35,3.18-.29,6.41,0,9.62-.04,28-.44,24.8,4.18,25.08-24.83Z"/>
  <path class="cls-1" d="m10.89,123.66c-3.52,1.91-7.94.27-9.33-3.49-1.13-3.06-1.92-5.59-1.38-7.8,1.04-4.26,5.09-8.14,8.59-11.37C42.96,69.35,77.38,37.93,111.6,6.3c8.95-8.28,17.31-8.48,26.31-.14,35.35,32.76,70.84,65.37,106.22,98.1,2.04,1.89,4.31,4.1,5.12,6.61,1.02,3.13,2.09,8.12.5,9.78-2.21,2.3-7.72,4.07-10.32,2.85-9.39-4.38-19.09-8.98-26.98-15.53-26.29-21.81-52.16-44.16-77.49-67.08-7.7-6.98-12.08-6.79-19.78-.02-27.17,23.87-54.91,47.13-82.92,70.01-5.83,4.77-12.8,8.15-21.37,12.79Z"/>
  <path class="cls-1" d="m132.02,61.54c21.04,18.3,42.09,36.6,63.13,54.9l-.85,2.27c-19.58-.03-39.18.21-58.75-.32-1.64-.04-4.44-4.54-4.51-7.03-.46-16.41-.17-32.84-.22-49.27l1.19-.54Z"/>
  <path class="cls-1" d="m53.14,116.25c18.66-15.6,37.12-31.44,56.09-46.65,5.38-4.31,8.92-8.84,8.9-2.87-.03,11.86-.82,38-1.08,48.86-.07,3.05-2.89,2.38-6.21,2.53-17.3.78-37.97.51-55.3.51-.8-.8-1.6-1.59-2.4-2.39Z"/>
</svg>