<?xml version="1.0" encoding="UTF-8"?>
<svg id="Layer_1" data-name="Layer 1" xmlns="http://www.w3.org/2000/svg" viewBox="0 0 251.97 169.18">
  <defs>
    <style>
      .cls-1, .cls-2 {
        stroke-width: 0px;
      }

      .cls-2 {
        opacity: .58;
      }
    </style>
  </defs>
  <path class="cls-2" d="m113.31,143.14H0v-25.19s28.09-10.23,33.24-11.82,9.01-3.47,9.86-6.41-1.1-11.57-1.24-13.05-2.8-3.45-4.22-11.14-3.27-20.82.06-30.48,7.64-14.84,18.91-14.84,14.6,4.7,18.22,12.63,2.53,26.03,1.14,31.26-3.78,10.19-5.31,11.88c-.63.69-1.25,12.45-1.25,13.88s2.92,5.79,7.79,7.38,36.03,12.61,36.03,12.61l.1,23.29Z"/>
  <path class="cls-2" d="m251.97,145.28h-113.31v-25.19s28.09-10.23,33.24-11.82,9.01-3.47,9.86-6.41-1.1-11.57-1.24-13.05-2.8-3.45-4.22-11.14-3.27-20.82.06-30.48,7.64-14.84,18.91-14.84,14.6,4.7,18.22,12.63c3.62,7.93,2.53,26.03,1.14,31.26s-3.78,10.19-5.31,11.88c-.63.69-1.25,12.45-1.25,13.88s2.92,5.79,7.79,7.38,36.03,12.61,36.03,12.61l.1,23.29Z"/>
  <path class="cls-1" d="m223.27,169.18H29.67v-37.74s48-15.33,56.79-17.7,15.4-5.2,16.85-9.61-1.88-17.33-2.11-19.54-4.78-5.17-7.22-16.68-5.6-31.19.1-45.67S107.14,0,126.38,0s24.95,7.04,31.13,18.92,4.32,39,1.94,46.84-6.45,15.27-9.07,17.8c-1.07,1.03-2.14,18.65-2.14,20.79s4.99,8.67,13.31,11.05,61.56,18.89,61.56,18.89l.17,34.89Z"/>
</svg>