<?xml version="1.0" encoding="UTF-8"?>
<svg id="Layer_1" data-name="Layer 1" xmlns="http://www.w3.org/2000/svg" viewBox="0 0 234.03 236.06">
  <defs>
    <style>
      .cls-1 {
        opacity: .4;
      }

      .cls-1, .cls-2 {
        stroke-width: 0px;
      }
    </style>
  </defs>
  <path class="cls-2" d="m211.65,178.2c-4.89-2.9-9.86-5.67-14.73-8.6-7.21-4.34-10.23-9.75-2.99-18.89,8.24,0,17.82,1.07,26.96-.44,4.77-.79,8.79-6.12,13.14-9.4-4.15-4.09-7.74-10.64-12.57-11.74-8.5-1.93-17.75-.54-26.69-.54-1.54-1.52-3.07-3.04-4.61-4.55,3.24-5.14,5.71-11.07,9.94-15.2,4.29-4.19,11.43-5.64,15.27-10.07,3.7-4.27,4.78-10.81,7.02-16.35-6.25-1.03-12.67-3.43-18.69-2.66-5.16.66-9.86,4.97-14.96,7.77-4.29-3.51-7.81-6.38-11.98-9.8-40.09,25.74-80.45,25.19-119.63-.02-4.71,3.81-8.22,6.65-11.97,9.68-6.08-3.29-11.21-7.68-16.92-8.66-5.13-.88-10.9,1.98-16.39,3.2,1.57,5.33,1.74,11.9,5.08,15.69,4.19,4.76,10.81,7.52,16.66,10.63,8.07,4.29,10.9,9.98,5.45,20.45-8.57,0-18.19-1.22-27.24.52-4.47.86-7.9,7.16-11.8,11,4.14,3.49,7.9,9.26,12.49,10.01,9.55,1.56,19.53.47,34.75.47-4.52,8.77-6.36,14.22-9.78,18.38-2.54,3.1-7.24,4.35-10.77,6.72-7.84,5.27-21.69,9.05-14.55,21.47,7.62,13.26,18.07,2.47,26.99-1.65,4.95-2.28,9.84-4.69,14.38-6.87,49.9,63.12,73.04,63.07,127.54-.09,6.22,3.21,12.9,6.42,19.35,10.03,7.38,4.13,15.7,8.42,21.25-.66,6.17-10.09-2.4-15.31-9.99-19.82Zm-129.91-31.77c-9.45,0-17.11-7.66-17.11-17.11s7.66-17.11,17.11-17.11,17.11,7.66,17.11,17.11-7.66,17.11-17.11,17.11Zm46.1,58.93c-13.91,0-25.19-11.28-25.19-25.19s11.28-25.19,25.19-25.19,25.19,11.28,25.19,25.19-11.28,25.19-25.19,25.19Z"/>
  <circle class="cls-1" cx="127.84" cy="180.18" r="25.19"/>
  <circle class="cls-1" cx="81.74" cy="129.33" r="17.11"/>
  <path class="cls-2" d="m60.49,67.86c5.61-7.67,10.81-14.79,15.6-21.34-.64-25.55-29.53-27.58-37.84-46.52,26.13.99,40.15,18.1,51.05,35.89h54.98C155.81,19.76,168.55,0,195.91.15c-8.46,18.79-37.47,20.72-37.94,46.41,4.77,6.53,9.97,13.65,15.01,20.55-25.85,26.93-80.22,27.59-112.49.74Z"/>
</svg>