<?xml version="1.0" encoding="UTF-8"?>
<svg id="Layer_1" data-name="Layer 1" xmlns="http://www.w3.org/2000/svg" viewBox="0 0 147.96 251.86">
  <defs>
    <style>
      .cls-1 {
        stroke-width: 0px;
      }

      .cls-2 {
        opacity: .46;
        stroke: #231f20;
        stroke-miterlimit: 10;
      }
    </style>
  </defs>
  <path class="cls-1" d="m.02,125.25c0-34.98-.05-69.96.02-104.94C.07,4.78,4.71.08,20.08.05,56.21-.02,92.35-.02,128.48.06c14.51.03,19.43,5,19.44,19.68.06,70.74.06,141.47,0,212.21-.01,14.62-5.06,19.78-19.45,19.82-36.52.1-73.04.11-109.56-.01-13.5-.05-18.81-5.53-18.85-19.24-.1-35.76-.03-71.51-.03-107.27Zm72.8-16.98c12.82,0,25.64.16,38.45-.04,12.61-.2,18.74-6.05,18.91-18.42.25-17.87.24-35.75,0-53.62-.17-12.26-6.42-18.35-18.91-18.45-24.86-.19-49.72-.19-74.57,0-12.5.1-18.74,6.19-18.9,18.45-.24,17.87-.25,35.75,0,53.62.17,12.35,6.31,18.22,18.91,18.43,12.04.2,24.08.04,36.12.04Zm55.19,71.98c.46-28.7-22.98-52.76-52.03-53.4-30.3-.67-55.39,21.99-56,50.58-.65,30.27,23.63,55.37,53.77,55.59,29.08.21,53.8-23.82,54.26-52.77Z"/>
  <path class="cls-2" d="m128,180.25c-.47,28.95-25.18,52.98-54.26,52.77-30.14-.22-54.42-25.32-53.77-55.59.62-28.59,25.7-51.25,56-50.58,29.05.64,52.49,24.71,52.03,53.4Zm-32.1-.93c-.25-11.76-9.82-20.92-21.88-20.96-12.47-.04-22.21,9.74-21.96,22.03.24,12.03,9.43,20.75,21.87,20.77,12.9.02,22.24-9.26,21.97-21.84Z"/>
  <path class="cls-1" d="m95.91,179.33c.27,12.58-9.07,21.87-21.97,21.84-12.45-.02-21.63-8.74-21.87-20.77-.25-12.3,9.49-22.07,21.96-22.03,12.06.04,21.63,9.2,21.88,20.96Z"/>
</svg>