<?xml version="1.0" encoding="UTF-8"?>
<svg id="Layer_1" data-name="Layer 1" xmlns="http://www.w3.org/2000/svg" viewBox="0 0 190.23 246.67">
  <defs>
    <style>
      .cls-1, .cls-2 {
        stroke-width: 0px;
      }

      .cls-2 {
        opacity: .06;
      }
    </style>
  </defs>
  <path class="cls-1" d="m98.41,0C29.01,0,0,61.16,0,97.84s5.54,84.55,20.21,104.45c13.24,17.97,31.38,44.38,73.25,44.38,46.54,0,64.78-22.72,80.48-50.22,15.7-27.5,16.29-44.72,16.29-100.18S136.3,0,98.41,0Zm-32.87,42.69c4.99,0,9.03,4.04,9.03,9.03s-4.04,9.03-9.03,9.03-9.03-4.04-9.03-9.03,4.04-9.03,9.03-9.03Zm9.37,114.31c0,4.99-4.04,9.03-9.03,9.03s-9.03-4.04-9.03-9.03,4.04-9.03,9.03-9.03,9.03,4.04,9.03,9.03Zm-47.33-46.85c0-10.86,10.52-19.67,23.49-19.67s23.49,8.81,23.49,19.67-10.52,19.67-23.49,19.67-23.49-8.81-23.49-19.67Zm38.3,65.66c4.99,0,9.03,4.04,9.03,9.03s-4.04,9.03-9.03,9.03-9.03-4.04-9.03-9.03,4.04-9.03,9.03-9.03Zm.4,45.89c-4.99,0-9.03-4.04-9.03-9.03s4.04-9.03,9.03-9.03,9.03,4.04,9.03,9.03-4.04,9.03-9.03,9.03ZM123.6,42.69c4.99,0,9.03,4.04,9.03,9.03s-4.04,9.03-9.03,9.03-9.03-4.04-9.03-9.03,4.04-9.03,9.03-9.03Zm.35,133.11c4.99,0,9.03,4.04,9.03,9.03s-4.04,9.03-9.03,9.03-9.03-4.04-9.03-9.03,4.04-9.03,9.03-9.03Zm-9.03-18.8c0-4.99,4.04-9.03,9.03-9.03s9.03,4.04,9.03,9.03-4.04,9.03-9.03,9.03-9.03-4.04-9.03-9.03Zm9.43,64.69c-4.99,0-9.03-4.04-9.03-9.03s4.04-9.03,9.03-9.03,9.03,4.04,9.03,9.03-4.04,9.03-9.03,9.03Zm13.72-91.87c-12.97,0-23.49-8.81-23.49-19.67s10.52-19.67,23.49-19.67,23.49,8.81,23.49,19.67-10.52,19.67-23.49,19.67Z"/>
  <circle class="cls-2" cx="124.34" cy="212.67" r="9.03" transform="translate(-113.96 150.21) rotate(-45)"/>
  <circle class="cls-2" cx="66.29" cy="212.67" r="9.03"/>
  <circle class="cls-2" cx="123.94" cy="184.84" r="9.03"/>
  <circle class="cls-2" cx="65.89" cy="184.84" r="9.03" transform="translate(-130.09 174.98) rotate(-67.5)"/>
  <circle class="cls-2" cx="65.89" cy="157.01" r="9.03" transform="translate(-91.72 92.58) rotate(-45)"/>
  <circle class="cls-2" cx="123.94" cy="157.01" r="9.03"/>
  <circle class="cls-2" cx="65.54" cy="51.72" r="9.03" transform="translate(-17.38 61.5) rotate(-45)"/>
  <circle class="cls-2" cx="123.6" cy="51.72" r="9.03"/>
  <ellipse class="cls-2" cx="138.06" cy="110.15" rx="23.49" ry="19.67"/>
  <ellipse class="cls-2" cx="51.08" cy="110.15" rx="23.49" ry="19.67"/>
</svg>