<?xml version="1.0" encoding="UTF-8"?>
<svg id="Layer_1" data-name="Layer 1" xmlns="http://www.w3.org/2000/svg" viewBox="0 0 115.24 251.58">
  <defs>
    <style>
      .cls-1 {
        stroke-width: 0px;
      }
    </style>
  </defs>
  <path class="cls-1" d="m70.8,213.25c-1.84.09-3.83.19-6.09.3-3.44.17-6.14,3.01-6.14,6.45,0,4.89,0,9.4,0,13.91-.04,10.26-2.93,18.05-15.29,17.66-11.65-.36-13.98-8.07-13.98-17.65,0-44.04,0-88.09-.01-132.13,0-3.76,0-7.53,0-10.88,0-2.12-1.05-4.1-2.8-5.31C-2.57,65.49-2.03,51.04,1.98,30.25,5.35,12.78,24.23.17,42.49,0c20.33-.19,37.6,10.38,42.7,28.87,5.4,19.56,5.02,36.79-22.97,56.34-1.73,1.21-2.76,3.18-2.76,5.29v66.96c0,3.41,2.65,6.23,6.05,6.44,1.64.1,3.22.2,4.74.3,2,.12,3.94-.7,5.26-2.21,9.44-10.71,21.29-7.15,33.19-6.88,3.52.08,6.35,2.89,6.35,6.41v5.94c0,3.2-2.34,5.91-5.5,6.38-2.04.3-4.09.61-6.21.92-3.16.47-5.51,3.18-5.51,6.38v15.09c0,3.18,2.32,5.88,5.46,6.37,2.15.34,4.29.67,6.48,1.01,3.14.49,5.46,3.2,5.46,6.37v5.27c0,2.88-1.9,5.43-4.68,6.21-13.56,3.78-26.11,1.59-35.08-6.51-1.28-1.16-2.95-1.79-4.67-1.7Zm-15.2-164.26c3.2-2.48,3.35-7.27.31-9.94-4.87-4.29-8.36-7.69-11.18-7.21-5,.85-11.62,7.2-12.52,12.11-.63,3.46,6.9,11.67,11.13,11.91,3.5.2,7.2-2.93,12.26-6.86Z"/>
</svg>