<?xml version="1.0" encoding="UTF-8"?>
<svg id="Layer_1" data-name="Layer 1" xmlns="http://www.w3.org/2000/svg" viewBox="0 0 244.11 243.59">
  <defs>
    <style>
      .cls-1, .cls-2 {
        stroke-width: 0px;
      }

      .cls-2 {
        opacity: .67;
      }
    </style>
  </defs>
  <path class="cls-1" d="m64.36,121.84c-.11-13.19.74-23.55,3.05-31.64L27.25,50.03c-4.13,3.65-8.14,7.35-10.77,11.89-25.33,43.65-21.01,90.55,9.96,128.78l40.56-40.56c-1.75-7.48-2.53-16.78-2.62-28.3Z"/>
  <path class="cls-1" d="m122.55,179.43c-13,0-23.29-.78-31.37-3l-40.58,40.58c3.28,3.79,6.68,7.33,10.8,9.64,38.66,21.73,78.6,22.79,117.87,1.82,5.37-2.87,9.82-7.45,14.16-12.25l-40.17-40.17c-7.7,2.43-17.66,3.39-30.7,3.39Z"/>
  <path class="cls-2" d="m66.99,150.14l-40.56,40.56c4.25,5.25,9,10.34,14.25,15.24,3.56,3.32,6.68,7.32,9.92,11.07l40.58-40.58c-13.41-3.69-20.72-11.39-24.2-26.29Z"/>
  <path class="cls-1" d="m185.3,17.68C157.03-1.22,125.22-3.01,92.6,3.23c-15.95,3.05-28.91,10.5-40.14,20.68l42.04,42.04c7.37-1.63,16.37-2.32,27.34-2.38,12.1-.06,21.56.72,29.03,2.69l41.84-41.84c-2.26-2.56-4.66-4.9-7.41-6.73Z"/>
  <path class="cls-1" d="m240.32,91.97c-4.15-16.02-9.94-30.9-22.37-42.31l-41.97,41.97c2.38,7.77,3.91,17.48,5.3,29.52-1.17,10.84-2.49,19.79-4.42,27.16l42.64,42.64c3.14-3.09,6.04-6.34,8.41-9.93,11.67-17.68,17.02-37.89,16.09-59.59-1.15-9.84-1.23-19.96-3.69-29.46Z"/>
  <path class="cls-2" d="m210.43,43.76c-7.06-4.73-11.9-12.76-17.72-19.34l-41.84,41.84c13.8,3.64,20.82,11.35,25.11,25.38l41.97-41.97c-2.27-2.09-4.77-4.06-7.52-5.9Z"/>
  <path class="cls-2" d="m153.25,176.04l40.17,40.17c2.96-3.28,5.86-6.67,8.96-9.69,5.48-5.34,11.67-10.21,17.12-15.57l-42.64-42.64c-3.95,15.15-10.47,23.58-23.61,27.73Z"/>
  <path class="cls-2" d="m94.5,65.95L52.46,23.91c-5.25,4.76-10.13,10.11-14.75,15.89-3,3.75-6.78,6.98-10.46,10.23l40.17,40.17c3.94-13.77,12.15-20.95,27.09-24.25Z"/>
</svg>