<?xml version="1.0" encoding="UTF-8"?>
<svg id="Layer_1" data-name="Layer 1" xmlns="http://www.w3.org/2000/svg" viewBox="0 0 203.31 245.54">
  <defs>
    <style>
      .cls-1 {
        stroke-width: 0px;
      }
    </style>
  </defs>
  <path class="cls-1" d="m203.31,245.54H0V103.32c9.84-.49,18.83-.93,29.76-1.48,0-11.42-.26-21.88.06-32.32.65-21.16,7.92-39.57,23.85-53.98C64.28,5.96,76.74.57,91.19.29c4.14-.08,8.31.22,12.43-.08,44-3.3,69.57,34.63,70.07,68.96.15,10.49.02,20.98.02,32.69,10.64.53,19.62.99,29.6,1.49v142.21Zm-62.01-143.89c0-13.23.8-24.72-.18-36.05-1.61-18.63-11.58-29.19-29.67-33.41-19.04-4.43-40.27,4.96-46.18,21.21-5.6,15.41-4.53,31.39-3.53,48.24h79.56Zm-30.33,112.58c.28-6.21.74-11.14.68-16.07-.1-8.78.45-16.88,6.05-24.72,5.74-8.03,3.4-17.36-3.6-23.5-6.71-5.88-17.19-6.09-24.15-.48-6.88,5.55-9.85,15.79-4.36,23.46,6.24,8.72,6.15,17.85,6.22,27.46.03,4.41.6,8.81.97,13.84h18.19Z"/>
</svg>