<?xml version="1.0" encoding="UTF-8"?>
<svg id="Layer_1" data-name="Layer 1" xmlns="http://www.w3.org/2000/svg" viewBox="0 0 252.69 167.67">
  <defs>
    <style>
      .cls-1 {
        stroke-width: 0px;
      }
    </style>
  </defs>
  <path class="cls-1" d="m96.04,85.77c8.2,6.46,18.59,14.65,30.24,23.82,11.5-8.93,22.26-17.28,31.8-24.68,27.87,28.43,54.98,56.09,81.14,82.77H14.13c25.84-25.84,53.1-53.1,81.91-81.9Z"/>
  <path class="cls-1" d="m12.02,0h234.18c-41.41,34.54-79.55,66.35-119.68,99.82C87.27,67.17,48.75,35.12,10.24,3.08c.59-1.03,1.19-2.05,1.78-3.08Z"/>
  <path class="cls-1" d="m82.49,74.11C54.02,102.57,27.06,129.52,0,156.57V5.31c29.9,24.94,56.9,47.45,82.49,68.8Z"/>
  <path class="cls-1" d="m252.69,5.42v150.65c-26.46-26.79-53.21-53.88-81.58-82.61,24.95-20.81,52.01-43.38,81.58-68.04Z"/>
</svg>