<?xml version="1.0" encoding="UTF-8"?>
<svg id="Layer_1" data-name="Layer 1" xmlns="http://www.w3.org/2000/svg" viewBox="0 0 129.62 245.16">
  <defs>
    <style>
      .cls-1 {
        stroke-width: 0px;
      }
    </style>
  </defs>
  <path class="cls-1" d="m20.49,140.01H4.21c0-19.98-.07-39.09.11-58.2.02-1.83,1.22-4,2.52-5.42,12.13-13.23,24.4-26.34,37.3-40.21,13.21,6.45,26.03,11.88,37.83,19.01,3.33,2.01,5.75,9.35,5.02,13.63-3.66,21.33,5.34,34.8,23.79,44.04,6.4,3.2,11.86,8.27,18.84,13.26-3.93,5.09-7,9.07-10.84,14.04-11.94-7.75-22.98-14.92-34.03-22.09-1.15.84-2.3,1.68-3.46,2.53,1.67,5.42,1.8,12.23,5.25,16.02,26.03,28.66,34.9,64.1,41.32,100.65.35,1.98.25,4.03.41,7h-19.65c-9.45-22.39-17.81-43.9-27.68-64.69-3.49-7.35-10.66-12.96-18.09-21.64-15.69,30.46-30.18,58.6-44.93,87.22-5.89-.49-11-.92-17.93-1.5,1.06-5,1.36-8.88,2.69-12.37,10.19-26.8,20.4-53.59,30.95-80.25,8.97-22.68,3.03-45.76,2.56-68.96-24.09,13.87-7.49,38.03-15.71,57.92Z"/>
  <path class="cls-1" d="m79.33,0c13.2-.12,21.95,8.18,21.83,20.7-.11,11.89-8.87,20.74-20.76,20.98-11.93.25-21.55-8.51-21.86-19.9C58.19,9.05,66.71.11,79.33,0Z"/>
</svg>