<?xml version="1.0" encoding="UTF-8"?>
<svg id="Layer_1" data-name="Layer 1" xmlns="http://www.w3.org/2000/svg" viewBox="0 0 129.92 253.85">
  <defs>
    <style>
      .cls-1 {
        stroke-width: 0px;
      }
    </style>
  </defs>
  <path class="cls-1" d="m77.73,129.68v98.56c5.56,3.72,11.07,7.41,16.62,11.13-19.98,18.94-29.81,19.25-62.26,1.32,5.88-3.8,11.24-7.26,17.58-11.36v-101.83c-21.2-6.44-40.03-18.84-46.63-41.51-3.78-12.99-3.99-28.55-.82-41.74C7.62,21.75,31.56-1.05,66.95.04c25.36.78,51.35,18.26,59.45,45.04,10.67,35.31-2.13,56.75-48.66,84.6ZM49.14,27.22c-14.07,2.11-21,7.93-21.74,23.27,5.57,3.99,12.28,8.79,20.1,14.4,6.53-7.34,11.19-12.58,17.52-19.7-6.17-6.97-11.37-12.86-15.89-17.97Z"/>
</svg>