<?xml version="1.0" encoding="UTF-8"?>
<svg id="Layer_1" data-name="Layer 1" xmlns="http://www.w3.org/2000/svg" viewBox="0 0 150.26 244.8">
  <defs>
    <style>
      .cls-1, .cls-2 {
        stroke-width: 0px;
      }

      .cls-2 {
        fill: #fff;
      }
    </style>
  </defs>
  <path class="cls-1" d="m74.43,244.8c-9.78-19.43-18.49-36.5-26.98-53.67-13.22-26.76-26.38-53.54-39.39-80.4C-11.95,69.39,6.7,20.62,48.35,5.04c42.56-15.92,89.32,7.1,99.85,51.83,3.53,15,2.59,33.85-3.49,47.81-19.45,44.66-42.26,87.86-63.85,131.58-1.06,2.14-2.9,3.9-6.43,8.55Zm37.62-168.74c-.17-20.12-17.1-36.5-37.35-36.13-19.69.36-35.65,16.73-35.58,36.51.07,19.93,17.31,36.77,37.21,36.35,19.17-.41,35.89-17.59,35.73-36.73Z"/>
  <path class="cls-2" d="m112.06,76.06c.16,19.13-16.56,36.32-35.73,36.73-19.9.42-37.14-16.42-37.21-36.35-.07-19.78,15.89-36.15,35.58-36.51,20.25-.37,37.19,16.01,37.35,36.13Z"/>
</svg>