<?xml version="1.0" encoding="UTF-8"?>
<svg id="Layer_1" data-name="Layer 1" xmlns="http://www.w3.org/2000/svg" viewBox="0 0 242.36 198.16">
  <defs>
    <style>
      .cls-1 {
        stroke-width: 0px;
      }
    </style>
  </defs>
  <path class="cls-1" d="m157.92,27.9v92.9c-5.64-1.32-10.26-4.46-16.04-5.82-.35,3.42-.62,4.7-.39,6.44,0,0,11.43,5.57,16.5,7.94v68.48c-15.32-5.55-29.57-10.7-43.81-15.88-2.36-.86-4.64-1.92-6.99-2.79-24.4-9-24.03-8.99-23.86-34.17.29-42.68.07-85.36.06-128.04,0-4.83,0-9.67,0-16.97,26.39,9.88,50.05,18.74,74.53,27.9Zm-27.67,90.83c-.8-2.23-1.6-4.46-2.4-6.69-5.01,1.92-10.02,3.84-15.04,5.76.75,2.01,1.51,4.02,2.26,6.03,5.06-1.7,10.12-3.4,15.18-5.1Zm-25.92,9.48c-1.12-1.88-2.25-3.76-3.37-5.64-4.7,2.79-9.39,5.58-14.09,8.37,1.16,1.94,2.31,3.88,3.47,5.81,4.66-2.85,9.32-5.7,13.98-8.55Z"/>
  <path class="cls-1" d="m73.49.33v133.59c-3.44,3.1-7.31,6.58-12.46,11.21,1.77.86,4.53,3.04,4.53,3.04,3.56-1.84,7.61-4.12,8.19-4.39v26.74c-24.37,9.13-48.37,18.13-73.75,27.64V28C23.91,18.99,47.89,9.97,73.49.33Zm-22.39,78.4c0-1.72.18-5.64.18-5.64,0,0-16.56-.31-17.6-.31-.22,0,.12,4.63-.13,5.95h17.55Zm-28.59,2.78c-.92-2.23-1.83-4.45-2.75-6.68-4.93,2.09-9.87,4.19-14.8,6.28.8,1.96,1.6,3.93,2.41,5.89,5.05-1.83,10.1-3.67,15.15-5.5Zm30.28,21.6c1.61-.07,5.07-.13,6.68-.2v-19.32c-.26,0-5.9,2.72-5.9,2.72.06,1.47-.83,12.92-.78,16.8Zm-16.84,20.34c1.88,1.56,3.77,3.12,5.65,4.69,3.22-4.3,6.43-8.59,9.65-12.89-1.64-1.33-3.28-2.66-4.92-3.99-3.46,4.06-6.92,8.13-10.38,12.19Zm13.44,27.51c1.13-1.26,2.27-2.53,3.4-3.79-3.92-3.53-7.84-7.06-11.76-10.6-1.13,1.16-2.27,2.32-3.4,3.48,4.24,5.18,8.46,8.92,11.77,10.9Z"/>
  <path class="cls-1" d="m242.36.22v170.28c-23.67,8.93-47.63,17.97-73.29,27.66v-58.09c.74-.17,8.12,3.39,8.12,3.39,1.16-3.12,2.03-5.97,1.23-6.68-6.54-6.36-10.63-8.88-10.63-9.36.28-28.39.11-69.85.11-99.05C192.67,18.99,216.39,10.03,242.36.22Zm-61.49,55.82c-.55,1.47-1.1,2.95-1.65,4.42,5.26,3.82,12.47,6.96,17.57,10.66-1.72,5.81-5.21,11.69-6.75,16.89,1.38.98,2.77,1.96,4.15,2.95,4.64-4.78,7.44-11.24,11.74-15.68,5.9.72,13.32,3.06,18.89,3.74.99-1.76,1.98-3.53,2.97-5.29-4.62-2.63-12.98-5.09-16.75-7.24,1.81-6.68,6.87-11.73,8.19-16.59-1.16-.88-2.32-1.76-3.48-2.64-4.82,4.13-9.09,11.11-13.86,15.2-6.87-1.2-14.22-5.22-21.03-6.41Zm8.38,89.37c-.96,2.33-1.91,4.65-2.87,6.97,5.26,1.92,10.53,3.84,15.79,5.76.79-2.03,1.59-4.06,2.38-6.08-5.1-2.22-10.2-4.43-15.3-6.65Zm19.83-51.36c2.66,4.54,5.31,9.08,8.61,14.71,1.75-1.54,4.91-4.43,4.69-4.84-.31-.58-7.56-11.04-7.84-11.41,0,0-2.76.71-5.45,1.53Zm16.5,38.72c2.44-.42,4.87-.83,7.31-1.25-1.21-5.22-2.41-10.44-3.62-15.67l-6.39,1.25c.9,5.22,1.8,10.45,2.7,15.67Zm-11.48,20.48c1.63,1.46,3.27,2.91,4.9,4.37,3.59-3.95,7.18-7.9,10.76-11.85-1.65-1.47-3.3-2.94-4.95-4.41-3.57,3.96-7.14,7.93-10.71,11.89Z"/>
</svg>