<?xml version="1.0" encoding="UTF-8"?>
<svg id="Layer_1" data-name="Layer 1" xmlns="http://www.w3.org/2000/svg" viewBox="0 0 245.51 192.27">
  <defs>
    <style>
      .cls-1 {
        stroke-width: 0px;
      }
    </style>
  </defs>
  <path class="cls-1" d="m74.73,0h55.83c.54,1.14-.34,6.23.2,7.36-4.81.18-5.16.33-8.52.47-13.1.52-26.23.21-40.15.21-.6,7.01-2.14,13.38-2.75,20.44,10.06.63,20.41.1,32.1.18-5.54,54.3-11,108.6-16.52,162.72H17.15C11.51,137.87,5.87,84.43,0,28.73h69.66c1.86-10.56,3.4-19.26,5.06-28.73Zm-13.41,98.28c2.64-20.09,5.24-39.85,8-60.77H6.86c2.31,21.05,4.48,40.84,6.66,60.77h47.79Zm43.8-60.82h-26.82c-2.37,20.33-4.65,39.86-7.06,60.51h27.23c2.2-20.06,4.33-39.36,6.65-60.51Z"/>
  <path class="cls-1" d="m233.27,134.99c6.44,0,11.72,5.15,11.85,11.59.09,4.31,0,8.44-.75,12.44-.53,2.83-6.39,6.6-9.87,6.65-34.79.49-69.59.56-104.37-.13-3.45-.07-8.96-5.53-9.7-9.24-.67-3.37-.58-6.89-.28-10.53.51-6.11,5.67-10.78,11.8-10.78h101.32Z"/>
  <path class="cls-1" d="m245.51,176.52c-.83,10.4-6.02,15.51-15.14,15.59-31.71.26-63.42.15-95.13.1-9.39-.02-14.35-5.08-16.12-15.68h126.39Z"/>
  <path class="cls-1" d="m119.76,124.42c-.55-10.77,4.43-15.96,13.13-16.06,33.24-.38,66.49-.46,99.72.08,8.58.14,13.45,5.83,12.43,15.98h-125.29Z"/>
</svg>