<?xml version="1.0" encoding="UTF-8"?>
<svg id="Layer_1" data-name="Layer 1" xmlns="http://www.w3.org/2000/svg" viewBox="0 0 232.25 232.02">
  <defs>
    <style>
      .cls-1, .cls-2 {
        stroke-width: 0px;
      }

      .cls-2 {
        fill: #fff;
      }
    </style>
  </defs>
  <path class="cls-1" d="m115.18,231.95c-24.88,0-49.76.15-74.64-.04-22.92-.17-40.24-16.96-40.35-39.68-.26-50.72-.24-101.44,0-152.15C.29,17.21,17.45.22,40.3.14c50.7-.18,101.4-.19,152.1,0,22.02.09,39.5,17.11,39.63,38.97.3,51.19.29,102.38,0,153.56-.12,21.97-17.48,39-39.39,39.21-25.82.25-51.64.06-77.46.06Zm-20.05-136.94h-51.27v42.26h51.58v50.68h41.84v-51.18h51.24v-41.78h-51.93v-51.39h-41.47v51.4Z"/>
  <path class="cls-2" d="m95.13,95.02v-51.4h41.47v51.39h51.93v41.78h-51.24v51.18h-41.84v-50.68h-51.58v-42.26h51.27Z"/>
</svg>