<?xml version="1.0" encoding="UTF-8"?>
<svg id="Layer_1" data-name="Layer 1" xmlns="http://www.w3.org/2000/svg" viewBox="0 0 246.61 243.97">
  <defs>
    <style>
      .cls-1 {
        stroke-width: 0px;
      }
    </style>
  </defs>
  <path class="cls-1" d="m200.72,116.1c-25.49,25.77-52.52,53.11-78.93,79.81-25.31-25.35-46.72-46.79-67.03-67.13,26.32-26.37,53.47-53.57,80.56-80.72,19.63,20.42,40.87,42.52,65.4,68.03Zm-56.24,33.55c3.65-5.39,7.2-8.41,7.31-11.55.09-2.37-4.65-7.19-6.48-6.85-3.15.58-7.62,4.08-8.01,6.84-.38,2.76,3.57,6.12,7.17,11.56Zm29.64-30.38c-5.15-3.37-8.47-7.24-11.22-6.87-2.8.37-7.06,5.02-6.95,7.63.11,2.61,4.76,6.84,7.59,6.99,2.76.14,5.75-3.98,10.58-7.75Zm-86.62-10.71c-3.25,5.53-6.64,8.77-6.51,11.87.1,2.48,5.19,7.12,6.85,6.64,3.2-.93,7.42-4.64,7.69-7.52.25-2.72-4.03-5.86-8.02-11Zm30.83-8.07c-5.64-3.46-8.79-6.89-11.82-6.79-2.51.08-7.26,4.97-6.81,6.58.88,3.2,4.38,7.4,7.29,7.82,2.62.38,5.9-3.73,11.35-7.62Zm18.2,18.75c-5.12-3.37-8.48-7.3-11.21-6.91-2.82.4-7.04,5.09-6.95,7.77.09,2.59,4.82,6.84,7.67,6.98,2.76.13,5.72-4.05,10.49-7.84Zm-10.98,27.12c-3.53,4.92-7.58,8.11-7.29,10.85.31,2.9,4.73,5.36,7.36,8.01,2.67-2.65,7.19-5.11,7.48-8.01.28-2.73-3.89-5.91-7.55-10.86Zm-7.55-7.94c-5.1-3.6-8.22-7.51-10.86-7.21-2.87.33-5.3,4.56-7.92,7.08,2.56,2.64,4.89,7.03,7.74,7.4,2.63.34,5.83-3.62,11.04-7.28Zm37.73-37.16c-5.27-3.81-8.17-7.5-11.22-7.62-2.5-.1-7.56,4.47-7.25,6.2.58,3.22,3.89,7.67,6.75,8.25,2.62.53,6.14-3.36,11.72-6.83Zm-18.97-19.71c-5.52-3.34-9.1-7.2-11.78-6.65-2.75.56-5.96,5.27-6.35,8.48-.23,1.88,4.82,6.36,7.17,6.14,3.1-.29,5.88-4.04,10.96-7.96Z"/>
  <path class="cls-1" d="m42.89,134.52c23.43,23.44,44.61,44.63,66.05,66.07-7.4,20.45-40.17,45.15-60.57,43.27-23.02-2.12-36.26-19.32-44.94-37.66-7.34-15.5-2.59-31.78,11.43-44.15,9.89-8.73,18.88-18.48,28.04-27.54Z"/>
  <path class="cls-1" d="m210.92,107.8c-25.82-26.04-47.19-47.59-68.82-69.4C151.04,17.85,177.13-1.13,197.43.05c23.53,1.38,36.38,19.11,45.38,36.9,7.84,15.49,3.3,32.29-11.12,45.3-7.93,7.16-13.71,16.7-20.77,25.55Z"/>
</svg>