<?xml version="1.0" encoding="UTF-8"?>
<svg id="Layer_1" data-name="Layer 1" xmlns="http://www.w3.org/2000/svg" viewBox="0 0 250.5 207.79">
  <defs>
    <style>
      .cls-1 {
        stroke-width: 0px;
      }
    </style>
  </defs>
  <path class="cls-1" d="m49.25,62.53C62.08,16.95,85.03-.28,130.13,0c35.66.23,59.67,20.81,70.88,62.59,9.46,0,19.62-.36,29.75.1,11.24.51,19.36,6.27,19.5,17.96.46,39.85.14,79.72-.02,119.57,0,2.21-1.21,4.42-2.13,7.57H1.61c-.59-4.94-1.49-8.98-1.5-13.02C0,158.2-.07,121.62.1,85.04c.07-15.49,6.7-22.04,22.22-22.47,8.83-.24,17.67-.04,26.93-.04Zm56.43,22.2c-.74,10.42-1.38,19.53-2.09,29.5-10.22.7-19.27,1.32-28.99,1.99v39.24c10.09.76,19.13,1.43,28.9,2.16.84,10.32,1.57,19.37,2.33,28.7h38.75c.92-10.31,1.73-19.34,2.56-28.67,10.57-.89,19.64-1.65,28.78-2.41v-39.08c-10.3-.72-19.38-1.35-29.1-2.02-.8-10.43-1.49-19.52-2.24-29.4h-38.91.01Zm69.44-23.39c-1.06-25.61-29.38-40.85-54.9-38.83-25.04,1.98-43.14,17.19-44.44,38.83h99.34Z"/>
</svg>