<?xml version="1.0" encoding="UTF-8"?>
<svg id="Layer_1" data-name="Layer 1" xmlns="http://www.w3.org/2000/svg" viewBox="0 0 123.89 246.87">
  <defs>
    <style>
      .cls-1 {
        stroke-width: 0px;
      }
    </style>
  </defs>
  <path class="cls-1" d="m73.06,197.14v26.12c16.03,6.21,33.42-1.48,49.51,5.7v14.43c-11.15,4.07-104.45,4.82-120.72.96-.33-4.58-.69-9.66-1.07-15.01,16.6-7.43,33.37-.42,49.76-5.5v-26.46c-4.35-1.82-8.95-3.75-13.55-5.66C13.09,181.81,1.2,163.45.31,138.06c-.61-17.4-.12-34.85-.12-53.73,7.05-.56,12.08-.95,18.43-1.45,1.04,6.33,2.37,11.13,2.51,15.97.34,12-.84,24.11.35,36,2.36,23.5,15.62,38.82,39.84,39.24,24.11.42,39.22-15.57,41.26-39.32.99-11.46.03-23.08.27-34.62.11-4.94,1.04-9.86,1.75-16.17h17.57c.61,5.15,1.5,9.56,1.58,13.98.21,11.54.1,23.09.07,34.64-.07,31.75-13.3,50.59-43.3,61.7-2.12.78-4.22,1.61-7.48,2.85Z"/>
  <path class="cls-1" d="m92.68,81.69H30.92c0-11.26-.02-21.65,0-32.04.02-7.83-.39-15.71.25-23.49C32.33,12.14,44.73.66,58.61.05c17.49-.78,32.55,8.53,33.72,23.49,1.46,18.69.35,37.57.35,58.15Z"/>
  <path class="cls-1" d="m92.9,92.81c0,17.18.82,32.36-.24,47.4-.95,13.45-15.8,24.37-30.64,24.37-14.82,0-29.71-10.93-30.66-24.35-1.06-15.05-.24-30.23-.24-46.52,20.6-2.81,40.08-1.46,61.78-.9Z"/>
</svg>