<?xml version="1.0" encoding="UTF-8"?>
<svg id="Layer_1" data-name="Layer 1" xmlns="http://www.w3.org/2000/svg" viewBox="0 0 191.3 238.98">
  <defs>
    <style>
      .cls-1, .cls-2 {
        stroke-width: 0px;
      }

      .cls-2 {
        isolation: isolate;
        opacity: .1;
      }
    </style>
  </defs>
  <path class="cls-1" d="m135.03,93.28c-.64-21.21-18.02-38.21-39.39-38.21s-39.28,17.52-39.41,39.18l-8.63,144.73h96.12l-8.69-145.7Zm-22.31,111.64c0,1.88-1.52,3.4-3.4,3.4h-27.37c-1.88,0-3.4-1.52-3.4-3.4v-30.36c0-9.49,7.69-17.18,17.18-17.18h0c9.38,0,16.98,7.6,16.98,16.98v30.56h0Z"/>
  <path class="cls-2" d="m95.74,157.38h0c-9.49,0-17.18,7.69-17.18,17.18v30.36c0,1.88,1.52,3.4,3.4,3.4h27.37c1.88,0,3.4-1.52,3.4-3.4v-30.56c0-9.38-7.6-16.98-16.98-16.98h0Z"/>
  <path class="cls-1" d="m191.3,22.88L168.52.1l-72.92,84.85L22.87,0,.1,22.77l84.73,72.82L0,168.23l22.77,22.77,72.73-84.63,72.72,84.94,22.77-22.77-84.75-72.83S191.3,22.88,191.3,22.88Zm-95.65,72.68h0Z"/>
</svg>