<?xml version="1.0" encoding="UTF-8"?>
<svg id="Layer_1" data-name="Layer 1" xmlns="http://www.w3.org/2000/svg" viewBox="0 0 215.78 246.88">
  <defs>
    <style>
      .cls-1, .cls-2 {
        stroke-width: 0px;
      }

      .cls-2 {
        opacity: .52;
      }
    </style>
  </defs>
  <rect class="cls-1" x="16.73" y="19.94" width="8.91" height="23.92"/>
  <rect class="cls-1" x="16.73" width="8.91" height="9.17"/>
  <path class="cls-1" d="m0,40.41v81.27h42.37V40.41H0Zm34.94,74.08H7.43V47.59h27.51v66.89Z"/>
  <rect class="cls-2" x="7.43" y="47.59" width="27.51" height="66.89"/>
  <path class="cls-1" d="m58.1,99.1v81.27h42.37v-81.27h-42.37Zm34.94,74.08h-27.51v-66.89h27.51v66.89Z"/>
  <rect class="cls-2" x="65.53" y="106.29" width="27.51" height="66.89"/>
  <path class="cls-1" d="m116.2,125v81.27h42.37v-81.27h-42.37Zm34.94,74.08h-27.51v-66.89h27.51v66.89Z"/>
  <rect class="cls-2" x="123.63" y="132.19" width="27.51" height="66.89"/>
  <path class="cls-1" d="m173.41,43.86v81.27h42.37V43.86h-42.37Zm34.94,74.08h-27.51V51.05h27.51v66.89Z"/>
  <rect class="cls-2" x="180.84" y="51.05" width="27.51" height="66.89"/>
  <rect class="cls-1" x="74.83" y="20.51" width="8.91" height="80.86"/>
  <rect class="cls-1" x="74.83" y=".57" width="8.91" height="9.17"/>
  <rect class="cls-1" x="132.93" y="20.51" width="8.91" height="106.99"/>
  <rect class="cls-1" x="132.93" y=".57" width="8.91" height="9.17"/>
  <rect class="cls-1" x="190.14" y="20.51" width="8.91" height="27.08"/>
  <rect class="cls-1" x="190.14" y=".57" width="8.91" height="9.17"/>
  <rect class="cls-1" x="16.73" y="118" width="8.91" height="128.32"/>
  <rect class="cls-1" x="74.83" y="174.08" width="8.91" height="72.24"/>
  <rect class="cls-1" x="132.93" y="200.46" width="8.91" height="46.43"/>
  <rect class="cls-1" x="190.14" y="118" width="8.91" height="128.88"/>
</svg>