<?xml version="1.0" encoding="UTF-8"?>
<svg id="Layer_1" data-name="Layer 1" xmlns="http://www.w3.org/2000/svg" viewBox="0 0 250.84 162.16">
  <defs>
    <style>
      .cls-1 {
        stroke-width: 0px;
      }
    </style>
  </defs>
  <path class="cls-1" d="m38.88,37.39v124.76h57.4v-27.8l-11.37-8.69h43.61l-12.82,8.87v27.62h58.4v-27.71l-11.37-8.78h43.61l-12.82,9.67v26.82h57.3V37.39H38.88Zm64.47,69.53h-42.35v-8.08h42.35v8.08Zm26.55-21.96H61v-8.08h68.9v8.08Zm.35-21.96H61.35v-8.08h68.9v8.08Zm98.47,43.92h-72.32v-8.08h72.32v8.08Zm0-21.96h-72.32v-8.08h72.32v8.08Zm.35-21.96h-72.32v-8.08h72.32v8.08Z"/>
  <polygon class="cls-1" points="211.95 0 0 0 0 124.76 9.99 124.76 10.12 8.81 211.95 8.81 211.95 0"/>
  <polygon class="cls-1" points="19.92 18.29 19.92 143.06 29.91 143.06 30.04 27.1 231.88 27.1 231.88 18.29 19.92 18.29"/>
</svg>