<?xml version="1.0" encoding="UTF-8"?>
<svg id="Layer_1" data-name="Layer 1" xmlns="http://www.w3.org/2000/svg" viewBox="0 0 189 236.6">
  <defs>
    <style>
      .cls-1, .cls-2 {
        stroke-width: 0px;
      }

      .cls-2 {
        isolation: isolate;
        opacity: .1;
      }
    </style>
  </defs>
  <path class="cls-1" d="m172.8,16.3h-.1V0h-19.1v16.3h-14.8V0h-19.1v16.3h-15.5V0h-19.1v16.3h-15.2V0h-19.1v16.3h-14.7V0h-19.1v16.3h-.6C7.4,16.3,0,23.6,0,32.7v187.5c0,9,7.3,16.4,16.4,16.4h156.2c9,0,16.4-7.3,16.4-16.4V32.6c.2-9-7.2-16.3-16.2-16.3ZM17,52.1c0-1.6,1.3-2.8,2.8-2.8h149.8c1.6,0,2.8,1.3,2.8,2.8v6.7c0,1.6-1.3,2.8-2.8,2.8H19.8c-1.6,0-2.8-1.3-2.8-2.8v-6.7Zm-.2,33.6c0-1.6,1.3-2.8,2.8-2.8h149.8c1.6,0,2.8,1.3,2.8,2.8v6.7c0,1.6-1.3,2.8-2.8,2.8H19.6c-1.6,0-2.8-1.3-2.8-2.8v-6.7Zm155.6,33.7v6.7c0,1.6-1.3,2.8-2.8,2.8H19.8c-1.6,0-2.8-1.3-2.8-2.8v-6.7c0-1.6,1.3-2.8,2.8-2.8h149.8c1.6-.1,2.8,1.2,2.8,2.8ZM16.9,153c0-1.6,1.3-2.8,2.8-2.8h149.8c1.6,0,2.8,1.3,2.8,2.8v6.7c0,1.6-1.3,2.8-2.8,2.8H19.8c-1.6,0-2.8-1.3-2.8-2.8l-.1-6.7h0Zm155.5,40.4c0,1.6-1.3,2.8-2.8,2.8H19.8c-1.6,0-2.8-1.3-2.8-2.8v-6.7c0-1.6,1.3-2.8,2.8-2.8h149.8c1.6,0,2.8,1.3,2.8,2.8v6.7Z"/>
  <path class="cls-2" d="m19.8,183.8h149.8c1.6,0,2.8,1.3,2.8,2.8v6.7c0,1.6-1.3,2.8-2.8,2.8H19.8c-1.6,0-2.8-1.3-2.8-2.8v-6.7c0-1.5,1.2-2.8,2.8-2.8Z"/>
  <path class="cls-2" d="m19.8,150.1h149.8c1.6,0,2.8,1.3,2.8,2.8v6.7c0,1.6-1.3,2.8-2.8,2.8H19.8c-1.6,0-2.8-1.3-2.8-2.8v-6.6c0-1.6,1.2-2.9,2.8-2.9Z"/>
  <path class="cls-2" d="m19.8,116.5h149.8c1.6,0,2.8,1.3,2.8,2.8v6.7c0,1.6-1.3,2.8-2.8,2.8H19.8c-1.6,0-2.8-1.3-2.8-2.8v-6.7c0-1.5,1.2-2.8,2.8-2.8Z"/>
  <path class="cls-2" d="m19.6,82.9h149.8c1.6,0,2.8,1.3,2.8,2.8v6.7c0,1.6-1.3,2.8-2.8,2.8H19.6c-1.6,0-2.8-1.3-2.8-2.8v-6.7c0-1.5,1.3-2.8,2.8-2.8Z"/>
  <path class="cls-2" d="m19.8,49.3h149.8c1.6,0,2.8,1.3,2.8,2.8v6.7c0,1.6-1.3,2.8-2.8,2.8H19.8c-1.6,0-2.8-1.3-2.8-2.8v-6.7c0-1.6,1.2-2.8,2.8-2.8Z"/>
</svg>