<?xml version="1.0" encoding="UTF-8"?>
<svg id="Layer_1" data-name="Layer 1" xmlns="http://www.w3.org/2000/svg" viewBox="0 0 248.37 206.34">
  <defs>
    <style>
      .cls-1 {
        opacity: .53;
      }

      .cls-1, .cls-2, .cls-3, .cls-4, .cls-5 {
        stroke-width: 0px;
      }

      .cls-2 {
        opacity: .28;
      }

      .cls-4 {
        opacity: .66;
      }

      .cls-5 {
        opacity: .36;
      }
    </style>
  </defs>
  <path class="cls-3" d="m240.84,56.19C222.56,17.9,191.4-.87,148.64.03,100.61.86,59.33,17.4,26.89,53.33,1.41,81.55-6.16,114.7,5.03,151.06c5.42,17.63,17.48,19.77,29.7,5.96,6.64-7.5,10.28-17.8,17.33-24.75,4.78-4.72,13.89-8.95,19.64-7.54,4.52,1.11,10.46,9,10.41,17.22.09,5.06-1.68,10.06-1.89,15.11-1.52,37.33,16.82,54.15,52.31,48.07,2.71-.46,5.37-1.32,7.99-2.18,30.86-10.14,57.28-27.74,80.41-50.03,26.76-25.79,35.09-64.97,19.92-96.73ZM49.46,100.27c-8.2,0-14.85-6.65-14.85-14.85s6.65-14.85,14.85-14.85,14.85,6.65,14.85,14.85-6.65,14.85-14.85,14.85ZM144.84,22.8c7.14,0,12.92,5.78,12.92,12.92s-5.78,12.92-12.92,12.92-12.92-5.78-12.92-12.92,5.78-12.92,12.92-12.92Zm-31.87,30.29c-.51,11.21-8.28,16.24-18.09,17.39-10.44,1.23-22.12-10.06-22.44-21.6.54-9.73,6.7-15.54,17.32-16.42,11.67-.96,23.7,9.72,23.2,20.63Zm23.13,117.23c-11.28.16-20.04-6.75-20.39-16.1-.42-11.11,12.9-23.27,26.06-23.78,11.09-.43,21.14,7.66,21.18,17.05.04,11.46-13.09,22.63-26.84,22.83Zm59.71-99.75c-11.37,0-20.59-9.22-20.59-20.59s9.22-20.59,20.59-20.59,20.59,9.22,20.59,20.59-9.22,20.59-20.59,20.59Z"/>
  <circle class="cls-2" cx="195.8" cy="49.98" r="20.59" transform="translate(22.01 153.09) rotate(-45)"/>
  <circle class="cls-4" cx="144.84" cy="35.72" r="12.92" transform="translate(17.17 112.88) rotate(-45)"/>
  <circle class="cls-1" cx="49.46" cy="85.42" r="14.85" transform="translate(-18.3 13.65) rotate(-13.28)"/>
  <path class="cls-5" d="m72.43,48.88c.54-9.73,6.7-15.54,17.32-16.42,11.67-.96,23.7,9.72,23.2,20.63-.51,11.21-8.28,16.24-18.09,17.39-10.44,1.23-22.12-10.06-22.44-21.6Z"/>
</svg>