<?xml version="1.0" encoding="UTF-8"?>
<svg id="Layer_1" data-name="Layer 1" xmlns="http://www.w3.org/2000/svg" viewBox="0 0 133.65 245.92">
  <defs>
    <style>
      .cls-1 {
        stroke-width: 0px;
      }
    </style>
  </defs>
  <path class="cls-1" d="m39.51,77.06h16.34c.59,6.19,1.43,11.08,1.46,15.99.15,22.35,0,44.71.11,67.06.06,12.19,3.43,17.82,9.9,17.34,6-.44,8.57-5.24,8.6-17.25.09-35.01.1-70.01-.04-105.02-.02-5.02-.42-10.19-1.65-15.03-3.21-12.67-12.8-19.81-25.84-19.97-13.51-.16-22.75,6.11-26.37,19.02-1.68,6-2.4,12.44-2.44,18.69-.22,36.27-.38,72.54.08,108.81.12,9.57,1.53,19.36,4.02,28.6,5.35,19.84,20.54,30.02,42.81,30.09,21.94.07,38.03-10.36,43.28-29.67,2.61-9.62,3.81-19.88,3.92-29.87.44-38.8.18-77.6.18-116.4,0-2.95-.12-5.91.06-8.85.76-12.09,5.39-14.52,18.65-8.8.23,3.99.7,8.53.71,13.07.05,45.97-.81,91.96.33,137.91.73,29.38-26.54,65.59-63.43,63.01-11.32-.79-22.68.33-33.39-4.96C13.9,229.52,1.04,210.95.55,185.82-.38,138.61.09,91.36.35,44.12.49,18.1,19.14.21,45.42,0c25.03-.19,39.59,8.71,47.31,29.73,1.83,5,2.47,10.68,2.5,16.06.2,40.91.19,81.82.07,122.73-.06,19.9-10.12,30.09-29.06,29.96-17.86-.12-28.25-10.9-28.28-29.79-.04-25.73.13-51.45.32-77.18.03-4.13.68-8.25,1.22-14.45Z"/>
</svg>