<?xml version="1.0" encoding="UTF-8"?>
<svg id="Layer_1" data-name="Layer 1" xmlns="http://www.w3.org/2000/svg" viewBox="0 0 243.11 242.59">
  <defs>
    <style>
      .cls-1 {
        stroke-width: 0px;
      }
    </style>
  </defs>
  <path class="cls-1" d="m148.61,32.94c-3.81-4.58-12.5-6.05-17.51-12.07,16.2-6.22,36.89-13.95,54.88-20.87-3.21,18.91-7.22,37.3-10.14,54.55-6.04-3.56-8.85-8.8-13.3-11.42-1.73,1.12-3.76,1.81-4.81,3.21-20.56,27.56-40.98,55.23-61.5,82.82-6.83,9.19-5.46,17.31,3.12,24.29,8.98,7.3,18.58,13.87,27.16,21.59,3.04,2.74,8.71,8,5.71,12.02-3.77,5.36-10.03,2.03-13.06.03-10.92-7.2-21.66-14.99-31.2-23.9-13.72-12.81-15.48-24.68-4.87-40.42,16.4-24.34,34.18-47.75,51.45-71.5,4.28-5.89,8.87-11.56,14.09-18.34Z"/>
  <path class="cls-1" d="m174.17,242.34c-15.7,2.48-29.69-13.97-29.78-29.91-.12-20.06,15.7-37.31,33.76-36.98,16.5.3,29.19,13.85,29.13,31.08-.07,19.75-14.88,35.78-33.1,35.81Zm3.66-16.83c7.93-.03,12.82-5.59,12.72-14.47-.11-9.96-8.13-19.44-16.59-18.56-8.25.86-13.23,5.7-13.1,14.56.14,9.63,8.33,18.5,16.97,18.47Z"/>
  <path class="cls-1" d="m87.92,49.97c5.31-4.72,14.14-17.76,17.43-16.56,1.47,1.02,4.55,2.89,1.72,8.4-3.42,6.76-8.26,9.31-11.79,16.29,5.76,8.32,20.26,7.13,13.67,17.23-2.32,3.27-12.89-3.85-17.73-6.93-9.79,1.04-12.98,17.15-19.16,13.05-5.35-3.27,3.98-15.03,9.46-22.85-5.39-6.86-16.65-20.4-11.9-22.88,5.82-4.29,14.49,9.25,18.3,14.24Z"/>
  <path class="cls-1" d="m189.21,41.3c12-1.9,18.97,9.49,29.2,11.19,6.39-4.75,13.39-9.96,20.39-15.17,1.98-1.07,5.01,1.31,4.18,3.76-4.54,6.5-9.08,13.01-13.78,19.74,4.18,5.09,8.45,10.17,12.52,15.43,1.27,1.29.61,6.1-1.52,5.47-7.33-3.91-15.05-10.12-21.51-13.56-6.17,3.47-9.11,9.66-15.09,13.02-1.95.75-6.65-1.67-5.24-3.97,2.98-4.86,4.7-7.66,7.68-12.52,1.02-.99,3.3-4.03,4.31-5.02-7.23-4.59-14.47-9.19-21.7-13.78-2.67-1.52-1.13-4.06.57-4.57Z"/>
  <path class="cls-1" d="m141.71,103.92c9.71,2.5,16.62,8.23,24.41,12.88,8.65-2.37,19.85-26.43,26.66-11.73-.73,4.56-10.64,13.82-15.52,20.15,5.15,5.53,10.87,10.41,15.52,15.41.87,5.57-3.37,6.5-4.07,4.73-6.79-3.26-12.11-10.19-19.65-13.81-4.97,3.32-11.58,13.72-17.78,14.56-10.38-3.34-1.64-9.07,3.16-15.46,1.55-1.47,3.32-5.01,4.88-6.48-8.09-4.23-14.63-9.94-22.72-14.17-3.18-2.69.73-7.26,5.1-6.07Z"/>
  <path class="cls-1" d="m4.52,38.6c7.79,4.53,15.59,9.07,23.83,13.87,6.83-4.97,22.29-15.02,24.69-12.08,5.44,5.7-10.87,13.37-15.5,19.25,4.2,4.99,11.43,11.99,15.92,17.31,1.1,2.11.03,4.89-3.39,4.23-6.6-3.46-15.65-9.34-22.76-13.08-4.46,4.19-8.43,9.27-13.99,12.77-3.13,2.2-5.72.3-4.65-2.08,2.69-5.36,6.46-11.23,9.64-17.58-5.61-5.47-11.73-11.42-17.84-17.38-1.6-3.54,1.16-6.12,4.05-5.23Z"/>
</svg>