<?xml version="1.0" encoding="UTF-8"?>
<svg id="Layer_1" data-name="Layer 1" xmlns="http://www.w3.org/2000/svg" viewBox="0 0 245.3 246.17">
  <defs>
    <style>
      .cls-1 {
        stroke-width: 0px;
      }
    </style>
  </defs>
  <path class="cls-1" d="m181.01,245.73c-41.13-16.19-82.21-2.95-123.43-.35-24.44,1.54-44.97-26.29-37.49-49.1,2.36-7.2,8-15.83,14.44-18.75,26.13-11.89,40.28-32.68,51.46-57.95,10.51-23.76,30.12-31.65,51.8-21.48,9.07,4.26,18.03,13.54,22.1,22.72,10.8,24.37,24.77,43.98,49.9,55.81,16.24,7.64,20.3,21.95,15.68,38.39-4.77,16.99-19.25,29.79-34.82,30.68-3.2.18-6.15.95-9.63.03Z"/>
  <path class="cls-1" d="m0,89.19c0-15.86,6.71-27.02,18.87-30.65,12.16-3.63,26.22,2.77,33.38,17.79,4.14,8.69,6.38,19.12,6.37,28.77-.02,13.07-6.06,24.37-20.14,27.72-13.41,3.18-23.53-4.06-30.02-14.56C3.41,110.09,0,100.91,0,89.19Z"/>
  <path class="cls-1" d="m55.35,28.72c-.05-11.1,7.58-24.44,17.93-27.34,14.05-3.94,28.53,1.63,34.59,17.59,4.44,11.69,6.3,26,4.09,38.2-3.34,18.43-24.08,24.18-39.11,12.78-12.25-9.3-17.15-22.28-17.5-41.23Z"/>
  <path class="cls-1" d="m185.17,52.17c-3.75,6.63-4.77,9.09-11.83,16.42-14.28,14.27-34.9,7.34-40.76-12.15-4.64-15.45-1.66-29.9,7.59-42.87,8.22-11.51,22.62-16.78,33.58-11.53,13.18,6.32,16.64,18.44,16.12,32.13-.56,5.83-1.14,10.02-4.7,18Z"/>
  <path class="cls-1" d="m245.14,91.8c1.3,15.1-5.37,27.52-18.19,36.59-14.44,10.22-33.67,4.95-37.22-12.14-2.52-12.13-1.44-26.45,2.67-38.16,5.65-16.08,20.99-23.07,33.56-19.66,12.76,3.46,19.23,14.38,19.18,33.37Z"/>
</svg>