<?xml version="1.0" encoding="UTF-8"?>
<svg id="Layer_1" data-name="Layer 1" xmlns="http://www.w3.org/2000/svg" viewBox="0 0 246.74 223.27">
  <defs>
    <style>
      .cls-1 {
        fill: #231f20;
        opacity: .48;
      }

      .cls-1, .cls-2 {
        stroke-width: 0px;
      }
    </style>
  </defs>
  <path class="cls-2" d="m146.62,167.84v39.57c6.05,7.09,17.94-.22,20.85,11.79-8.57,7.03-18.81,2.65-28.13,3.38-9.93.78-19.97.17-29.96.17h-30.46c1.9-15.23,14.1-8.94,20.94-14.42v-40.06c-4.07-.37-8.38-1.06-12.69-1.09-20.48-.12-40.96.07-61.45-.11-18.81-.16-25.58-6.72-25.64-24.99C-.04,103.11-.02,64.13.08,25.14.13,7.19,6.62.17,23.98.12,90.42-.04,156.86-.05,223.31.15c16.73.05,23.26,6.99,23.32,24.07.15,39.48.15,78.96,0,118.44-.06,17.46-6.94,24.23-24.59,24.41-19.98.2-39.96.02-59.95.1-4.89.02-9.78.41-15.48.67Zm74.52-24.2c4.09-14.44,3.86-107.75-.02-119.39-20.73-3.28-186.43-1.99-196.57,1.53-3.28,19.99-2.13,106.95,1.82,117.86h194.77Z"/>
  <path class="cls-1" d="m221.14,143.64H26.36c-3.95-10.92-5.1-97.87-1.82-117.86,10.14-3.51,175.84-4.8,196.57-1.53,3.88,11.64,4.11,104.95.02,119.39Z"/>
</svg>