<?xml version="1.0" encoding="UTF-8"?>
<svg id="Layer_1" data-name="Layer 1" xmlns="http://www.w3.org/2000/svg" viewBox="0 0 228.58 154.69">
  <defs>
    <style>
      .cls-1 {
        opacity: .33;
      }

      .cls-1, .cls-2, .cls-3 {
        stroke-width: 0px;
      }

      .cls-1, .cls-3 {
        isolation: isolate;
      }
    </style>
  </defs>
  <path class="cls-3" d="m221.72.02C150.2,5.45,78.38,5.45,6.86.02,3.16-.26,0,2.67,0,6.38v108.4c0,3.77,3.26,6.72,7.01,6.35l4.81-.48c68.14-6.81,136.79-6.82,204.94,0l4.81.48c3.75.37,7.01-2.57,7.01-6.35V6.38c0-3.71-3.16-6.64-6.86-6.36Zm-3.34,110.56l-10.71-.97c-61.75-5.59-123.97-5.59-185.72,0l-10.71.97V10.27l6.22.43h0c64.81,4.45,129.9,4.45,194.71,0l6.22-.43v100.31Z"/>
  <path class="cls-1" d="m17.45,10.69h0l-6.22-.43v100.31l10.71-.97c61.75-5.59,123.97-5.59,185.72,0l10.71.97V10.27l-6.22.43c-64.81,4.45-129.9,4.45-194.71,0Z"/>
  <ellipse class="cls-2" cx="114.28" cy="146.3" rx="36.35" ry="8.39"/>
  <ellipse class="cls-2" cx="114.28" cy="144.11" rx="36.35" ry="8.39"/>
  <rect class="cls-2" x="100.89" y="113.33" width="26.8" height="33.67"/>
</svg>