<?xml version="1.0" encoding="UTF-8"?>
<svg id="Layer_1" data-name="Layer 1" xmlns="http://www.w3.org/2000/svg" viewBox="0 0 250.77 154.05">
  <defs>
    <style>
      .cls-1, .cls-2, .cls-3 {
        stroke-width: 0px;
      }

      .cls-2 {
        opacity: .19;
      }

      .cls-3 {
        opacity: .38;
      }
    </style>
  </defs>
  <path class="cls-1" d="m96.96,140.97c-25.78-.19-51.57-.02-77.35-.15-14.65-.07-19.52-4.95-19.55-19.51C-.02,87.3-.02,53.28.07,19.26.1,4.5,4.66.04,19.63.03c70.62-.05,141.25-.05,211.87,0,14.78.01,19.18,4.52,19.21,19.57.07,33.64.07,67.29,0,100.93-.03,15.53-4.6,20.22-19.9,20.29-25.04.11-50.07,0-75.11.08M126.09,8.63c-33.21,0-66.42-.05-99.63.02-14.79.03-17.82,3-17.86,17.68-.09,29.49-.09,58.98,0,88.47.04,14.01,3.32,17.39,17.04,17.41,66.42.06,132.85.06,199.27,0,13.87-.01,17.24-3.36,17.29-17.16.1-29.49.09-58.98,0-88.47-.04-14.95-2.94-17.9-17.59-17.93-32.84-.07-65.68-.02-98.52-.02Z"/>
  <path class="cls-2" d="m221.99,11.4c-4.05,0-8.1,0-12.15,0L12.09,119.65c1.24,7.8,5.4,9.9,16.16,9.91,64.68.06,129.36.05,194.04,0,13.5-.01,16.79-3.22,16.84-16.41.1-28.2.09-56.41,0-84.61-.04-14.3-2.86-17.12-17.13-17.15Z"/>
  <path class="cls-3" d="m126.06,11.38c-32.34,0-64.68-.04-97.02.02-14.4.03-17.35,2.87-17.4,16.91-.09,28.2-.09,56.41,0,84.61,0,2.62.14,4.84.44,6.73L209.84,11.39c-27.92-.04-55.85-.01-83.77-.01Z"/>
  <rect class="cls-1" x="83.41" y="147.64" width="83.94" height="6.42"/>
  <rect class="cls-1" x="109.62" y="139.51" width="31.52" height="9.8"/>
</svg>