<?xml version="1.0" encoding="UTF-8"?>
<svg id="Layer_1" data-name="Layer 1" xmlns="http://www.w3.org/2000/svg" viewBox="0 0 239.69 238.98">
  <defs>
    <style>
      .cls-1, .cls-2 {
        stroke-width: 0px;
      }

      .cls-2 {
        fill: #fff;
      }
    </style>
  </defs>
  <path class="cls-2" d="m214.33,222.7s-.02-.06-.03-.08c0,.02.02.05.03.08Z"/>
  <path class="cls-2" d="m214.38,222.85c-.02-.06-.04-.11-.06-.15.02.04.04.09.06.15Z"/>
  <path class="cls-2" d="m214.3,222.62c-.02-.05-.02-.05,0,0h0Z"/>
  <path class="cls-2" d="m214.61,223.44s0,.02.01.03c.25-1.35.16-.87-.01-.03Z"/>
  <path class="cls-2" d="m214.61,223.44s0,.02.01.03h0s0-.02-.01-.03h0Z"/>
  <path class="cls-2" d="m214.38,222.85c.05.14.12.33.22.59h0c-.09-.23-.16-.43-.22-.59Z"/>
  <path class="cls-2" d="m214.61,223.44c-.04.19-.08.4-.13.61-.04.03.28-.21.28-.21-.05-.12-.09-.24-.14-.36h0s0-.02-.01-.03Z"/>
  <path class="cls-1" d="m80.76,69.83c4.63-3.56,6.77-6.65,7.84-9.86,1.07-3.21-.42-7.06-4.34-15.62-3.92-8.56-30.89-35.52-36.06-39.62,0,0-6.15-6.54-17.2-4.22-4.1.86-11.34,6.06-13.97,12.01-2.01,4.56-2.05,8.47-1.96,10.05l54.66,54.66c3.37-2.12,8.08-5.13,11.03-7.39Z"/>
  <path class="cls-1" d="m224.12,218.87c5.45-3.66,11.15-8.63,13.98-12.14,2.83-3.51,2.02-9.83-3.76-15.62-5.78-5.79-39.66-40.01-46.03-42.48-6.36-2.47-10.87,1.58-16.44,6.05s-7.36,10.54-8.22,12.82c-.26.69-.64,1.64-1.03,2.61l53.03,53.03c1.86-.65,5.02-1.95,8.47-4.26Z"/>
  <path class="cls-1" d="m160.72,174.74s-6.71,3.07-17.23-3.09c-10.52-6.16-67.11-59.65-71.92-67.37-8.42-13.51-8.04-18.71-8.04-18.71,0,0,1.07-4.99,2.32-5.88.16-.11.45-.31.85-.56L11.59,24.02c-2.09.44-4.46.97-5.18,1.32-1.37.66-3.67,1.53-4.76,6.55C.56,36.91-.47,47.01.22,60.39c.69,13.38-.69,9.43,8.59,32.55,9.28,23.11,28.14,51.92,43.8,68.69,15.65,16.77,38.17,37.59,60.66,50.89,22.49,13.31,34.53,20.91,49.92,24.32,15.38,3.41,29.71,1.94,36.82,1,7.11-.93,9.54-2.12,12.36-5.17,1.51-1.63,1.85-4.09,1.84-6.03l-53.03-53.03c-.28.67-.46,1.12-.46,1.12Z"/>
</svg>