<?xml version="1.0" encoding="UTF-8"?>
<svg id="Layer_1" data-name="Layer 1" xmlns="http://www.w3.org/2000/svg" viewBox="0 0 144.06 251.84">
  <defs>
    <style>
      .cls-1 {
        stroke-width: 0px;
      }
    </style>
  </defs>
  <path class="cls-1" d="m.03,124.83c0-33.16-.06-66.31.02-99.47C.09,7.29,7.04.13,24.65.08c31.93-.1,63.86-.12,95.79.02,16.05.07,23.54,7.66,23.56,23.84.07,67.93.07,135.86,0,203.79-.02,16.3-7.45,23.96-23.35,24.02-32.34.13-64.67.12-97.01,0-16.05-.06-23.52-7.57-23.58-23.81C-.06,193.57.03,159.2.03,124.83Zm13.17,80.55h117.43c1.81,0,3.28-1.47,3.28-3.28V49.52c0-1.81-1.47-3.28-3.28-3.28H13.2c-1.81,0-3.28,1.47-3.28,3.28v152.58c0,1.81,1.47,3.28,3.28,3.28Zm62.33,12.01c-1.33-1.47-5.71-1.73-7.66.33-4.99,5.27-7.99,7.97-7.39,11.05.79,4.06,4.71,6.4,8.67,9.84,1.26,1.1,4.97,1.32,6.19.18,3.82-3.57,8.07-7.13,8.03-10.41.3-3.14-3.02-5.67-7.85-10.99Zm-3.74-190.71c.88.05,1.76.05,2.63-.01,4.16-.28,3.86-6.55-.31-6.55-.69,0-1.39,0-2.08,0-4.22,0-4.45,6.32-.24,6.56Z"/>
</svg>