<?xml version="1.0" encoding="UTF-8"?>
<svg id="Layer_1" data-name="Layer 1" xmlns="http://www.w3.org/2000/svg" viewBox="0 0 250.57 189.69">
  <defs>
    <style>
      .cls-1, .cls-2, .cls-3 {
        stroke-width: 0px;
      }

      .cls-2 {
        opacity: .75;
      }

      .cls-3 {
        opacity: .8;
      }
    </style>
  </defs>
  <path class="cls-1" d="m236.46,19.6H14.11c-7.79,0-14.11,6.32-14.11,14.11v2.28h25.66c10.43,0,18.89,8.46,18.89,18.89v94.81c0,10.43-8.46,18.89-18.89,18.89H0v6.98c0,7.79,6.32,14.11,14.11,14.11h222.35c7.79,0,14.11-6.32,14.11-14.11V33.72c0-7.79-6.32-14.11-14.11-14.11Zm-101.75,136.21c-28.93,0-52.38-23.45-52.38-52.38s23.45-52.38,52.38-52.38,52.38,23.45,52.38,52.38-23.45,52.38-52.38,52.38Zm80.23-80.38c-9.87,0-17.87-8-17.87-17.87s8-17.87,17.87-17.87,17.87,8,17.87,17.87-8,17.87-17.87,17.87Z"/>
  <circle class="cls-2" cx="214.95" cy="57.57" r="17.87" transform="translate(22.25 168.85) rotate(-45)"/>
  <rect class="cls-1" x="44.55" width="67.72" height="48.12" rx="19.78" ry="19.78"/>
  <path class="cls-3" d="m44.55,149.7V54.89c0-10.43-8.46-18.89-18.89-18.89H0v132.59h25.66c10.43,0,18.89-8.46,18.89-18.89Z"/>
  <circle class="cls-1" cx="134.72" cy="103.44" r="36.05"/>
</svg>