<?xml version="1.0" encoding="UTF-8"?>
<svg id="Layer_1" data-name="Layer 1" xmlns="http://www.w3.org/2000/svg" viewBox="0 0 246.91 186.22">
  <defs>
    <style>
      .cls-1, .cls-2 {
        stroke-width: 0px;
      }

      .cls-2 {
        opacity: .13;
      }
    </style>
  </defs>
  <path class="cls-1" d="m96.79,173.89c-3.5,5.25-6.3,8.44-12.75,10.32-16.3,4.75-29.65-5.75-28.95-22.72.51-12.26-3.72-20.95-11.51-30.18-12.92-15.3-24.21-32.06-35.35-48.76C1.95,73.13-2,62.51,1.05,49.73c.05-.19.3-.26.44-.11,7.46,8.15,6.73,23.4,20.57,22.47.17-.01.31.1.4-.04,8.09-13.64,13.36-26.42,22.01-36.22C76.29-.18,129.09-9.92,176.81,10.59c8.45,3.63,15.52,5.49,24.63,1.47,5.66-2.51,13.04-1.13,19.69-1.42l2.23,3.89c-3.8,6.05-10.2,9.28-11.39,18.16,0,.07-.05.13-.03.2,3.08,11.63,9.76,18.45,18.33,23.63.96.58,9.06,1,14.88,1.28.98.05,1.75.86,1.75,1.84v47.8c-.04.52,0,1.31-.39,1.64-.89.76-1.42.87-1.93.83-5.16-.42-11.7.23-12.53.56-12.2,4.8-18.26,20.11-26.74,29.64-2.99,3.36-2.87,10.07-3.02,15.27-.52,17.75-4.81,26.53-15.17,29.45-14.89,4.2-21.42-.78-31.49-17.59-.04-.07-.12-.12-.21-.12l-10.46,1.08c-12.29,1.27-24.68,1.14-36.95-.37l-8.37-1.03c-.11,0-.2.07-.23.17-.55,1.84-1.48,5.18-2.62,6.96ZM162.88,31.34c-22.35-13.85-56.41-13.98-80.26-.02-.08.05-.13.14-.12.23.24,3.45.51,7.46.92,13.33.01.16.18.28.33.21,26.89-10.51,52.5-8.74,78.93-.71.16.05.32-.07.32-.23v-12.6c0-.09-.04-.17-.12-.21Z"/>
  <path class="cls-2" d="m163,31.41v13.06c-26.65-8.14-52.45-9.95-79.56.74-.42-6.14-.7-10.26-.95-13.82,23.89-14.07,58.12-13.94,80.51.01Z"/>
</svg>