<?xml version="1.0" encoding="UTF-8"?>
<svg id="Layer_1" data-name="Layer 1" xmlns="http://www.w3.org/2000/svg" viewBox="0 0 254.09 103.4">
  <defs>
    <style>
      .cls-1 {
        opacity: .69;
      }

      .cls-1, .cls-2, .cls-3 {
        stroke-width: 0px;
      }

      .cls-3 {
        opacity: .34;
      }
    </style>
  </defs>
  <path class="cls-2" d="m202.39,0H51.7C23.15,0,0,23.15,0,51.7s23.15,51.7,51.7,51.7h150.68c28.55,0,51.7-23.15,51.7-51.7S230.94,0,202.39,0Zm-2.5,90.92H52.94c-22.28,0-40.34-18.06-40.34-40.34S30.66,10.25,52.94,10.25h142.43c22.28,0,45.39,18.06,45.39,40.34s-18.59,40.34-40.87,40.34Z"/>
  <path class="cls-1" d="m52.94,10.25c-22.28,0-40.34,18.06-40.34,40.34s18.06,40.34,40.34,40.34h73.74V10.25H52.94Z"/>
  <path class="cls-3" d="m240.76,50.58c0-22.28-23.11-40.34-45.39-40.34h-68.69v80.67h73.21c22.28,0,40.87-18.06,40.87-40.34Z"/>
  <circle class="cls-2" cx="32.36" cy="43" r="10.96"/>
  <circle class="cls-2" cx="44.47" cy="26.83" r="7.01"/>
  <circle class="cls-2" cx="59.84" cy="21.41" r="4.84"/>
  <rect class="cls-2" x="67.32" y="16.57" width="103.37" height="6.51" rx="2.9" ry="2.9"/>
</svg>