<?xml version="1.0" encoding="UTF-8"?>
<svg id="Layer_1" data-name="Layer 1" xmlns="http://www.w3.org/2000/svg" viewBox="0 0 215.03 215.05">
  <defs>
    <style>
      .cls-1, .cls-2 {
        stroke-width: 0px;
      }

      .cls-2 {
        isolation: isolate;
        opacity: .18;
      }
    </style>
  </defs>
  <path class="cls-1" d="m182.75,103.22l-10.96-10.96s20.55-19.68,31.94-31.94,18.99-26.93-1.53-47.46h-.01s0-.01-.01-.02h0c-20.54-20.52-35.21-12.92-47.46-1.53-12.26,11.4-31.94,31.94-31.94,31.94l-10.96-10.96s-7.77-6.73-13.55-.95,1.47,12.86,1.47,12.86l10.1,10.1L30.33,133.81l-5.47,19.57-19.68,19.68s-13.5,17.01,3.1,33.66c0,0,0,0,.02.02h0s0,0,0,.02c0,0,0,0,.02.02,16.65,16.6,33.66,3.1,33.66,3.1l19.68-19.68,19.57-5.47,79.51-79.51,10.1,10.1s7.08,7.25,12.86,1.47-.95-13.55-.95-13.55l-.02-.02Zm-104.49,70.36l-19.34,8.29-19.34,19.34s-12.64,11.26-24.84-.89h0s0,0,0-.02h0c-12.16-12.19-.89-24.84-.89-24.84l19.34-19.34,8.29-19.34L116.11,62.13s-1.44,12.48,11.44,25.37c12.89,12.88,25.37,11.44,25.37,11.44l-74.65,74.65h-.01Z"/>
  <path class="cls-2" d="m127.54,87.49c-12.88-12.89-11.44-25.37-11.44-25.37l-74.65,74.65-8.29,19.34-19.34,19.34s-11.26,12.64.89,24.84h0s0,0,0,.02h0c12.19,12.16,24.84.89,24.84.89l19.34-19.34,19.34-8.29,74.65-74.65s-12.48,1.44-25.37-11.44h.01Z"/>
</svg>