<?xml version="1.0" encoding="UTF-8"?>
<svg id="Layer_1" data-name="Layer 1" xmlns="http://www.w3.org/2000/svg" viewBox="0 0 227.09 248.5">
  <defs>
    <style>
      .cls-1 {
        stroke-width: 0px;
      }
    </style>
  </defs>
  <path class="cls-1" d="m103.38,0h19.72c9.4,5.73,11.6,13.54,11.43,23.12-.4,22.75-.13,45.52-.13,68.58,31.15,20.54,61.71,40.69,92.69,61.12v23.27c-30.96-10.23-60.28-19.92-91.26-30.16v55.52c8.33,7.01,18.21,15.32,28.68,24.13v22.83c-17.91-6.92-34.19-13.22-51.11-19.76-16.29,6.31-32.59,12.62-51.23,19.84-.39-8.56-.7-15.51-1-22.06,10.96-9.14,20.88-17.43,30.12-25.15v-55.46c-30.76,10.16-60.11,19.86-91.3,30.17v-23.41c29.97-19.77,60.52-39.91,92.31-60.88,0-16.27,0-32.94,0-49.6,0-6.51.38-13.05-.08-19.53-.64-9.13,2.11-16.43,11.14-22.58Z"/>
</svg>