<?xml version="1.0" encoding="UTF-8"?>
<svg id="Layer_1" data-name="Layer 1" xmlns="http://www.w3.org/2000/svg" viewBox="0 0 249.29 198.9">
  <defs>
    <style>
      .cls-1 {
        isolation: isolate;
        opacity: .19;
      }

      .cls-1, .cls-2 {
        stroke-width: 0px;
      }
    </style>
  </defs>
  <path class="cls-2" d="m140.21,19.72h-38.05L0,121.88l77.02,77.02,102.02-102.02v-38.31l-38.84-38.84h.01Zm-24.09,83.02c-5.31,4.45-9.12-2.12-14.74-6.42s-15.42-8.58-16.26,0c-.96,9.78,11.05,15.76,15.38,21.07,5.84,7.15,6.2,17.98-1.53,28.7-7.74,10.73-21.97,7.3-21.97,7.3,0,0-2.41,10.58-10.07,7.88s-4.01-13.65-4.01-13.65c0,0-7.88-6.2-9.92-8.1-2.04-1.9-2.26-8.1,1.97-12.11,4.23-4.01,7.59-.51,13.35,4.82,5.77,5.33,14.59,8.54,20.07,1.24,5.47-7.3-12.62-16.71-16.05-21.38s-7.81-12.92,0-24.74,24.37-5.84,24.37-5.84c0,0,1.53-5.62,2.19-6.79s5.52-2.61,8.76-.8c6.42,3.58,1.24,11.53,1.24,11.53,0,0,15.76,10.14,7.22,17.3h0Zm25.16-22.46c-10.21,0-18.48-8.27-18.48-18.48s8.27-18.48,18.48-18.48,18.48,8.27,18.48,18.48-8.27,18.48-18.48,18.48Z"/>
  <path class="cls-1" d="m108.9,85.45s5.18-7.95-1.24-11.53c-3.24-1.8-8.1-.36-8.76.8-.66,1.17-2.19,6.79-2.19,6.79,0,0-16.57-5.98-24.37,5.84s-3.43,20.07,0,24.74,21.53,14.08,16.05,21.38c-5.47,7.3-14.3,4.09-20.07-1.24-5.77-5.33-9.12-8.83-13.35-4.82-4.23,4.01-4.01,10.22-1.97,12.11,2.04,1.9,9.92,8.1,9.92,8.1,0,0-3.65,10.95,4.01,13.65s10.07-7.88,10.07-7.88c0,0,14.23,3.43,21.97-7.3s7.37-21.55,1.53-28.7c-4.33-5.31-16.35-11.29-15.38-21.07.84-8.58,10.64-4.31,16.26,0s9.43,10.87,14.74,6.42c8.54-7.15-7.22-17.3-7.22-17.3h0Z"/>
  <path class="cls-2" d="m248.43.65c-1.9-1.46-4.52,0-4.52,0,0,0-1.46,1.75-10.65,12.55-9.19,10.8-21.89,10.65-36.93,9.63-15.03-1.02-25.69-.73-37.36,7.01-8.5,5.63-14.68,17.52-17.69,24.08-4.66.02-8.43,3.8-8.43,8.46s3.79,8.47,8.47,8.47,8.47-3.79,8.47-8.47c0-2.58-1.15-4.88-2.97-6.43,2.3-5.9,7.04-15.12,15.74-21.44,8.27-6,12.99-7.85,36.34-6.13s32.47-3.36,40.21-11.68,9.34-11.82,9.34-11.82c0,0,1.9-2.77,0-4.23h-.02Z"/>
</svg>