<?xml version="1.0" encoding="UTF-8"?>
<svg id="Layer_1" data-name="Layer 1" xmlns="http://www.w3.org/2000/svg" viewBox="0 0 241.24 217.91">
  <defs>
    <style>
      .cls-1 {
        stroke-width: 0px;
      }
    </style>
  </defs>
  <path class="cls-1" d="m69.13,45.69c1.82,10.57,3.83,17.78,4.16,25.06.85,18.96,9.48,25.62,28.01,20.76,12.18-3.2,23.15-17.5,23.25-30.09.08-9.23-3.46-15.15-12.97-17.85-5.77-1.64-10.92-5.48-16.35-8.34l-.22-4.66c16.76-10.11,33.52-20.21,50.71-30.57,12.67,17.58,16.79,39.15,36.02,52.02,1.97-4.47,3.42-7.8,4.91-11.12,5.44-12.16,17.55-19.55,29.53-18.02,11.43,1.46,22.49,11.2,23.95,23.67,2.08,17.92,4.28,30.62-23.21,32.96-6.24.53-12.32,3.02-20.41,5.1,9.43,19.44,17.94,36.96,27.47,56.61-15.19,8.8-29.43,17.74-44.34,25.4-7.92,4.07-10.62-1.02-11.29-8.9-.7-8.27-1.85-16.89-4.99-24.45-3.5-8.43-12.12-12.27-20.26-8.03-9.28,4.84-18.33,11.34-25.25,19.1-5.74,6.44-4.69,15.47,2.63,21.8,7.75,6.7,15.84,13,26.23,21.47-17.36,10.63-32.82,20.1-49.45,30.27-11.4-17.85-22.15-34.68-33.97-53.18-3.53,4.81-5.12,7.29-7.02,9.5-5,5.8-9.42,12.4-15.37,17.02-11.47,8.9-25.64,6.33-32.87-6.08-3.95-6.78-6.99-14.81-7.79-22.55-1.55-14.95,3.93-21.12,18.66-24.06,7.84-1.57,15.75-2.81,26.59-4.71-10.24-19.49-19.57-37.23-29.56-56.23,17.23-10.34,33.26-19.97,53.19-31.94Z"/>
</svg>