<?xml version="1.0" encoding="UTF-8"?>
<svg id="Layer_1" data-name="Layer 1" xmlns="http://www.w3.org/2000/svg" viewBox="0 0 244.5 244.5">
  <defs>
    <style>
      .cls-1, .cls-2 {
        stroke-width: 0px;
      }

      .cls-2 {
        opacity: .07;
      }
    </style>
  </defs>
  <path class="cls-1" d="m237.88,106.26L138.24,6.62c-8.83-8.83-23.15-8.83-31.98,0L6.62,106.26c-8.83,8.83-8.83,23.15,0,31.98l99.63,99.63c8.83,8.83,23.15,8.83,31.98,0l99.63-99.63c8.83-8.83,8.83-23.15,0-31.98Zm-88.65,24.97l-14.1-21.68s-10.18,1.35-17.24,7.45c-10,8.64-10.36,16.01-11.07,33.12-.71,17.11-.13,35.31-.13,35.31h-30.01s.8-38.55,2.27-51.71c1.47-13.17,7.54-27.44,19.62-37.73,12.08-10.29,19.43-12.29,19.43-12.29l-17.25-20.19,73.21-.94-24.73,68.66Z"/>
  <path class="cls-2" d="m118,83.69s-7.35,2-19.43,12.29c-12.08,10.29-18.15,24.56-19.62,37.73-1.47,13.17-2.27,51.71-2.27,51.71h30.01s-.59-18.2.13-35.31c.71-17.11,1.07-24.49,11.07-33.12,7.06-6.1,17.24-7.45,17.24-7.45l14.1,21.68,24.73-68.66-73.21.94,17.25,20.19Z"/>
</svg>