<?xml version="1.0" encoding="UTF-8"?>
<svg id="Layer_1" data-name="Layer 1" xmlns="http://www.w3.org/2000/svg" viewBox="0 0 251.26 250.51">
  <defs>
    <style>
      .cls-1 {
        stroke-width: 0px;
      }
    </style>
  </defs>
  <path class="cls-1" d="m124.97,250.27C60.75,254.88-.34,192.3,0,124.99.33,61.74,57.29-1.06,127.7.01c63.58.97,124.53,58.21,123.56,127.7-.89,63.61-58.57,127.17-126.28,122.55Zm.7-30.71c51.14,2.88,95.65-45.25,94.4-93.96-1.36-52.83-41.66-93.43-94.48-94.36-51.9-.92-94.47,45.6-94.48,94.44-.02,50.77,45.42,96.91,94.57,93.89Z"/>
  <path class="cls-1" d="m74.21,176.6c.89-4.4.96-7.19,2.01-9.55,8.11-18.32,16.11-36.7,24.84-54.72,2.09-4.31,6.12-8.69,10.37-10.76,19.68-9.56,39.74-18.34,59.7-27.3,1.17-.52,2.7-.23,5.61-.41-.26,3.27.25,6.44-.84,8.9-8.27,18.75-16.58,37.5-25.52,55.93-2.1,4.33-5.99,8.87-10.22,10.92-19.27,9.35-38.93,17.88-58.52,26.57-1.5.67-3.5.24-7.43.41Zm63.34-37.74c-9.46-9.17-16.81-16.29-25.42-24.63-7.71,15.91-14.22,29.33-20.73,42.76,1.02.98,2.03,1.96,3.05,2.94,13.46-6.58,26.91-13.15,43.1-21.07Z"/>
</svg>