<?xml version="1.0" encoding="UTF-8"?>
<svg id="Layer_1" data-name="Layer 1" xmlns="http://www.w3.org/2000/svg" viewBox="0 0 251.34 250.01">
  <defs>
    <style>
      .cls-1 {
        stroke-width: 0px;
      }
    </style>
  </defs>
  <path class="cls-1" d="m32.24,164.32v-49.62h49.02c31.07-43.4,59.44-43.55,86.83-1.25h28.38v-28.56c-28.05-20.05-35.71-35.62-28.29-57.33C174.39,9.39,190.3.29,212.2,0c13.42-.18,31.99,11.51,37.04,29.43,6.43,22.81-1.4,37.37-30.37,55.72v50.04h-49.59c-22.37,45.69-70.74,38.87-86.7,1.42h-28.44v28.52c32.7,19.01,32.9,34.78,27.88,57.13-4.05,18.04-21.42,27.38-42.15,27.75-17.94.32-34.97-13.57-37.68-28.18-3.69-19.89-7.26-36.22,30.06-57.51Zm112.26-39.08c.15-10.55-9.1-19.72-19.65-19.48-9.86.22-18.65,9.08-18.79,18.93-.14,9.84,8.39,18.94,18.27,19.47,10.49.56,20.03-8.38,20.17-18.91Zm83.15-83.31c.03-9.9-8.41-18.58-18.48-19-10.7-.44-19.87,8.29-19.87,18.93,0,10.57,9.21,19.43,19.82,19.07,9.99-.34,18.5-9.07,18.53-19ZM23.22,207.81c-.23,10.49,8.87,19.6,19.43,19.46,9.97-.13,18.38-8.67,18.56-18.83.18-10.25-7.74-18.81-17.94-19.39-10.55-.59-19.82,8.07-20.05,18.76Z"/>
</svg>