<?xml version="1.0" encoding="UTF-8"?>
<svg id="Layer_1" data-name="Layer 1" xmlns="http://www.w3.org/2000/svg" viewBox="0 0 111.21 250.39">
  <defs>
    <style>
      .cls-1, .cls-2 {
        stroke-width: 0px;
      }

      .cls-2 {
        opacity: .47;
      }
    </style>
  </defs>
  <path class="cls-1" d="m88.92,150.26V30.65h-.12C87.45,13.5,73.11,0,55.6,0S23.76,13.5,22.41,30.65h-.12v119.61C7.78,161.13-1.23,178.93.14,198.74c1.93,27.94,24.86,50.3,52.84,51.58,31.9,1.47,58.23-23.96,58.23-55.54,0-18.21-8.76-34.38-22.29-44.52Zm-36.36,85.21c-20.68-1.47-37.34-18.28-38.64-38.97-.93-14.73,5.78-27.94,16.55-36.06,2.42-1.82,3.86-4.65,3.86-7.68V33.07c0-11.09,8.3-20.7,19.35-21.68,12.62-1.11,23.21,8.8,23.21,21.2v119.75c0,3.21,1.46,6.27,4.01,8.21,10.02,7.63,16.49,19.68,16.49,33.24,0,24.08-20.38,43.41-44.83,41.67Z"/>
  <path class="cls-2" d="m59.41,71.82c-8.76,0-17.18-.88-25.08-2.48v83.28c0,3.12-1.5,6.03-3.99,7.92-10.69,8.13-17.35,21.3-16.43,35.97,1.3,20.69,17.97,37.5,38.64,38.97,24.45,1.73,44.83-17.59,44.83-41.67,0-13.55-6.45-25.58-16.44-33.21-2.58-1.97-4.06-5.06-4.06-8.3v-81.66c-5.63.77-11.48,1.19-17.48,1.19Z"/>
  <rect class="cls-1" x="28.76" y="137.35" width="24.24" height="9.86"/>
  <rect class="cls-1" x="28.76" y="105.86" width="24.24" height="9.86"/>
  <rect class="cls-1" x="28.35" y="74.38" width="24.24" height="9.86"/>
  <rect class="cls-1" x="28.35" y="40.87" width="24.24" height="9.86"/>
</svg>