<?xml version="1.0" encoding="utf-8"?>
<!-- Generator: Adobe Illustrator 28.0.0, SVG Export Plug-In . SVG Version: 6.00 Build 0)  -->
<svg version="1.1" id="Layer_1" xmlns="http://www.w3.org/2000/svg" xmlns:xlink="http://www.w3.org/1999/xlink" x="0px" y="0px"
	 viewBox="0 0 256 256" style="enable-background:new 0 0 256 256;" xml:space="preserve">
<style type="text/css">
	.st0{fill:#FFFFFF;}
</style>
<path d="M152.33,184.06c-28.72,14.37-57.96,18.36-87.8,5.54c-19.57-8.41-34.62-22.08-44.89-40.92
	C-0.22,112.25,6.48,65.75,35.85,36.86C65.62,7.59,112.61,1.68,149.02,22.68c22.91,13.22,37.47,33.09,43.74,58.45
	c6.23,25.23,1.63,49.59-11.48,74.4c17.86,17.4,35.51,34.39,52.86,51.7c3.6,3.59,7.52,7.98,8.7,12.65
	c2.25,8.87,1.17,18.17-8.13,22.92c-9.26,4.72-18.57,4.23-26.53-3.77c-14.86-14.95-29.8-29.82-44.76-44.68
	C160.05,191.01,156.45,187.88,152.33,184.06z M39.78,103.81c0.04,34.46,27.51,62.03,61.89,62.11c34.4,0.08,62.16-27.39,62.33-61.7
	c0.17-35.11-27.38-62.74-62.6-62.77C67.31,41.42,39.74,69.32,39.78,103.81z"/>
<path class="st0" d="M39.78,103.81c-0.04-34.5,27.53-62.39,61.62-62.36c35.21,0.03,62.77,27.66,62.6,62.77
	c-0.17,34.3-27.92,61.77-62.33,61.7C67.29,165.84,39.82,138.27,39.78,103.81z"/>
</svg>
