<?xml version="1.0" encoding="UTF-8"?>
<svg id="Layer_1" data-name="Layer 1" xmlns="http://www.w3.org/2000/svg" viewBox="0 0 245.62 188.2">
  <defs>
    <style>
      .cls-1, .cls-2 {
        stroke-width: 0px;
      }

      .cls-2 {
        isolation: isolate;
        opacity: .18;
      }
    </style>
  </defs>
  <path class="cls-1" d="m188.72,74.43h-61.12c-.16-9.49-.14-22.09.94-27.73,1.85-9.64,5.08-14.38,13.94-22.76,5.69-5.38,21.82-13.75,21.82-13.75l-5.62-10.19s-17.02,10.25-25.01,15.99c-8,5.74-17.02,18.45-17.63,26.65-.4,5.39-.81,21.43-1.04,31.78h-59.85v.04C24.54,75.38,0,100.47,0,131.31s25.47,56.89,56.89,56.89c18.8,0,35.46-9.12,45.82-23.17h40.2c10.36,14.05,27.02,23.17,45.82,23.17,31.42,0,56.89-25.47,56.89-56.89s-25.47-56.89-56.89-56.89h-.01Zm-96.46,66.22h-25.63v25.63h-17.02v-25.63h-25.63v-17.02h25.63v-25.63h17.02v25.63h25.63v17.02Zm83.86,16.09c-7.47,0-13.53-6.06-13.53-13.53s6.06-13.53,13.53-13.53,13.53,6.06,13.53,13.53-6.06,13.53-13.53,13.53Zm31.57-23.78c-7.47,0-13.53-6.06-13.53-13.53s6.06-13.53,13.53-13.53,13.53,6.06,13.53,13.53-6.06,13.53-13.53,13.53Z"/>
  <polygon class="cls-2" points="66.63 98.01 49.61 98.01 49.61 123.64 23.99 123.64 23.99 140.66 49.61 140.66 49.61 166.29 66.63 166.29 66.63 140.66 92.26 140.66 92.26 123.64 66.63 123.64 66.63 98.01"/>
  <circle class="cls-2" cx="176.12" cy="143.22" r="13.53"/>
  <circle class="cls-2" cx="207.69" cy="119.44" r="13.53"/>
</svg>