<?xml version="1.0" encoding="UTF-8"?>
<svg id="Layer_1" data-name="Layer 1" xmlns="http://www.w3.org/2000/svg" viewBox="0 0 247.46 250.82">
  <defs>
    <style>
      .cls-1 {
        stroke-width: 0px;
      }
    </style>
  </defs>
  <path class="cls-1" d="m122.99,194.87c-25.79,18.73-50.63,36.76-77.06,55.95-.23-4.09-1.1-6.98-.41-9.41,6.97-24.55,13.89-49.12,21.51-73.47,2.89-9.25,1.68-15.58-6.47-21.66-16.93-12.64-33.19-26.19-49.69-39.42-4-3.21-7.84-6.61-10.87-12.99h88.33C99.43,61.88,110.16,30.94,120.9,0h4.33c10.73,30.94,21.47,61.87,32.49,93.63h88.63c.56,1.59.56,1.58,1.12,3.17-13.83,11.12-45.06,38.02-58.98,49.47-6.18,5.23-11.17,14.02-8.79,20.67,4.71,16.51,15.85,56.13,20.43,72.67.66,2.39.64,4.97,1.04,9.71.07.81-.85,1.33-1.52.85-26.79-19.33-51.38-37.07-76.66-55.31Z"/>
</svg>