<?xml version="1.0" encoding="UTF-8"?>
<svg id="Layer_1" data-name="Layer 1" xmlns="http://www.w3.org/2000/svg" viewBox="0 0 150.84 247.26">
  <defs>
    <style>
      .cls-1, .cls-2 {
        stroke-width: 0px;
      }

      .cls-2 {
        opacity: .52;
      }
    </style>
  </defs>
  <path class="cls-2" d="m9.03,31.08h133.07s-.95,51.33-20.44,69.86-46.24,25.66-46.24,25.66c0,0-23.62.63-45.48-21.39S9.03,31.08,9.03,31.08Z"/>
  <path class="cls-1" d="m147.41,0c4.07,56.21,9.18,102.99-60.79,136.63v88.25c20.76,6.19,44.82,2.44,64.21,22.38H0c18.86-19.61,42.03-16.65,63.44-21.85v-89.93C.01,111.78-2.88,58.34,2.83,0h144.58ZM12.04,10.68c2.6,17.95,4.22,34.73,7.69,51.1,2.09,9.84,5.67,19.94,10.97,28.43,22.1,35.41,61.21,36.97,86.6,3.92,11.24-14.62,17.26-30.51,16.9-48.86-.08-3.98.9-11.93,1.77-15.87,1.48-6.73,1.58-10.5,3.63-18.74H12.04Z"/>
</svg>