<?xml version="1.0" encoding="UTF-8"?>
<svg id="Layer_1" data-name="Layer 1" xmlns="http://www.w3.org/2000/svg" viewBox="0 0 187.33 235.92">
  <defs>
    <style>
      .cls-1, .cls-2, .cls-3 {
        stroke-width: 0px;
      }

      .cls-2 {
        opacity: .13;
      }

      .cls-2, .cls-3 {
        isolation: isolate;
      }

      .cls-3 {
        opacity: .35;
      }
    </style>
  </defs>
  <path class="cls-1" d="m175.29,0H12.04C5.39,0,0,5.39,0,12.04v211.84c0,6.65,5.39,12.04,12.04,12.04h163.25c6.65,0,12.04-5.39,12.04-12.04V12.04c0-6.65-5.39-12.04-12.04-12.04ZM43.41,219.42c-10.09,0-18.27-8.18-18.27-18.27s8.18-18.27,18.27-18.27,18.27,8.18,18.27,18.27-8.18,18.27-18.27,18.27Zm0-41.71c-10.09,0-18.27-8.18-18.27-18.27s8.18-18.27,18.27-18.27,18.27,8.18,18.27,18.27-8.18,18.27-18.27,18.27Zm0-41.71c-10.09,0-18.27-8.18-18.27-18.27s8.18-18.27,18.27-18.27,18.27,8.18,18.27,18.27-8.18,18.27-18.27,18.27Zm50.26,83.42c-10.09,0-18.27-8.18-18.27-18.27s8.18-18.27,18.27-18.27,18.27,8.18,18.27,18.27-8.18,18.27-18.27,18.27Zm0-41.71c-10.09,0-18.27-8.18-18.27-18.27s8.18-18.27,18.27-18.27,18.27,8.18,18.27,18.27-8.18,18.27-18.27,18.27Zm0-41.71c-10.09,0-18.27-8.18-18.27-18.27s8.18-18.27,18.27-18.27,18.27,8.18,18.27,18.27-8.18,18.27-18.27,18.27Zm50.26,83.42c-10.09,0-18.27-8.18-18.27-18.27s8.18-18.27,18.27-18.27,18.27,8.18,18.27,18.27-8.18,18.27-18.27,18.27Zm0-41.71c-10.09,0-18.27-8.18-18.27-18.27s8.18-18.27,18.27-18.27,18.27,8.18,18.27,18.27-8.18,18.27-18.27,18.27Zm0-41.71c-10.09,0-18.27-8.18-18.27-18.27s8.18-18.27,18.27-18.27,18.27,8.18,18.27,18.27-8.18,18.27-18.27,18.27Zm18.27-51.19H25.14V25.56h137.06v59.26h0Z"/>
  <circle class="cls-2" cx="143.92" cy="201.15" r="18.27" transform="translate(-100.08 160.69) rotate(-45)"/>
  <circle class="cls-2" cx="143.92" cy="159.44" r="18.27" transform="translate(-58.46 231.39) rotate(-67.5)"/>
  <circle class="cls-2" cx="143.92" cy="117.74" r="18.27" transform="translate(-19.93 205.64) rotate(-67.5)"/>
  <circle class="cls-2" cx="93.66" cy="201.16" r="18.27" transform="translate(-14.02 7.14) rotate(-4.06)"/>
  <circle class="cls-2" cx="93.66" cy="159.43" r="18.27"/>
  <circle class="cls-2" cx="93.66" cy="117.74" r="18.27"/>
  <circle class="cls-2" cx="43.41" cy="201.15" r="18.27"/>
  <circle class="cls-2" cx="43.41" cy="159.44" r="18.27"/>
  <circle class="cls-2" cx="43.41" cy="117.73" r="18.27"/>
  <rect class="cls-3" x="25.13" y="25.56" width="137.06" height="59.26"/>
</svg>