<?xml version="1.0" encoding="UTF-8"?>
<svg id="Layer_1" data-name="Layer 1" xmlns="http://www.w3.org/2000/svg" viewBox="0 0 238.86 253.09">
  <defs>
    <style>
      .cls-1 {
        stroke-width: 0px;
      }
    </style>
  </defs>
  <path class="cls-1" d="m13.84,131.61c1.43-21.25,6.81-28.3,21.34-28.45,16.14-.17,19.81,5.21,21.97,33.28,18.79,8.31,38.04,17.07,57.55,25.19,3.17,1.32,7.96.8,11.27-.6,18.54-7.85,36.86-16.23,51.91-22.93,4.57-12.13,7.02-22.21,12.2-30.61,2.07-3.35,10.17-4.12,15.5-4.08,12.92.09,18.12,8.05,19.3,27.51,15.25,14.68,17.77,26.97,7.46,36.47-10.99,10.13-23.77,7.71-37.5-8.22-12.84,5.64-26.15,11.5-39.46,17.35-.04,1.07-.09,2.14-.13,3.22,12.92,5.76,25.84,11.52,38.41,17.13,19.52-16.18,31.34-17.51,41.09-5.12,7.87,10,4.17,22.66-9.34,31.95-4,25.66-7.93,30.21-25.37,29.29-13.08-.69-17.02-7.39-18.38-32.75-10.14-4.56-21.71-8.3-31.71-14.55-20.73-12.97-40.28-13.25-61.05-.06-9.7,6.16-21.07,9.68-27.99,12.76-4.65,12.41-6.94,22.21-12,30.27-2.1,3.35-10.08,4.09-15.39,4.13-13.45.1-18.35-7.36-19.67-28.01-14.89-12.44-17.88-24.56-8.52-34.51,10.87-11.55,23.61-9.61,38.88,6.82,12.67-5.54,25.77-11.26,38.88-16.99.25-1.09.51-2.17.76-3.26-13.15-5.89-26.31-11.79-39.06-17.5-17.55,16.35-29.33,18.11-39.71,6.62-9.06-10.04-6.04-22.49,8.73-34.33Z"/>
  <path class="cls-1" d="m138.74,135.56c-14.33,10.9-23.46,11.52-37.94.58-6.6.57-12.78,2.51-18.25,1.27-10.07-2.27-15.56-9.58-14.77-20.3.71-9.62-2.2-17.22-8.12-25.18-22.02-29.59-9.58-68.62,26.28-85,27.92-12.75,64.66-7.45,85.43,12.32,22.99,21.89,24.88,51.18,5.55,76.37-3.16,4.11-5.33,10.02-5.54,15.19-.95,24.43-8.68,30.58-32.64,24.76Zm-29.69-83.33c.09-10.14-9.32-19.28-20-19.41-10.49-.13-20.11,9.06-20.11,19.22,0,10.2,9.45,19.42,19.92,19.43,10.53.01,20.09-9.1,20.19-19.23Zm40.55-19.42c-10.72.23-20.03,9.42-19.85,19.57.18,10.13,9.83,19.17,20.35,19.08,10.52-.1,19.84-9.34,19.77-19.59-.07-10.15-9.79-19.29-20.26-19.06Zm-28.11,52.85c-1.34-.05-2.68-.09-4.02-.14-4.04,7.44-8.08,14.88-13.35,24.6h30.82c-5.44-9.9-9.45-17.18-13.45-24.46Z"/>
</svg>