<?xml version="1.0" encoding="UTF-8"?>
<svg id="Layer_1" data-name="Layer 1" xmlns="http://www.w3.org/2000/svg" viewBox="0 0 231.69 250.08">
  <defs>
    <style>
      .cls-1 {
        stroke-width: 0px;
      }
    </style>
  </defs>
  <path class="cls-1" d="m145.99,234.07c-20.36,20.66-38.32,22.11-60.88-.22-2.6,1.02-5.52,2.19-8.46,3.3-22.88,8.64-45.25-5.69-44.37-29.81.68-18.83-3.2-34.11-15.3-49.77C-10.03,122.58-3.93,67.67,29.01,35.17,82.6-17.69,175.74-9.97,215.7,51.65c23.07,35.58,21.28,80.58-5.98,113.02-7.87,9.37-10.71,18.52-10.64,30.27.06,9.93-.1,21.14-4.46,29.55-8.58,16.54-22.46,18.42-48.63,9.58Zm16.23-169.82c-19.39.21-35.49,16.89-34.94,36.17.53,18.44,16.98,33.96,35.9,33.86,18.62-.1,34.73-16.23,34.82-34.88.09-19.45-16.11-35.37-35.78-35.15Zm-93.02,70.03c18.96-.39,34.91-16.27,34.92-34.77,0-19.47-16.24-35.49-35.74-35.26-19.65.24-35.39,16.53-34.81,36.04.55,18.67,17.01,34.37,35.63,33.99Zm49.06,8.1c-1.73-.07-3.47-.13-5.2-.2-4.79,10.17-9.59,20.35-15.58,33.07h36.91c-6.44-13.12-11.28-22.99-16.12-32.87Z"/>
</svg>