<?xml version="1.0" encoding="UTF-8"?>
<svg id="Layer_1" data-name="Layer 1" xmlns="http://www.w3.org/2000/svg" viewBox="0 0 252.49 209.67">
  <defs>
    <style>
      .cls-1 {
        stroke-width: 0px;
      }
    </style>
  </defs>
  <path class="cls-1" d="m125.36,209.33c-22.51,0-45.07-.88-67.53.27-19.13.98-32.13-7.73-39.52-23.54-7.07-15.12-14.01-31.35-15.78-47.66C-.49,110.59-2.29,82.14,5.99,54.6c3.08-10.27,6.7-20.59,11.71-30.01C26.12,8.73,38.4-.44,58.21.02c45.47,1.04,91,.97,136.48.02,19.11-.4,31.99,7.92,39.52,23.66,6.8,14.22,13.23,29.51,15.28,44.93,4.6,34.5,5.31,69.33-8.07,102.62-2.95,7.33-6.6,14.57-11.09,21.05-7.88,11.36-18.34,17.75-33.22,17.25-23.89-.81-47.84-.22-71.76-.22Zm42.24-155.32c-7.38,2.6-9.98,7.51-9.93,14.34.09,13.08.03,26.15.03,39.77,3.9,2.39,7.32,4.48,9.9,6.06,8.24-2.47,10.98-7.06,10.78-14.14-.29-10.3-.16-20.61-.05-30.92.08-7.31-2.35-12.76-10.72-15.12Zm-73.08,53.15c0-12.83.12-26.8-.05-40.76-.08-6.97-3.53-11.35-13.08-12.41-1.97,3.39-6.12,7.35-6.37,11.55-.85,14.35-.32,28.78-.32,41.63,7.33,8.52,13.14,7.85,19.82-.01Zm50.28,69.55c2.23-13.62-.33-20.64-8.52-25.5-7.76-4.61-15.22-4.21-22.24,1.19-7.04,5.41-8.88,12.75-5.63,24.31h36.39Z"/>
</svg>