<?xml version="1.0" encoding="UTF-8"?>
<svg id="Layer_1" data-name="Layer 1" xmlns="http://www.w3.org/2000/svg" viewBox="0 0 157.5 250.11">
  <defs>
    <style>
      .cls-1 {
        stroke-width: 0px;
      }
    </style>
  </defs>
  <path class="cls-1" d="m79.11,0h16.63c5.12,25.37,25.5,39.68,42.26,56.62,26.36,26.63,22.75,55.67,8.26,84.8-1.3,2.62-5.02,4.04-7.62,6.02-1.11-.71-2.22-1.41-3.32-2.12,1.18-5.13,2.07-10.35,3.59-15.38,8.92-29.56-3.03-54.47-33.07-65.47-.36,5.44-.97,10.35-.97,15.26-.03,37.39-.62,74.8.39,112.17.52,19.32-7.61,32.85-22.57,42.98-16.41,11.11-34.02,18.93-54.63,13.37-28.84-7.78-37.16-36.28-16.94-58.38,13.38-14.62,30.26-20.52,49.86-18.79,4.64.41,9.24,1.19,15.72,2.04.59-6.14,1.55-11.48,1.56-16.82.12-46.39.04-92.77.1-139.16,0-5.53.47-11.06.74-17.17Z"/>
</svg>