<?xml version="1.0" encoding="UTF-8"?>
<svg id="Layer_1" data-name="Layer 1" xmlns="http://www.w3.org/2000/svg" viewBox="0 0 251.64 251.64">
  <defs>
    <style>
      .cls-1, .cls-2, .cls-3 {
        stroke-width: 0px;
      }

      .cls-2 {
        fill: #fff200;
      }

      .cls-3 {
        fill: #231f20;
      }
    </style>
  </defs>
  <circle class="cls-3" cx="206.85" cy="125.82" r="9.9"/>
  <path class="cls-3" d="m100.28,78.62s9.03,99.4,45.62,76.56c37.13-23.18-45.62-76.56-45.62-76.56Z"/>
  <circle class="cls-3" cx="192.78" cy="87.71" r="9.9"/>
  <circle class="cls-3" cx="163.87" cy="57.42" r="9.9"/>
  <circle class="cls-3" cx="86.69" cy="57.42" r="9.9"/>
  <circle class="cls-3" cx="57.18" cy="87.71" r="9.9"/>
  <circle class="cls-3" cx="125.1" cy="45.01" r="9.9"/>
  <circle class="cls-3" cx="43.89" cy="124" r="9.9"/>
  <path class="cls-1" d="m125.82,0C56.33,0,0,56.33,0,125.82s56.33,125.82,125.82,125.82,125.82-56.33,125.82-125.82S195.31,0,125.82,0Zm87.9,182.56s-.05.08-.08.12c-1.63,2.51-3.36,4.94-5.18,7.29-.03.04-.05.07-.08.11-.89,1.14-1.8,2.25-2.73,3.35-.07.09-.15.18-.22.26-.92,1.07-1.86,2.13-2.82,3.17-.08.09-.17.18-.25.27-.97,1.04-1.96,2.07-2.98,3.07-.05.05-.11.11-.16.16-3.18,3.13-6.55,6.06-10.11,8.76-.06.05-.13.1-.19.15-1.14.86-2.3,1.71-3.48,2.52-.09.06-.18.13-.28.19-1.18.81-2.37,1.6-3.58,2.37-.08.05-.16.1-.24.15-1.25.78-2.51,1.54-3.79,2.27,0,0,0,0,0,0h0c-15.26,8.7-32.92,13.67-51.74,13.67s-35.87-4.81-50.94-13.23c0,0,0,0-.01,0-11.24-6.28-21.21-14.58-29.4-24.4,0,0,0,0,0,0-1-1.2-1.98-2.43-2.93-3.68-.03-.04-.06-.08-.09-.12-.93-1.22-1.83-2.47-2.71-3.74-.05-.07-.09-.13-.14-.2-.86-1.25-1.7-2.52-2.5-3.81-.05-.08-.1-.16-.15-.24-.8-1.29-1.57-2.59-2.32-3.92-.05-.08-.09-.17-.14-.25-.74-1.33-1.46-2.68-2.15-4.04-.04-.07-.07-.15-.11-.22-.69-1.38-1.36-2.78-1.99-4.2-.02-.05-.04-.1-.06-.14-.64-1.45-1.26-2.92-1.84-4.4,0,0,0,0,0,0-4.6-11.78-7.12-24.6-7.12-38.01,0-57.78,46.84-104.61,104.61-104.61s104.61,46.84,104.61,104.61c0,12.74-2.28,24.94-6.45,36.23h0s0,0,0,0c-1.05,2.85-2.23,5.64-3.51,8.36-.04.08-.08.17-.12.25-.61,1.29-1.26,2.57-1.92,3.83-.06.12-.13.24-.19.36-.66,1.25-1.35,2.48-2.07,3.7-.06.11-.13.21-.19.32-.73,1.24-1.49,2.47-2.27,3.68Z"/>
  <path class="cls-1" d="m202.61,196.85c-.08.09-.17.18-.25.27.08-.09.17-.18.25-.27Z"/>
  <path class="cls-1" d="m215.99,178.88c.06-.11.13-.21.19-.32-.06.11-.13.21-.19.32Z"/>
  <path class="cls-1" d="m208.46,189.97s-.05.07-.08.11c.03-.03.05-.07.08-.11Z"/>
  <path class="cls-1" d="m205.65,193.43c-.07.09-.15.18-.22.26.07-.09.15-.17.22-.26Z"/>
  <path class="cls-1" d="m213.72,182.56s-.05.08-.08.12c.03-.04.05-.08.08-.12Z"/>
  <path class="cls-1" d="m189.12,209.11c-.06.05-.13.1-.19.15.06-.05.13-.1.19-.15Z"/>
  <path class="cls-1" d="m220.47,170.42c-.04.08-.08.17-.12.25.04-.08.08-.17.12-.25Z"/>
  <path class="cls-1" d="m181.58,214.34c-.08.05-.16.1-.24.15.08-.05.16-.1.24-.15Z"/>
  <polygon class="cls-1" points="177.56 216.76 177.56 216.76 177.56 216.76 177.56 216.76"/>
  <path class="cls-1" d="m199.39,200.19c-.05.05-.11.11-.16.16.05-.05.11-.1.16-.16Z"/>
  <polygon class="cls-1" points="223.99 162.05 223.99 162.05 223.99 162.06 223.99 162.05"/>
  <path class="cls-1" d="m218.44,174.5c-.06.12-.13.24-.19.36.06-.12.13-.24.19-.36Z"/>
  <path class="cls-1" d="m185.45,211.78c-.09.06-.18.13-.28.19.09-.06.19-.13.28-.19Z"/>
  <path class="cls-1" d="m42.53,189.12s-.06-.08-.09-.12c.03.04.06.08.09.12Z"/>
  <path class="cls-1" d="m30.23,168.38s-.04-.1-.06-.14c.02.05.04.1.06.14Z"/>
  <path class="cls-1" d="m45.47,192.8s0,0,0,0c0,0,0,0,0,0Z"/>
  <path class="cls-1" d="m74.88,217.21s0,0-.01,0c0,0,0,0,.01,0Z"/>
  <path class="cls-1" d="m32.33,172.8c-.04-.07-.07-.15-.11-.22.04.07.07.15.11.22Z"/>
  <path class="cls-1" d="m34.62,177.09c-.05-.08-.09-.17-.14-.25.05.08.09.17.14.25Z"/>
  <path class="cls-1" d="m39.73,185.26c-.05-.07-.09-.13-.14-.2.05.07.09.13.14.2Z"/>
  <polygon class="cls-1" points="28.33 163.83 28.33 163.83 28.33 163.83 28.33 163.83"/>
  <path class="cls-1" d="m37.09,181.25c-.05-.08-.1-.16-.15-.24.05.08.1.16.15.24Z"/>
  <path class="cls-2" d="m192.08,206.76c-.84.69-1.7,1.37-2.56,2.03.86-.66,1.72-1.34,2.56-2.03Z"/>
  <path class="cls-2" d="m184.74,212.26c-.89.61-1.79,1.2-2.7,1.79.91-.58,1.81-1.18,2.7-1.79Z"/>
  <path class="cls-2" d="m218.15,175.03c-.59,1.11-1.21,2.21-1.84,3.29.63-1.09,1.24-2.18,1.84-3.29Z"/>
  <path class="cls-2" d="m213.43,183c-.68,1.04-1.38,2.07-2.09,3.08.72-1.01,1.41-2.04,2.09-3.08Z"/>
  <path class="cls-2" d="m188.72,209.41c-1.02.77-2.05,1.51-3.09,2.24,1.04-.73,2.07-1.48,3.09-2.24Z"/>
  <path class="cls-2" d="m222.22,166.5c-.52,1.24-1.08,2.46-1.65,3.68.57-1.21,1.12-2.44,1.65-3.68Z"/>
  <path class="cls-2" d="m220.27,170.85c-.59,1.24-1.21,2.48-1.85,3.69.64-1.22,1.26-2.45,1.85-3.69Z"/>
  <path class="cls-2" d="m223.85,162.39c-.49,1.32-1.01,2.63-1.55,3.93.54-1.3,1.06-2.61,1.55-3.93Z"/>
  <path class="cls-2" d="m215.99,178.89c-.69,1.17-1.4,2.32-2.14,3.46.73-1.14,1.45-2.29,2.14-3.46Z"/>
  <path class="cls-2" d="m205.5,193.6c-.87,1.02-1.76,2.01-2.66,2.99.9-.98,1.79-1.98,2.66-2.99Z"/>
  <path class="cls-3" d="m214.74,160.98c3.18,0,6.27.38,9.24,1.08,1.22-3.31,2.29-6.69,3.18-10.14-3.97-1-8.13-1.53-12.41-1.53-28.1,0-50.88,22.78-50.88,50.88,0,7.21,1.51,14.07,4.22,20.28,3.25-1.44,6.41-3.04,9.47-4.79-1.99-4.77-3.09-10-3.09-15.49,0-22.25,18.03-40.28,40.28-40.28Z"/>
  <path class="cls-2" d="m181.28,214.53c-1.08.67-2.17,1.32-3.27,1.96,1.1-.64,2.19-1.29,3.27-1.96Z"/>
  <path class="cls-2" d="m202.16,197.33c-.9.96-1.81,1.91-2.75,2.83.93-.93,1.85-1.87,2.75-2.83Z"/>
  <path class="cls-2" d="m199.02,200.55c-.84.82-1.69,1.63-2.56,2.42.87-.79,1.72-1.6,2.56-2.42Z"/>
  <path class="cls-2" d="m211.05,186.49c-.78,1.09-1.58,2.17-2.4,3.23.82-1.06,1.62-2.13,2.4-3.23Z"/>
  <path class="cls-2" d="m208.09,190.44c-.81,1.03-1.63,2.04-2.47,3.03.84-.99,1.66-2.01,2.47-3.03Z"/>
  <path class="cls-2" d="m195.7,203.66c-.96.86-1.93,1.7-2.92,2.53.99-.82,1.96-1.67,2.92-2.53Z"/>
  <path class="cls-2" d="m66.32,211.86c-1.04-.72-2.07-1.46-3.08-2.22,1.01.76,2.04,1.5,3.08,2.22Z"/>
  <path class="cls-2" d="m45.17,192.43c-.87-1.05-1.72-2.11-2.55-3.2.83,1.08,1.68,2.15,2.55,3.2Z"/>
  <path class="cls-2" d="m42.13,188.57c-.71-.95-1.41-1.91-2.09-2.88.68.97,1.38,1.93,2.09,2.88Z"/>
  <path class="cls-2" d="m70.36,214.52c-1.19-.75-2.37-1.51-3.53-2.3,1.16.79,2.33,1.56,3.53,2.3Z"/>
  <path class="cls-2" d="m39.46,184.85c-.76-1.11-1.5-2.24-2.22-3.39.72,1.14,1.46,2.27,2.22,3.39Z"/>
  <path class="cls-2" d="m62.55,209.12c-1.1-.84-2.19-1.7-3.26-2.58,1.07.88,2.15,1.74,3.26,2.58Z"/>
  <path class="cls-2" d="m48.48,196.25c-.9-.98-1.77-1.99-2.62-3,.86,1.02,1.73,2.02,2.62,3Z"/>
  <path class="cls-2" d="m55.28,203.07c-1.02-.93-2.02-1.89-3-2.86.98.97,1.98,1.93,3,2.86Z"/>
  <path class="cls-2" d="m51.55,199.47c-.98-.99-1.95-1.99-2.89-3.02.94,1.03,1.91,2.03,2.89,3.02Z"/>
  <path class="cls-3" d="m94.1,201.26c0-28.1-22.78-50.88-50.88-50.88-6.43,0-12.57,1.2-18.24,3.38.95,3.43,2.08,6.79,3.36,10.07,4.6-1.83,9.62-2.85,14.88-2.85,22.25,0,40.28,18.03,40.28,40.28,0,6.55-1.57,12.73-4.35,18.2,3.15,1.58,6.39,3.01,9.72,4.26,3.34-6.77,5.22-14.4,5.22-22.46Z"/>
  <path class="cls-2" d="m32.01,172.14c-.6-1.21-1.18-2.42-1.73-3.65.55,1.23,1.13,2.45,1.73,3.65Z"/>
  <path class="cls-2" d="m78.69,219.22c-1.28-.65-2.55-1.31-3.81-2.01,1.25.7,2.52,1.36,3.81,2.01Z"/>
  <path class="cls-2" d="m58.6,205.96c-.96-.81-1.91-1.63-2.84-2.47.93.84,1.88,1.66,2.84,2.47Z"/>
  <path class="cls-2" d="m30.06,167.96c-.51-1.16-1-2.33-1.47-3.52.47,1.18.96,2.36,1.47,3.52Z"/>
  <path class="cls-2" d="m36.67,180.55c-.62-1.01-1.23-2.03-1.81-3.06.59,1.03,1.19,2.05,1.81,3.06Z"/>
  <path class="cls-2" d="m34.45,176.79c-.66-1.18-1.29-2.38-1.91-3.59.62,1.21,1.25,2.41,1.91,3.59Z"/>
  <path class="cls-2" d="m74.85,217.19c-1.25-.7-2.47-1.43-3.68-2.17,1.21.74,2.44,1.47,3.68,2.17Z"/>
</svg>