<?xml version="1.0" encoding="UTF-8"?>
<svg id="Layer_1" data-name="Layer 1" xmlns="http://www.w3.org/2000/svg" viewBox="0 0 206.45 247.11">
  <defs>
    <style>
      .cls-1 {
        stroke-width: 0px;
      }
    </style>
  </defs>
  <path class="cls-1" d="m8.65,69.54c-2.76-7.68-5.51-15.37-8.65-24.13,6.8-1.25,10.91-2,14.23-2.6-1.94-6.28-6.73-13.33-4.94-17.73C12.97,16.01,20.16,8.36,26,0c18.43,15.97,19.64,21.73,9.95,43.24,4.97.59,9.72,1.15,14.58,1.73,1.48,7.14,2.77,13.39-4.97,17.44-1.61.84-3.25,3.48-3.23,5.27.27,16.89.9,33.77,1.44,51.34,7.9-.5,13.83-.4,19.58-1.34,9.29-1.52,11.33-8.27,4.86-15.32-1.87-2.04-4.28-3.57-6.42-5.37-2.09-1.76-4.15-3.55-7.34-6.29,2.26-2.93,3.82-6.94,6.11-7.41,2.61-.54,6.27,1.57,8.78,3.44,4.86,3.61,9.23,7.86,16.1,13.84,1.71-8.53,2.75-14.37,4.09-20.14,1.26-5.45.12-13.44,11.4-10.69.51,9.13,1.01,18.21,1.54,27.85,13.57,3.06,20.64-10.18,32.74-11.36,3.14,12.55-12.32,15.01-13.12,26.2,11.1,1.9,22.12,3.78,34.93,5.97-7.45,15.7-20.42,3.87-30.28,10.61-1.63,3.8-3.97,9.8-6.73,15.59-4.96,10.41-9.7,22.42-23.05,23.14-13.41.72-18.14-11.25-23.34-21.08-2.87-5.43-5.05-11.22-7.73-17.27h-15.74c.75,2.84.72,5.21,1.86,6.63,6.99,8.68,13.75,17.63,21.56,25.54,7.72,7.82,17.96,11.5,28.97,10.83,22.58-1.38,38.4,8,48.17,28.07.67,1.38,1.6,2.66,2.6,3.84.57.67,1.51,1.01,3.43,2.23,3.11-6.24,6.14-12.31,9.86-19.78,17.26,6.53,27.29,20.39,39.86,30.56-7.81,10.74-14.5,19.96-21.64,29.79H47.38c-.34-6.19-.66-11.95-1.01-18.36-2.41-1.79-5.18-3.71-7.81-5.81-11.18-8.93-16.84-20.47-16.37-34.82.07-2.17.08-4.4.6-6.48,6.87-27.14.22-53.54-4.42-80.03-.73-4.18-2.99-8.09-4.37-12.18-2.2-6.5-4.25-13.04-6.37-19.57l1.02-.34Z"/>
</svg>