<?xml version="1.0" encoding="UTF-8"?>
<svg id="Layer_1" data-name="Layer 1" xmlns="http://www.w3.org/2000/svg" viewBox="0 0 216.28 253.16">
  <defs>
    <style>
      .cls-1 {
        stroke-width: 0px;
      }
    </style>
  </defs>
  <path class="cls-1" d="m195.81,37.55c6.78,7.68,12.65,14.33,19.32,21.88-6.66,7.12-12.75,13.63-19.53,20.87,23.23,36.82,27.95,74.94,8.71,114.16-13.98,28.51-37.17,47.1-67.65,54.92-58.79,15.08-117.86-15.77-133.21-77.33C-10.86,114.68,19.13,51.26,97.26,36.72c.33-4.18.69-8.75,1.09-13.74-3.2-2.44-6.17-4.71-9.1-6.94V0h37.52v16.47c-2.35,1.54-5.17,3.37-8.15,5.32v13.14c18.52,7.06,36.16,13.79,55.67,21.23,5.36-4.64,12.1-10.46,21.51-18.61Zm-88.21,194.04c47.76.1,86.7-38.2,86.93-85.5.23-47.58-38.28-86.87-85.38-87.12-47.92-.25-87.45,38.09-87.56,84.9-.11,48.71,38.04,87.62,86.01,87.72Z"/>
  <path class="cls-1" d="m114.71,173.85h-13.31c-3.74-6.41-8.08-11.56-9.83-17.48-1.86-6.27-4.27-15.81-1.18-19.49,9.72-11.55,7.38-24.32,7.84-37.07.14-3.79.61-7.57.99-12.12h18.7c0,8.11-.91,15.5.24,22.56,1.32,8.15,5.28,15.87,6.56,24.02,1.13,7.24,1.38,15.09-.25,22.14-1.37,5.91-6.03,11.06-9.75,17.44Z"/>
</svg>