<?xml version="1.0" encoding="UTF-8"?>
<svg id="Layer_1" data-name="Layer 1" xmlns="http://www.w3.org/2000/svg" viewBox="0 0 243.92 244.29">
  <defs>
    <style>
      .cls-1, .cls-2 {
        stroke-width: 0px;
      }

      .cls-2 {
        isolation: isolate;
        opacity: .47;
      }
    </style>
  </defs>
  <path class="cls-2" d="m190.62,140.42l53.3-18.35-53.13-18.29,37.09-42.71-55.52,10.84,10.71-55.67-42.55,37.15L122.14,0l-18.38,53.4L61.07,16.33l10.82,55.47-55.46-10.85,37.1,42.77L0,122.15l53.46,18.4-37.05,42.67,55.59-10.85-10.71,55.68,42.5-37.1,18.36,53.34,18.43-53.55,42.78,37.14-10.81-55.36,55.3,10.82-37.23-42.92h0Zm-68.43-18.46l.89-3.19-.81,3.17-.07.02h0Zm-.1.03l-.09.02-3.49-3.56,3.57,3.5v.03h0Zm0,.17h.03l-2.18,2.16,2.11-2.15h.04Zm.09.02l-.02.02v-.02h.02Zm.02.02l.04.04.99,3.83-1.07-3.86h.04Z"/>
  <circle class="cls-1" cx="122.14" cy="122.14" r="71.26"/>
</svg>