<?xml version="1.0" encoding="UTF-8"?>
<svg id="Layer_1" data-name="Layer 1" xmlns="http://www.w3.org/2000/svg" viewBox="0 0 236.48 236.38">
  <defs>
    <style>
      .cls-1 {
        stroke-width: 0px;
      }
    </style>
  </defs>
  <path class="cls-1" d="m166.28,118.08c.11,28.71-19.56,48.44-48.3,48.44s-47.81-19.7-48.01-47.23c-.22-29.14,19-48.97,47.59-49.11,28.99-.15,48.61,19.13,48.72,47.9Zm-48.59-21.76c-11.5.24-21.66,10.31-21.87,21.67-.21,11.55,11.13,22.85,22.78,22.68,11.89-.17,22.21-11.47,21.56-23.59-.63-11.7-10.7-21-22.48-20.76Z"/>
  <path class="cls-1" d="m42.88,29.7c8.56.27,28.16,18.93,28.08,27.74-.03,3.76-1.94,9.51-4.67,10.77-4.23,1.97-11.41,2.99-14.63.66-7.58-5.49-14.75-12.41-19.86-20.21-5.76-8.77,1.13-19.27,11.08-18.96Z"/>
  <path class="cls-1" d="m178.26,165.27c8.52.23,27.72,18.91,28.44,27.68.82,9.95-9.72,17.73-18.28,12.12-8.22-5.39-15.87-12.81-21.31-20.97-5.94-8.91.94-19.1,11.15-18.83Z"/>
  <path class="cls-1" d="m71.28,178.15c-.12,9.37-19.88,28.7-29.21,28.57-9.41-.13-15.93-9.79-10.55-18.11,5.33-8.25,12.67-15.95,20.77-21.47,8.78-5.98,19.12.86,18.99,11Z"/>
  <path class="cls-1" d="m206.73,42.13c.08,9.4-19.18,28.7-28.83,28.9-10.07.21-16.78-10.2-10.71-19.03,5.55-8.1,13.33-15.31,21.57-20.73,8.01-5.28,17.9,1.53,17.98,10.86Z"/>
  <path class="cls-1" d="m108.41,236.38c-3.62-15.54-3.98-29.43.37-44.74h18.21c5.96,14.89,3.53,29.16,1.7,44.74h-20.28Z"/>
  <path class="cls-1" d="m107.33,0h19.94c5.04,14.7,3.85,28.51,1.02,44.31h-20.96V0Z"/>
  <path class="cls-1" d="m0,128.7v-20c15.26-3.86,29.1-3.67,44.67-.16v18.92c-15.26,4.78-29.13,3.04-44.67,1.24Z"/>
  <path class="cls-1" d="m193.63,128.81c-5.66-17.57-2.98-22.27,12.04-22.6,9.88-.22,19.78.77,30.81,1.28v19.83c-14.45,4.83-28.39,3.3-42.85,1.5Z"/>
</svg>