<?xml version="1.0" encoding="UTF-8"?>
<svg id="Layer_1" data-name="Layer 1" xmlns="http://www.w3.org/2000/svg" viewBox="0 0 203.28 222.23">
  <defs>
    <style>
      .cls-1, .cls-2 {
        stroke-width: 0px;
      }

      .cls-2 {
        isolation: isolate;
        opacity: .03;
      }
    </style>
  </defs>
  <path class="cls-1" d="m185.84,0H17.43C7.8,0,0,7.81,0,17.43v153.13c0,9.63,7.81,17.43,17.43,17.43h48.74l34.24,34.24,34.24-34.24h51.2c9.63,0,17.43-7.81,17.43-17.43V17.43c0-9.63-7.81-17.43-17.43-17.43h-.01Zm-85.43,24.4c17.71,0,32.07,14.36,32.07,32.07s-14.36,32.07-32.07,32.07-32.07-14.36-32.07-32.07,14.36-32.07,32.07-32.07Zm47.56,136.86H52.91s-9.55-60.69,48.59-60.69,46.47,60.69,46.47,60.69Z"/>
  <path class="cls-2" d="m100.41,88.54c17.71,0,32.07-14.36,32.07-32.07s-14.36-32.07-32.07-32.07-32.07,14.36-32.07,32.07,14.36,32.07,32.07,32.07Z"/>
  <path class="cls-2" d="m101.5,100.58c-58.14,0-48.59,60.69-48.59,60.69h95.06s8.91-60.69-46.47-60.69h0Z"/>
</svg>