<?xml version="1.0" encoding="UTF-8"?>
<svg id="Layer_1" data-name="Layer 1" xmlns="http://www.w3.org/2000/svg" viewBox="0 0 198.79 249.29">
  <defs>
    <style>
      .cls-1 {
        stroke-width: 0px;
      }
    </style>
  </defs>
  <path class="cls-1" d="m34.68,58.97v-14.18H9.56v14.18H0v190.32h43.6V58.97h-8.92Zm-17.16,176.66H6.6v-10.09h10.92v10.09Zm0-16.37H6.6v-10.09h10.92v10.09Zm0-16.37H6.6v-10.09h10.92v10.09Zm0-16.37H6.6v-10.09h10.92v10.09Zm0-16.37H6.6v-10.09h10.92v10.09Zm0-16.37H6.6v-10.09h10.92v10.09Zm0-16.37H6.6v-10.09h10.92v10.09Zm0-16.37H6.6v-10.09h10.92v10.09Zm0-16.37H6.6v-10.09h10.92v10.09Zm0-16.37H6.6v-10.09h10.92v10.09Zm19.47,147.35h-10.92v-10.09h10.92v10.09Zm0-16.37h-10.92v-10.09h10.92v10.09Zm0-16.37h-10.92v-10.09h10.92v10.09Zm0-16.37h-10.92v-10.09h10.92v10.09Zm0-16.37h-10.92v-10.09h10.92v10.09Zm0-16.37h-10.92v-10.09h10.92v10.09Zm0-16.37h-10.92v-10.09h10.92v10.09Zm0-16.37h-10.92v-10.09h10.92v10.09Zm0-16.37h-10.92v-10.09h10.92v10.09Zm0-16.37h-10.92v-10.09h10.92v10.09Z"/>
  <path class="cls-1" d="m52.27,80.09v169.2h43.6V80.09h-43.6Zm17.52,14.47v10.09h-10.92v-10.09h10.92Zm0,16.37v10.09h-10.92v-10.09s10.92,0,10.92,0Zm0,16.37v10.09h-10.92v-10.09h10.92Zm0,16.37v10.09h-10.92v-10.09h10.92Zm0,16.37v10.09h-10.92v-10.09h10.92Zm0,16.37v10.09h-10.92v-10.09h10.92Zm0,16.37v10.09h-10.92v-10.09h10.92Zm0,16.37v10.09h-10.92v-10.09h10.92Zm0,16.37v10.09h-10.92v-10.09h10.92Zm8.56,10.09v-10.09h10.92v10.09h-10.92Zm0-16.37v-10.09h10.92v10.09h-10.92Zm0-16.37v-10.09h10.92v10.09h-10.92Zm0-16.37v-10.09h10.92v10.09h-10.92Zm0-16.37v-10.09h10.92v10.09h-10.92Zm0-16.37v-10.09h10.92v10.09h-10.92Zm0-16.37v-10.09h10.92v10.09h-10.92Zm0-16.37v-10.09h10.92v10.09s-10.92,0-10.92,0Zm0-16.37v-10.09h10.92v10.09h-10.92Z"/>
  <path class="cls-1" d="m103.61,16.75v232.54h43.6V0l-43.6,16.75Zm17.52,12.32v10.09h-10.92v-10.09h10.92Zm0,16.37v10.09h-10.92v-10.09h10.92Zm0,16.37v10.09h-10.92v-10.09s10.92,0,10.92,0Zm0,16.37v10.09h-10.92v-10.09h10.92Zm0,16.37v10.09h-10.92v-10.09s10.92,0,10.92,0Zm0,16.37v10.09h-10.92v-10.09h10.92Zm0,16.37v10.09h-10.92v-10.09s10.92,0,10.92,0Zm0,16.37v10.09h-10.92v-10.09h10.92Zm0,16.37v10.09h-10.92v-10.09h10.92Zm0,16.37v10.09h-10.92v-10.09h10.92Zm0,16.37v10.09h-10.92v-10.09h10.92Zm0,16.37v10.09h-10.92v-10.09h10.92Zm-10.92,16.37h10.92v10.09h-10.92v-10.09Zm19.47,10.09v-10.09h10.92v10.09h-10.92Zm0-16.37v-10.09h10.92v10.09h-10.92Zm0-16.37v-10.09h10.92v10.09h-10.92Zm0-16.37v-10.09h10.92v10.09h-10.92Zm0-16.37v-10.09h10.92v10.09h-10.92Zm0-16.37v-10.09h10.92v10.09h-10.92Zm0-16.37v-10.09h10.92v10.09h-10.92Zm0-16.37v-10.09h10.92v10.09s-10.92,0-10.92,0Zm0-16.37v-10.09h10.92v10.09h-10.92Zm0-16.37v-10.09h10.92v10.09s-10.92,0-10.92,0Zm0-16.37v-10.09h10.92v10.09h-10.92Zm0-16.37v-10.09h10.92v10.09h-10.92Zm0-16.37v-10.09h10.92v10.09h-10.92Z"/>
  <path class="cls-1" d="m190.9,99.6v-7.32h-8.36v7.32h-12.39v-7.89h-8.36v7.89h-6.6v149.69h43.6V99.6h-7.89Zm-18.2,11.33v10.09h-10.92v-10.09s10.92,0,10.92,0Zm0,16.37v10.09h-10.92v-10.09h10.92Zm0,16.37v10.09h-10.92v-10.09h10.92Zm0,16.37v10.09h-10.92v-10.09h10.92Zm0,16.37v10.09h-10.92v-10.09h10.92Zm0,16.37v10.09h-10.92v-10.09h10.92Zm0,16.37v10.09h-10.92v-10.09h10.92Zm-10.92,16.37h10.92v10.09h-10.92v-10.09Zm19.47,10.09v-10.09h10.92v10.09h-10.92Zm0-16.37v-10.09h10.92v10.09h-10.92Zm0-16.37v-10.09h10.92v10.09h-10.92Zm0-16.37v-10.09h10.92v10.09h-10.92Zm0-16.37v-10.09h10.92v10.09h-10.92Zm0-16.37v-10.09h10.92v10.09h-10.92Zm0-16.37v-10.09h10.92v10.09h-10.92Zm0-16.37v-10.09h10.92v10.09s-10.92,0-10.92,0Z"/>
</svg>