<?xml version="1.0" encoding="UTF-8"?>
<svg id="Layer_1" data-name="Layer 1" xmlns="http://www.w3.org/2000/svg" viewBox="0 0 253.93 253.93">
  <defs>
    <style>
      .cls-1, .cls-2, .cls-3 {
        fill: #231f20;
        stroke-width: 0px;
      }

      .cls-2 {
        opacity: .68;
      }

      .cls-3 {
        opacity: .49;
      }
    </style>
  </defs>
  <path class="cls-3" d="m125.91,126.97l86.13-94.25s41.9,34.5,41.9,95.33-45.11,95.98-45.11,95.98l-82.91-97.06Z"/>
  <path class="cls-2" d="m126.97,0C56.84,0,0,56.84,0,126.97s56.84,126.97,126.97,126.97,126.97-56.84,126.97-126.97S197.09,0,126.97,0Zm118.88,121.85c-.06-1.45-.14-2.89-.26-4.33h-25.32c-4.43-44.25-39.61-79.43-83.86-83.86V8.34c-1.43-.11-2.88-.19-4.33-.26,61.65,2.61,111.15,52.12,113.76,113.76Zm.12,5.12c0,1.44-.03,2.88-.09,4.31.05-1.43.09-2.87.09-4.31s-.03-2.88-.09-4.31c.05,1.43.09,2.87.09,4.31Zm-66.5-9.45c-3.91-21.89-21.16-39.14-43.05-43.05v-32.57c39.72,4.36,71.26,35.9,75.62,75.62h-32.57Zm-61.94-33.93v33.93h-33.93c3.67-16.93,17-30.26,33.93-33.93h0Zm0,52.82v33.93h0c-16.93-3.67-30.26-17-33.93-33.93h33.93Zm18.89,33.93v-33.93h33.93c-3.67,16.93-17,30.26-33.93,33.93h0Zm33.93-52.82h-33.93v-33.93h0c16.93,3.67,30.26,17,33.93,33.93h0Zm-52.82-43.05c-21.89,3.91-39.14,21.16-43.05,43.05h-32.57c4.36-39.72,35.9-71.26,75.62-75.62v32.57Zm-43.05,61.94c3.91,21.89,21.16,39.14,43.05,43.05v32.57c-39.72-4.36-71.26-35.9-75.62-75.62h32.57Zm61.94,43.05c21.89-3.91,39.14-21.16,43.05-43.05h32.57c-4.36,39.72-35.9,71.26-75.62,75.62v-32.57Zm-5.14-171.41c-1.43-.05-2.87-.09-4.31-.09s-2.88.03-4.31.09c1.43-.05,2.87-.09,4.31-.09s2.88.03,4.31.09Zm-9.43.03c-1.45.06-2.89.14-4.33.26v25.32c-44.25,4.43-79.43,39.61-83.86,83.86H8.34c-.11,1.43-.19,2.88-.26,4.33C10.7,60.2,60.2,10.7,121.85,8.08ZM8.05,122.66c-.05,1.43-.09,2.87-.09,4.31s.03,2.88.09,4.31c-.05-1.43-.09-2.87-.09-4.31s.03-2.88.09-4.31Zm.03,9.43c.06,1.45.14,2.89.26,4.33h25.32c4.43,44.25,39.61,79.43,83.86,83.86v25.32c1.43.11,2.88.19,4.33.26-61.65-2.61-111.15-52.11-113.76-113.76Zm114.57,113.79c1.43.05,2.87.09,4.31.09s2.88-.03,4.31-.09c-1.43.05-2.87.09-4.31.09s-2.88-.03-4.31-.09Zm9.43-.03c1.45-.06,2.89-.14,4.33-.26v-25.32c44.25-4.43,79.43-39.61,83.86-83.86h25.32c.11-1.43.19-2.88.26-4.33-2.61,61.65-52.11,111.15-113.76,113.76Z"/>
  <circle class="cls-1" cx="80.76" cy="49.63" r="14.02"/>
  <circle class="cls-1" cx="172.36" cy="202.99" r="14.02"/>
</svg>