<?xml version="1.0" encoding="UTF-8"?>
<svg id="Layer_1" data-name="Layer 1" xmlns="http://www.w3.org/2000/svg" viewBox="0 0 247.59 248.32">
  <defs>
    <style>
      .cls-1, .cls-2 {
        stroke-width: 0px;
      }

      .cls-2 {
        fill: #fff;
      }
    </style>
  </defs>
  <path class="cls-1" d="m247.42,124.56c3.84,64.56-57.39,124.37-124.63,123.75C61.7,247.75-1.65,192.81.03,120.67,1.42,61.15,55.44-2.04,128.47.05c59.29,1.7,122.79,56.16,118.95,124.51Zm-123.2,95.17c52.91-.02,95.62-42.92,95.57-95.99-.05-52.74-43.15-95.4-96.31-95.31-52.15.08-94.87,43.05-94.89,95.45-.03,53.16,42.58,95.87,95.63,95.85Z"/>
  <path class="cls-2" d="m124.23,219.74c-53.05.02-95.66-42.68-95.63-95.85.03-52.4,42.75-95.37,94.89-95.45,53.16-.08,96.26,42.57,96.31,95.31.05,53.06-42.67,95.97-95.57,95.99Zm-.38-25.02c40.65.02,70.86-29.8,70.91-70.01.06-40.74-29.68-71.11-69.71-71.18-41.3-.08-71.67,29.83-71.68,70.59,0,40.37,30.16,70.58,70.48,70.6Z"/>
  <path class="cls-1" d="m123.84,194.72c-40.32-.02-70.49-30.24-70.48-70.6,0-40.76,30.38-70.67,71.68-70.59,40.03.08,69.77,30.44,69.71,71.18-.06,40.21-30.26,70.03-70.91,70.01Zm.81-27.6c23.55-.25,42.7-20.05,42.34-43.78-.36-23.61-20.16-42.56-43.96-42.06-23.03.48-41.89,19.91-41.84,43.09.06,23.43,19.95,43,43.45,42.76Z"/>
  <path class="cls-2" d="m124.65,167.12c-23.5.25-43.39-19.32-43.45-42.76-.06-23.18,18.81-42.61,41.84-43.09,23.79-.5,43.6,18.45,43.96,42.06.36,23.73-18.79,43.53-42.34,43.78Zm-.85-25.3c11.02.12,17.96-6.53,18.11-17.35.15-10.9-6.62-17.91-17.42-18.05-11.06-.14-17.85,6.41-18,17.37-.15,11.05,6.43,17.9,17.31,18.02Z"/>
  <path class="cls-1" d="m123.81,141.82c-10.88-.12-17.47-6.98-17.31-18.02.15-10.96,6.94-17.51,18-17.37,10.8.14,17.57,7.15,17.42,18.05-.15,10.81-7.09,17.47-18.11,17.35Z"/>
</svg>