<?xml version="1.0" encoding="UTF-8"?>
<svg id="Layer_1" data-name="Layer 1" xmlns="http://www.w3.org/2000/svg" viewBox="0 0 227.45 239.48">
  <defs>
    <style>
      .cls-1 {
        stroke-width: 0px;
      }
    </style>
  </defs>
  <polygon class="cls-1" points="179.79 10.47 200.07 0 227.45 62.96 206.11 68.65 179.79 10.47"/>
  <path class="cls-1" d="m121.33,116.62c-.63-2.58-2.3-4.63-4.45-5.84l-1.65-17.9h0l79.11-21.1-25.3-55.79L0,103.27l6.53,18.6,72.33-19.29-.64,7.97c-2.35,1.17-4.18,3.32-4.86,6.06l-27.17,110.98c-1.21,4.94,1.82,9.93,6.76,11.14l1.95.48c4.94,1.21,9.93-1.82,11.14-6.76l20.89-85.36v83.17c0,5.09,4.13,9.21,9.21,9.21h2.01c5.09,0,9.21-4.13,9.21-9.21v-84.61l21.25,86.8c1.21,4.94,6.2,7.97,11.14,6.76l1.95-.48c4.94-1.21,7.97-6.2,6.76-11.14l-27.17-110.98h.04Z"/>
</svg>