<?xml version="1.0" encoding="UTF-8"?>
<svg id="Layer_1" data-name="Layer 1" xmlns="http://www.w3.org/2000/svg" viewBox="0 0 125.19 250.88">
  <defs>
    <style>
      .cls-1 {
        stroke-width: 0px;
      }
    </style>
  </defs>
  <path class="cls-1" d="m94.67,61.1c10.36,1.11,18.96,2.04,30.52,3.28-20.31,29.61-38.93,56.77-59.48,86.74,12.78,1.07,21.9,1.84,31.04,2.61-1.21,10.41-45.71,83.84-59.38,97.15v-69.62c-12.73-.95-23.74-1.77-36.91-2.75,5.91-15.94,11.23-29.96,16.3-44.08,5.03-14.02,12.87-27.21,14.52-43.6-10.77-.93-19.97-1.72-31.27-2.69C12.29,57.77,23.81,29.29,35.67,0h79.81c-.88,3.64-1.25,6.75-2.37,9.55-4.98,12.38-10.36,24.61-15.19,37.05-1.61,4.15-2,8.77-3.24,14.5Z"/>
</svg>