<?xml version="1.0" encoding="UTF-8"?>
<svg id="Layer_1" data-name="Layer 1" xmlns="http://www.w3.org/2000/svg" viewBox="0 0 181.29 235.98">
  <defs>
    <style>
      .cls-1 {
        stroke-width: 0px;
      }
    </style>
  </defs>
  <path class="cls-1" d="m0,0v235.49l30.31-30.31,30.17,30.17,30.17-30.17,29.72,29.72,29.92-29.92,31,31V0H0Zm29.71,54.35c0-1.77,1.43-3.2,3.2-3.2h98.56c1.77,0,3.2,1.43,3.2,3.2v6.75c0,1.77-1.43,3.2-3.2,3.2H32.91c-1.77,0-3.2-1.43-3.2-3.2v-6.75h0Zm0,42.81c0-1.77,1.43-3.2,3.2-3.2h98.56c1.77,0,3.2,1.43,3.2,3.2v6.75c0,1.77-1.43,3.2-3.2,3.2H32.91c-1.77,0-3.2-1.43-3.2-3.2v-6.75h0Zm-13.25,86.28c-3.91,0-7.08-3.17-7.08-7.08s3.17-7.08,7.08-7.08,7.08,3.17,7.08,7.08-3.17,7.08-7.08,7.08Zm20.93,0c-3.91,0-7.08-3.17-7.08-7.08s3.17-7.08,7.08-7.08,7.08,3.17,7.08,7.08-3.17,7.08-7.08,7.08Zm21.05,0c-3.91,0-7.08-3.17-7.08-7.08s3.17-7.08,7.08-7.08,7.08,3.17,7.08,7.08-3.17,7.08-7.08,7.08Zm20.93,0c-3.91,0-7.08-3.17-7.08-7.08s3.17-7.08,7.08-7.08,7.08,3.17,7.08,7.08-3.17,7.08-7.08,7.08Zm21.78,0c-3.91,0-7.08-3.17-7.08-7.08s3.17-7.08,7.08-7.08,7.08,3.17,7.08,7.08-3.17,7.08-7.08,7.08h0Zm20.93,0c-3.91,0-7.08-3.17-7.08-7.08s3.17-7.08,7.08-7.08,7.08,3.17,7.08,7.08-3.17,7.08-7.08,7.08Zm12.61-36.71c0,1.77-1.43,3.2-3.2,3.2H32.93c-1.77,0-3.2-1.43-3.2-3.2v-6.75c0-1.77,1.43-3.2,3.2-3.2h98.56c1.77,0,3.2,1.43,3.2,3.2v6.75Zm9.21,36.71c-3.91,0-7.08-3.17-7.08-7.08s3.17-7.08,7.08-7.08,7.08,3.17,7.08,7.08-3.17,7.08-7.08,7.08Zm7.68-58.12c0,1.77-1.43,3.2-3.2,3.2H32.93c-1.77,0-3.2-1.43-3.2-3.2v-6.75c0-1.77,1.43-3.2,3.2-3.2h115.45c1.77,0,3.2,1.43,3.2,3.2v6.75Zm0-42.81c0,1.77-1.43,3.2-3.2,3.2H32.93c-1.77,0-3.2-1.43-3.2-3.2v-6.75c0-1.77,1.43-3.2,3.2-3.2h115.45c1.77,0,3.2,1.43,3.2,3.2v6.75Zm0-42.81c0,1.77-1.43,3.2-3.2,3.2H32.93c-1.77,0-3.2-1.43-3.2-3.2v-6.75c0-1.77,1.43-3.2,3.2-3.2h115.45c1.77,0,3.2,1.43,3.2,3.2v6.75Zm13.25,143.74c-3.91,0-7.08-3.17-7.08-7.08s3.17-7.08,7.08-7.08,7.08,3.17,7.08,7.08-3.17,7.08-7.08,7.08Z"/>
</svg>