<?xml version="1.0" encoding="UTF-8"?>
<svg id="Layer_1" data-name="Layer 1" xmlns="http://www.w3.org/2000/svg" viewBox="0 0 240.7 240.26">
  <defs>
    <style>
      .cls-1 {
        fill: #231f20;
        opacity: .41;
      }

      .cls-1, .cls-2 {
        stroke-width: 0px;
      }
    </style>
  </defs>
  <path class="cls-2" d="m99.77,55.64c-11.52-13.94-20.61-30.07-38.05-39.56V1.09h15.68c8.52,24.2,27.79,38.27,42.7,58.59,16.08-19.82,34.38-34.62,43.59-58.66,3.78-.26,8.4-.58,14.6-1.01.74,6.11,1.34,11.03,1.89,15.59-18.39,9.68-27.09,26.31-41.73,42.43,7.21.82,11.25,1.65,15.29,1.67,21.18.14,42.35-.04,63.53.12,17.71.13,23.34,5.82,23.37,23.6.08,44.62.08,89.25,0,133.87-.03,17.23-5.51,22.88-22.45,22.9-65.33.09-130.66.09-196,0-16.14-.02-22.05-5.91-22.1-21.99-.13-45.07-.11-90.15-.01-135.22.04-16.72,6.17-22.98,22.66-23.15,20.27-.21,40.55-.02,60.83-.1,4.81-.02,9.61-.46,14.41-.7.6-1.13,1.19-2.25,1.79-3.38Zm75,30.3c-10.54-1.8-20.05-4.62-29.61-4.82-29.69-.61-59.4,0-89.09-.35-10.7-.13-20.39,1.96-30.63,8.71-1.2,6.09-3.61,13.03-3.78,20.03-.69,27.9-.94,55.81-.85,83.72.07,19.21,7.97,26.63,27.46,26.68,34.2.09,68.4.06,102.6.01,21.86-.03,29.28-7.25,29.25-29.01-.03-26.11-.09-52.23-.84-78.32-.24-8.31-2.73-16.55-4.51-26.66Zm35.49,45.31c-9.71.25-18.73,9.81-18.33,19.44.41,9.89,9.83,18.54,19.63,18.02,9.19-.49,17.73-9.46,17.75-18.64.02-9.57-9.59-19.06-19.05-18.82Zm19.06-31.23c.03-9.44-9.68-19.12-19.03-18.99-8.97.13-17.91,9.01-18.31,18.19-.42,9.68,8.59,19.4,18.21,19.63,9.34.22,19.11-9.39,19.13-18.84Z"/>
  <path class="cls-1" d="m174.77,85.94c1.78,10.11,4.27,18.36,4.51,26.66.75,26.09.8,52.21.84,78.32.03,21.76-7.39,28.98-29.25,29.01-34.2.05-68.4.08-102.6-.01-19.49-.05-27.4-7.47-27.46-26.68-.1-27.91.16-55.82.85-83.72.17-7,2.58-13.94,3.78-20.03,10.24-6.75,19.93-8.84,30.63-8.71,29.7.35,59.41-.27,89.09.35,9.56.2,19.07,3.02,29.61,4.82Z"/>
</svg>