<?xml version="1.0" encoding="UTF-8"?>
<svg id="Layer_1" data-name="Layer 1" xmlns="http://www.w3.org/2000/svg" viewBox="0 0 238.97 238.97">
  <defs>
    <style>
      .cls-1 {
        isolation: isolate;
        opacity: .14;
      }

      .cls-1, .cls-2 {
        stroke-width: 0px;
      }
    </style>
  </defs>
  <path class="cls-2" d="m212.37,0h-18.03l-26.6,26.6v18.03l1.21,1.21-34.95,34.95c-20.33-11.64-44.62-10.5-59.64,4.52-7.27,7.27-11.28,16.72-12.17,26.84-17.52-2.41-34.79,2.3-47.03,14.54-22.78,22.78-19.51,62.99,7.31,89.81,26.82,26.82,67.03,30.09,89.81,7.31,12.24-12.24,16.95-29.51,14.54-47.03,10.12-.89,19.57-4.9,26.84-12.17,15.02-15.02,16.16-39.31,4.52-59.64l34.95-34.95,1.21,1.21h18.03l26.6-26.6v-18.03L212.37,0Zm-83.77,139.55c-8.06,8.06-21.13,8.06-29.18,0-8.06-8.06-8.06-21.12,0-29.18s21.13-8.06,29.18,0,8.06,21.13,0,29.18Z"/>
  <circle class="cls-1" cx="114.01" cy="124.96" r="20.64"/>
</svg>