<?xml version="1.0" encoding="UTF-8"?>
<svg id="Layer_1" data-name="Layer 1" xmlns="http://www.w3.org/2000/svg" viewBox="0 0 225.14 247.18">
  <defs>
    <style>
      .cls-1 {
        stroke-width: 0px;
      }
    </style>
  </defs>
  <path class="cls-1" d="m98.32,106.91c-7.77,7.75-15.54,15.51-24.88,24.83-7.23-14.32-17.43-25.78-35.06-26.26-17.2-.47-28.02,9.38-36.42,23.87C-9.99,85.75,33.92,36.84,101.49,16.9c4.18-18.59,4.52-18.88,18.96-14.74.95,4.35,2.01,9.19,3.34,15.29,38.22,6.25,69.51,24.36,88.79,59.81,8.53,15.68,14.75,32.05,11.85,51.3-9.26-14.13-20.69-23.72-38.04-23.1-17.25.62-26.82,12.31-34.57,26.04-9.03-8.89-17.02-16.75-25.01-24.61-1.23.75-2.46,1.5-3.69,2.25-.24,4.44-.68,8.89-.69,13.33-.07,29.3.11,58.6-.1,87.9-.13,18.15-12.59,33.86-28.01,36.08-23.62,3.41-40.32-5.61-46.51-25.37-.99-3.17-2.09-7.08-1.09-9.94,1.47-4.22,4.78-7.81,7.3-11.67,4.04,2.78,8.32,5.29,12,8.5,1.31,1.14,1.09,3.99,1.69,6.03,2.72,9.2,9.29,12.73,18.4,12.15,8.81-.57,14.62-5.59,15.67-14.02,1.26-10.06,1.17-20.31,1.24-30.48.15-24.09.05-48.19.05-72.29-1.58-.82-3.16-1.64-4.74-2.47Z"/>
</svg>