<?xml version="1.0" encoding="UTF-8"?>
<svg id="Layer_1" data-name="Layer 1" xmlns="http://www.w3.org/2000/svg" viewBox="0 0 248.49 176.3">
  <defs>
    <style>
      .cls-1, .cls-2 {
        stroke-width: 0px;
      }

      .cls-2 {
        opacity: .1;
      }
    </style>
  </defs>
  <path class="cls-1" d="m0,0v176.3h248.49V0H0Zm69.02,26.84c13.36-.05,24.35,10.55,24.8,23.91.45,13.37-11.42,25.82-24.63,25.82-13.38,0-25.02-12.09-24.7-25.66.32-13.48,11.06-24.02,24.54-24.07Zm37.61,120.02H28.93c-1.19-24.83,4.81-38.2,16.42-47.89,11.64-9.72,31.76-10.68,44.8-2.15,13.19,8.63,17.44,28.87,16.49,50.04Zm115.31,2.18h-81.62c-3.45,0-6.24-2.79-6.24-6.24s2.79-6.24,6.24-6.24h81.62c3.45,0,6.24,2.79,6.24,6.24s-2.79,6.24-6.24,6.24Zm6.24-29.59c0,3.45-2.79,6.24-6.24,6.24h-81.62c-3.45,0-6.24-2.79-6.24-6.24h0c0-3.45,2.79-6.24,6.24-6.24h81.62c3.45,0,6.24,2.79,6.24,6.24h0Zm-6.24-15.25h-81.62c-3.45,0-6.24-2.79-6.24-6.24s2.79-6.24,6.24-6.24h81.62c3.45,0,6.24,2.79,6.24,6.24s-2.79,6.24-6.24,6.24Zm6.24-27.72c0,3.45-2.79,6.24-6.24,6.24h-81.62c-3.45,0-6.24-2.79-6.24-6.24h0c0-3.45,2.79-6.24,6.24-6.24h81.62c3.45,0,6.24,2.79,6.24,6.24h0Zm-6.24-15.25h-81.62c-3.45,0-6.24-2.79-6.24-6.24s2.79-6.24,6.24-6.24h81.62c3.45,0,6.24,2.79,6.24,6.24s-2.79,6.24-6.24,6.24Zm0-21.49h-81.62c-3.45,0-6.24-2.79-6.24-6.24s2.79-6.24,6.24-6.24h81.62c3.45,0,6.24,2.79,6.24,6.24s-2.79,6.24-6.24,6.24Z"/>
  <path class="cls-2" d="m221.94,136.56h-81.62c-3.45,0-6.24,2.79-6.24,6.24s2.79,6.24,6.24,6.24h81.62c3.45,0,6.24-2.79,6.24-6.24s-2.79-6.24-6.24-6.24Z"/>
  <rect class="cls-2" x="134.08" y="113.21" width="94.1" height="12.48" rx="6.24" ry="6.24"/>
  <path class="cls-2" d="m221.94,91.72h-81.62c-3.45,0-6.24,2.79-6.24,6.24s2.79,6.24,6.24,6.24h81.62c3.45,0,6.24-2.79,6.24-6.24s-2.79-6.24-6.24-6.24Z"/>
  <rect class="cls-2" x="134.08" y="70.24" width="94.1" height="12.48" rx="6.24" ry="6.24"/>
  <path class="cls-2" d="m221.94,48.75h-81.62c-3.45,0-6.24,2.79-6.24,6.24s2.79,6.24,6.24,6.24h81.62c3.45,0,6.24-2.79,6.24-6.24s-2.79-6.24-6.24-6.24Z"/>
  <path class="cls-2" d="m221.94,27.26h-81.62c-3.45,0-6.24,2.79-6.24,6.24s2.79,6.24,6.24,6.24h81.62c3.45,0,6.24-2.79,6.24-6.24s-2.79-6.24-6.24-6.24Z"/>
  <path class="cls-2" d="m90.15,96.81c-13.04-8.53-33.16-7.57-44.8,2.15-11.6,9.69-17.61,23.06-16.42,47.89h77.7c.95-21.17-3.3-41.4-16.49-50.04Z"/>
  <path class="cls-2" d="m69.02,26.84c-13.47.05-24.22,10.59-24.54,24.07-.32,13.57,11.32,25.67,24.7,25.66,13.21,0,25.08-12.45,24.63-25.82-.45-13.36-11.44-23.96-24.8-23.91Z"/>
</svg>