<?xml version="1.0" encoding="UTF-8"?>
<svg id="Layer_1" data-name="Layer 1" xmlns="http://www.w3.org/2000/svg" viewBox="0 0 249.88 166.05">
  <defs>
    <style>
      .cls-1, .cls-2 {
        stroke-width: 0px;
      }

      .cls-2 {
        opacity: .7;
      }
    </style>
  </defs>
  <path class="cls-1" d="m29.01,154.91c.06,3.67.11,7.38.11,11.15h79.28v-11.15H29.01Z"/>
  <path class="cls-1" d="m108.4,43.84c-19.49,4.06-39.18,14.97-59.18,32.8-8.27-11.69-17.75-21.81-23.21-33.76C20.59,31.06,17.32,13.07,18.97.02c-1.43-.22-5.48,1.47-7.03,3.66C6.41,10.04,2.92,16.04,1.9,22.75-2.6,52.43-.25,81.16,21.58,104.45c6.13,6.54,8.39,12.78,7.77,21.62-.47,6.59-.52,13.21-.46,19.92h79.51V43.84Z"/>
  <path class="cls-1" d="m143.33,166.05h77.1c0-3.9-.15-7.58-.18-11.15h-76.92v11.15Z"/>
  <path class="cls-1" d="m220.59,145.99c1.11-12.71-1.41-28.97,5.47-36.96,21.62-25.11,26.26-53.07,22.79-83.83-.96-8.52-3.82-17.31-16.51-21.65-1.48,28.9-9.38,53.89-33.41,71.37-18.47-16.65-36.96-27-55.59-31v102.08h77.26Z"/>
  <path class="cls-2" d="m220.53,146.59c.02-.2.03-.4.05-.59h-77.26V43.91c-11.59-2.49-23.22-2.52-34.93-.08v102.16H28.89c.03,2.95.07,5.92.12,8.91h79.39v11.15h34.93v-11.15h76.92c-.03-2.83.02-5.58.29-8.32Z"/>
  <rect class="cls-1" x="111.96" y="64.97" width="27.8" height="19.6" rx="6.08" ry="6.08"/>
  <rect class="cls-1" x="111.96" y="102.48" width="27.8" height="19.6" rx="6.08" ry="6.08"/>
  <rect class="cls-1" x="111.96" y="140" width="27.8" height="19.6" rx="6.08" ry="6.08"/>
</svg>