<?xml version="1.0" encoding="UTF-8"?>
<svg id="Layer_1" data-name="Layer 1" xmlns="http://www.w3.org/2000/svg" viewBox="0 0 248.25 187.85">
  <defs>
    <style>
      .cls-1, .cls-2 {
        stroke-width: 0px;
      }

      .cls-2 {
        opacity: .07;
      }
    </style>
  </defs>
  <path class="cls-1" d="m0,0h248.25v187.85H0V0Zm21.26,21.38v145.12h205.91V21.38H21.26Z"/>
  <path class="cls-2" d="m21.26,21.38h205.91v145.12H21.26V21.38Zm10.53,134.82h189.32c-7.15-17.28-11.72-32.52-19.42-45.96-11.21-19.57-29.85-22.67-47.94-8.88-8.11,6.18-14.64,14.48-21.62,22.06-10.28,11.15-21.12,15.75-36.15,7.84-27.53-14.48-47.26-2.93-64.18,24.94Zm45.5-109.87c-15.92-.13-26.35,10.08-26.57,26-.23,16.2,9.71,26.9,25.32,27.24,16.72.36,27.39-10.05,27.33-26.68-.06-16.18-10.12-26.43-26.07-26.56Z"/>
  <path class="cls-1" d="m31.79,156.2c16.92-27.87,36.65-39.42,64.18-24.94,15.03,7.9,25.87,3.31,36.15-7.84,6.99-7.58,13.52-15.88,21.62-22.06,18.09-13.79,36.72-10.69,47.94,8.88,7.7,13.44,12.28,28.68,19.42,45.96H31.79Z"/>
  <path class="cls-1" d="m77.29,46.33c15.95.13,26.01,10.38,26.07,26.56.06,16.62-10.61,27.04-27.33,26.68-15.6-.34-25.55-11.04-25.32-27.24.22-15.92,10.65-26.13,26.57-26Z"/>
</svg>