<?xml version="1.0" encoding="UTF-8"?>
<svg id="Layer_1" data-name="Layer 1" xmlns="http://www.w3.org/2000/svg" viewBox="0 0 205.56 255.26">
  <defs>
    <style>
      .cls-1 {
        stroke-width: 0px;
      }
    </style>
  </defs>
  <path class="cls-1" d="m92.72,0h19.25v34.74c22.95,2.79,44.74.01,66.82,1.73,8.44,7.21,17.06,14.57,26.78,22.86-9.91,8.28-18.36,15.33-26.59,22.2H20.46v-45.61h72.26V0Z"/>
  <path class="cls-1" d="m92.36,118.31c.6-10.1,1.06-17.76,1.58-26.39h17.33c.63,8.04,1.25,16.04,2.04,26.1h72v45.79c-5.59.32-10.37.82-15.16.83-42.81.06-85.62-.24-128.43.23-10.15.11-18.39-2.09-25.54-9.39-4.51-4.61-9.77-8.46-16.18-13.92,13.89-10.75,23.02-25.38,43.12-23.54,15.83,1.45,31.89.29,49.25.29Z"/>
  <path class="cls-1" d="m94.08,174.33h17.13v80.93h-17.13v-80.93Z"/>
</svg>