<?xml version="1.0" encoding="UTF-8"?>
<svg id="Layer_1" data-name="Layer 1" xmlns="http://www.w3.org/2000/svg" viewBox="0 0 233.21 233.21">
  <defs>
    <style>
      .cls-1 {
        stroke-width: 0px;
      }
    </style>
  </defs>
  <path class="cls-1" d="m199.63,69.96h-10.64l-25.74-25.74v-10.64L195.04,1.79c-17.28-4.66-36.5-.22-50.06,13.34-13.58,13.58-18.01,32.82-13.32,50.11l36.31,36.31c17.29,4.68,36.54.25,50.11-13.32,13.56-13.56,18-32.78,13.34-50.06,0,0-31.79,31.79-31.79,31.79Z"/>
  <rect class="cls-1" x="71.11" y="90.87" width="91" height="51.45" transform="translate(-48.29 116.6) rotate(-45)"/>
  <path class="cls-1" d="m33.58,163.25h10.64l25.74,25.74v10.64l-31.79,31.79c17.28,4.66,36.5.22,50.06-13.34s18.01-32.82,13.32-50.11l-36.31-36.31c-17.29-4.68-36.54-.25-50.11,13.32S-2.87,177.76,1.79,195.04l31.79-31.79Z"/>
</svg>